M48
;DRILL file {KiCad 4.0.5} date 09/23/17 21:45:14
;FORMAT={-:-/ absolute / inch / decimal}
FMAT,2
INCH,TZ
T1C0.016
T2C0.031
T3C0.035
T4C0.039
T5C0.040
T6C0.126
%
G90
G05
M72
T1
X6.42Y-5.5771
X6.575Y-5.295
X6.6Y-5.575
X6.825Y-5.585
X6.86Y-4.995
X6.9Y-5.11
X6.9Y-5.3
X6.92Y-5.615
X6.945Y-5.06
X7.Y-5.56
X7.015Y-5.09
X7.05Y-5.32
X7.205Y-5.855
X7.22Y-4.21
X7.25Y-5.135
X7.325Y-5.69
X7.325Y-5.77
X7.325Y-5.88
X7.355Y-5.6
X7.36Y-5.8
X7.39Y-5.65
X7.47Y-5.275
X7.515Y-5.825
X7.53Y-4.8
X7.55Y-4.55
X7.575Y-5.8
X7.625Y-4.575
X7.625Y-5.775
X7.635Y-5.65
X7.765Y-4.615
X7.775Y-5.005
X7.78Y-5.105
X7.8Y-5.4
X7.875Y-5.855
X7.89Y-5.03
X7.9Y-5.5
X7.925Y-4.675
X7.925Y-4.825
X7.965Y-5.35
X7.975Y-5.6
X8.005Y-4.645
X8.01Y-5.86
X8.025Y-4.825
X8.025Y-5.325
X8.075Y-4.825
X8.125Y-4.5
X8.125Y-4.825
X8.15Y-4.625
X8.175Y-4.825
X8.225Y-4.825
X8.23Y-5.8
X8.25Y-5.775
X8.265Y-5.825
X8.275Y-4.825
X8.275Y-5.65
X8.3Y-5.4
X8.325Y-4.825
X8.325Y-5.35
X8.325Y-5.525
X8.35Y-5.4
X8.37Y-5.775
X8.375Y-4.825
X8.4Y-5.3
X8.42Y-5.4
X8.42Y-5.8
X8.4496Y-5.825
X8.6Y-5.4
X8.6Y-5.8
X8.7Y-5.44
X8.8Y-5.325
X8.825Y-4.825
X8.875Y-4.525
X8.875Y-5.5
X8.91Y-5.32
X8.925Y-4.835
X8.925Y-5.45
X8.975Y-4.875
X9.0054Y-5.2204
X9.025Y-5.435
X9.05Y-4.8
X9.085Y-5.375
X9.175Y-4.8
X9.175Y-5.795
X9.33Y-4.775
X9.35Y-4.75
X9.375Y-4.725
X9.4Y-4.7
X9.41Y-5.255
X9.425Y-4.675
X9.45Y-4.65
X9.475Y-4.625
X9.575Y-4.76
X9.575Y-5.165
X9.575Y-5.26
X9.625Y-5.4
X9.625Y-5.575
X9.675Y-4.65
X9.675Y-5.24
X9.7Y-5.43
X9.745Y-4.81
X9.855Y-4.875
X9.915Y-4.935
X9.925Y-5.205
T2
X6.13Y-5.3031
X6.13Y-5.5
X6.25Y-5.45
X6.25Y-5.75
X6.325Y-4.9
X6.325Y-5.2
X6.35Y-5.45
X6.35Y-5.75
X6.425Y-4.7
X6.425Y-4.9
X6.425Y-5.2
X6.45Y-5.45
X6.45Y-5.75
X6.525Y-4.7
X6.525Y-4.9
X6.525Y-5.2
X6.55Y-5.45
X6.55Y-5.75
X6.625Y-4.7
X6.625Y-4.9
X6.625Y-5.2
X6.65Y-4.175
X6.65Y-4.3
X6.65Y-4.425
X6.65Y-5.45
X6.65Y-5.75
X6.725Y-4.7
X6.725Y-4.9
X6.725Y-5.2
X6.75Y-5.45
X6.75Y-5.75
X6.825Y-4.7
X6.825Y-4.9
X6.825Y-5.2
X6.85Y-5.45
X6.85Y-5.75
X6.925Y-4.7
X6.95Y-5.45
X6.95Y-5.75
X7.025Y-4.7
X7.05Y-4.175
X7.05Y-4.3
X7.05Y-4.425
X7.05Y-5.45
X7.05Y-5.75
X7.1Y-4.9
X7.1Y-5.2
X7.15Y-5.45
X7.15Y-5.75
X7.2Y-4.9
X7.2Y-5.2
X7.225Y-4.7
X7.3Y-4.9
X7.3Y-5.2
X7.4Y-4.9
X7.4Y-5.2
X7.4219Y-4.7
X7.5Y-4.9
X7.5Y-5.2
X7.6Y-4.9
X7.6Y-5.2
X7.7Y-4.9
X7.7Y-5.2
X7.925Y-5.1
X7.925Y-5.7
X8.025Y-5.1
X8.025Y-5.7
X8.125Y-5.1
X8.125Y-5.7
X8.225Y-5.1
X8.225Y-5.7
X8.325Y-5.1
X8.325Y-5.7
X8.425Y-5.1
X8.425Y-5.7
X8.525Y-5.1
X8.525Y-5.7
X8.625Y-5.1
X8.625Y-5.7
X8.725Y-5.1
X8.725Y-5.7
X8.825Y-5.1
X8.825Y-5.7
X8.925Y-5.1
X8.925Y-5.7
X9.025Y-5.1
X9.025Y-5.7
X9.125Y-5.1
X9.125Y-5.7
X9.225Y-5.1
X9.225Y-5.7
X9.245Y-4.965
X9.325Y-5.1
X9.325Y-5.7
X9.425Y-5.1
X9.425Y-5.7
X9.4419Y-4.965
X9.525Y-5.1
X9.525Y-5.7
X9.625Y-5.1
X9.625Y-5.7
X9.725Y-5.1
X9.725Y-5.7
X9.77Y-4.495
X9.77Y-4.895
X9.825Y-5.1
X9.825Y-5.7
X9.895Y-4.405
X9.895Y-4.805
T3
X9.65Y-4.325
X9.75Y-4.325
T4
X6.125Y-5.975
X6.225Y-5.975
X6.325Y-5.975
X6.425Y-5.975
X6.525Y-5.975
X6.625Y-5.975
X6.725Y-5.975
X6.805Y-4.56
X6.825Y-5.975
X6.905Y-4.56
X6.925Y-5.975
X7.025Y-5.975
X7.125Y-5.975
X7.225Y-5.975
X7.325Y-5.975
X7.425Y-5.975
X7.525Y-5.975
X7.625Y-5.975
X7.725Y-5.975
X7.825Y-5.975
X7.925Y-5.975
X8.025Y-5.975
X8.125Y-5.975
X8.225Y-5.975
X8.325Y-5.975
X8.425Y-5.975
X8.525Y-5.975
X8.625Y-5.975
X8.725Y-5.975
X8.825Y-5.975
X8.925Y-5.975
X9.025Y-5.975
X9.125Y-5.975
X9.225Y-5.975
X9.325Y-5.975
X9.425Y-5.975
X9.51Y-4.525
X9.525Y-5.975
X9.61Y-4.525
X9.625Y-5.975
X9.725Y-5.975
X9.825Y-5.975
X9.925Y-5.975
T5
X7.325Y-4.25
X7.325Y-4.35
X7.425Y-4.25
X7.425Y-4.35
X7.525Y-4.25
X7.525Y-4.35
X7.625Y-4.25
X7.625Y-4.35
X7.725Y-4.25
X7.725Y-4.35
X7.825Y-4.25
X7.825Y-4.35
X7.925Y-4.25
X7.925Y-4.35
X8.025Y-4.25
X8.025Y-4.35
X8.125Y-4.25
X8.125Y-4.35
X8.225Y-4.25
X8.225Y-4.35
X8.325Y-4.25
X8.325Y-4.35
X8.425Y-4.25
X8.425Y-4.35
X8.525Y-4.25
X8.525Y-4.35
X8.625Y-4.25
X8.625Y-4.35
X8.725Y-4.25
X8.725Y-4.35
X8.825Y-4.25
X8.825Y-4.35
X8.925Y-4.25
X8.925Y-4.35
X9.025Y-4.25
X9.025Y-4.35
X9.125Y-4.25
X9.125Y-4.35
X9.225Y-4.25
X9.225Y-4.35
T6
X6.257Y-4.734
T0
M30
