G04 #@! TF.FileFunction,Soldermask,Bot*
%FSLAX46Y46*%
G04 Gerber Fmt 4.6, Leading zero omitted, Abs format (unit mm)*
G04 Created by KiCad (PCBNEW 4.0.5) date 09/23/17 21:45:55*
%MOMM*%
%LPD*%
G01*
G04 APERTURE LIST*
%ADD10C,0.100000*%
%ADD11R,2.000000X2.800000*%
%ADD12O,2.000000X2.800000*%
%ADD13R,2.000000X2.000000*%
%ADD14O,2.000000X2.000000*%
%ADD15C,3.600000*%
%ADD16C,2.000000*%
%ADD17R,2.200000X2.200000*%
%ADD18C,2.200000*%
%ADD19R,2.100000X2.100000*%
%ADD20O,2.100000X2.100000*%
%ADD21R,2.127200X2.127200*%
%ADD22O,2.127200X2.127200*%
G04 APERTURE END LIST*
D10*
D11*
X201295000Y-144780000D03*
D12*
X249555000Y-129540000D03*
X203835000Y-144780000D03*
X247015000Y-129540000D03*
X206375000Y-144780000D03*
X244475000Y-129540000D03*
X208915000Y-144780000D03*
X241935000Y-129540000D03*
X211455000Y-144780000D03*
X239395000Y-129540000D03*
X213995000Y-144780000D03*
X236855000Y-129540000D03*
X216535000Y-144780000D03*
X234315000Y-129540000D03*
X219075000Y-144780000D03*
X231775000Y-129540000D03*
X221615000Y-144780000D03*
X229235000Y-129540000D03*
X224155000Y-144780000D03*
X226695000Y-129540000D03*
X226695000Y-144780000D03*
X224155000Y-129540000D03*
X229235000Y-144780000D03*
X221615000Y-129540000D03*
X231775000Y-144780000D03*
X219075000Y-129540000D03*
X234315000Y-144780000D03*
X216535000Y-129540000D03*
X236855000Y-144780000D03*
X213995000Y-129540000D03*
X239395000Y-144780000D03*
X211455000Y-129540000D03*
X241935000Y-144780000D03*
X208915000Y-129540000D03*
X244475000Y-144780000D03*
X206375000Y-129540000D03*
X247015000Y-144780000D03*
X203835000Y-129540000D03*
X249555000Y-144780000D03*
X201295000Y-129540000D03*
D13*
X160655000Y-132080000D03*
D14*
X173355000Y-124460000D03*
X163195000Y-132080000D03*
X170815000Y-124460000D03*
X165735000Y-132080000D03*
X168275000Y-124460000D03*
X168275000Y-132080000D03*
X165735000Y-124460000D03*
X170815000Y-132080000D03*
X163195000Y-124460000D03*
X173355000Y-132080000D03*
X160655000Y-124460000D03*
D15*
X158927800Y-120243600D03*
D16*
X155702000Y-139700000D03*
X155702000Y-134700000D03*
X183515000Y-119380000D03*
X188515000Y-119380000D03*
X234823000Y-126111000D03*
X239823000Y-126111000D03*
D17*
X245110000Y-109855000D03*
D18*
X247650000Y-109855000D03*
D19*
X155575000Y-151765000D03*
D20*
X158115000Y-151765000D03*
X160655000Y-151765000D03*
X163195000Y-151765000D03*
X165735000Y-151765000D03*
X168275000Y-151765000D03*
X170815000Y-151765000D03*
X173355000Y-151765000D03*
X175895000Y-151765000D03*
X178435000Y-151765000D03*
X180975000Y-151765000D03*
X183515000Y-151765000D03*
X186055000Y-151765000D03*
X188595000Y-151765000D03*
X191135000Y-151765000D03*
X193675000Y-151765000D03*
X196215000Y-151765000D03*
X198755000Y-151765000D03*
X201295000Y-151765000D03*
X203835000Y-151765000D03*
X206375000Y-151765000D03*
X208915000Y-151765000D03*
X211455000Y-151765000D03*
X213995000Y-151765000D03*
X216535000Y-151765000D03*
X219075000Y-151765000D03*
X221615000Y-151765000D03*
X224155000Y-151765000D03*
X226695000Y-151765000D03*
X229235000Y-151765000D03*
X231775000Y-151765000D03*
X234315000Y-151765000D03*
X236855000Y-151765000D03*
X239395000Y-151765000D03*
X241935000Y-151765000D03*
X244475000Y-151765000D03*
X247015000Y-151765000D03*
X249555000Y-151765000D03*
X252095000Y-151765000D03*
D21*
X186055000Y-110490000D03*
D22*
X186055000Y-107950000D03*
X188595000Y-110490000D03*
X188595000Y-107950000D03*
X191135000Y-110490000D03*
X191135000Y-107950000D03*
X193675000Y-110490000D03*
X193675000Y-107950000D03*
X196215000Y-110490000D03*
X196215000Y-107950000D03*
X198755000Y-110490000D03*
X198755000Y-107950000D03*
X201295000Y-110490000D03*
X201295000Y-107950000D03*
X203835000Y-110490000D03*
X203835000Y-107950000D03*
X206375000Y-110490000D03*
X206375000Y-107950000D03*
X208915000Y-110490000D03*
X208915000Y-107950000D03*
X211455000Y-110490000D03*
X211455000Y-107950000D03*
X213995000Y-110490000D03*
X213995000Y-107950000D03*
X216535000Y-110490000D03*
X216535000Y-107950000D03*
X219075000Y-110490000D03*
X219075000Y-107950000D03*
X221615000Y-110490000D03*
X221615000Y-107950000D03*
X224155000Y-110490000D03*
X224155000Y-107950000D03*
X226695000Y-110490000D03*
X226695000Y-107950000D03*
X229235000Y-110490000D03*
X229235000Y-107950000D03*
X231775000Y-110490000D03*
X231775000Y-107950000D03*
X234315000Y-110490000D03*
X234315000Y-107950000D03*
D16*
X251333000Y-111887000D03*
D14*
X251333000Y-122047000D03*
D16*
X248158000Y-114173000D03*
D14*
X248158000Y-124333000D03*
D16*
X168910000Y-109220000D03*
D14*
X179070000Y-109220000D03*
D16*
X168910000Y-106045000D03*
D14*
X179070000Y-106045000D03*
D13*
X178435000Y-119380000D03*
D14*
X175895000Y-119380000D03*
X173355000Y-119380000D03*
X170815000Y-119380000D03*
X168275000Y-119380000D03*
X165735000Y-119380000D03*
X163195000Y-119380000D03*
D11*
X158750000Y-146050000D03*
D12*
X181610000Y-138430000D03*
X161290000Y-146050000D03*
X179070000Y-138430000D03*
X163830000Y-146050000D03*
X176530000Y-138430000D03*
X166370000Y-146050000D03*
X173990000Y-138430000D03*
X168910000Y-146050000D03*
X171450000Y-138430000D03*
X171450000Y-146050000D03*
X168910000Y-138430000D03*
X173990000Y-146050000D03*
X166370000Y-138430000D03*
X176530000Y-146050000D03*
X163830000Y-138430000D03*
X179070000Y-146050000D03*
X161290000Y-138430000D03*
X181610000Y-146050000D03*
X158750000Y-138430000D03*
D11*
X180340000Y-132080000D03*
D12*
X195580000Y-124460000D03*
X182880000Y-132080000D03*
X193040000Y-124460000D03*
X185420000Y-132080000D03*
X190500000Y-124460000D03*
X187960000Y-132080000D03*
X187960000Y-124460000D03*
X190500000Y-132080000D03*
X185420000Y-124460000D03*
X193040000Y-132080000D03*
X182880000Y-124460000D03*
X195580000Y-132080000D03*
X180340000Y-124460000D03*
D19*
X175387000Y-115824000D03*
D20*
X172847000Y-115824000D03*
D19*
X244094000Y-114935000D03*
D20*
X241554000Y-114935000D03*
D16*
X168910000Y-112395000D03*
D14*
X179070000Y-112395000D03*
M02*
