G04 #@! TF.FileFunction,Copper,L2,Bot,Signal*
%FSLAX46Y46*%
G04 Gerber Fmt 4.6, Leading zero omitted, Abs format (unit mm)*
G04 Created by KiCad (PCBNEW 4.0.5) date 09/23/17 21:45:55*
%MOMM*%
%LPD*%
G01*
G04 APERTURE LIST*
%ADD10C,0.100000*%
%ADD11R,1.600000X2.400000*%
%ADD12O,1.600000X2.400000*%
%ADD13R,1.600000X1.600000*%
%ADD14O,1.600000X1.600000*%
%ADD15C,1.600000*%
%ADD16R,1.800000X1.800000*%
%ADD17C,1.800000*%
%ADD18R,1.700000X1.700000*%
%ADD19O,1.700000X1.700000*%
%ADD20R,1.727200X1.727200*%
%ADD21O,1.727200X1.727200*%
%ADD22C,0.600000*%
%ADD23C,0.350000*%
%ADD24C,0.250000*%
%ADD25C,0.254000*%
G04 APERTURE END LIST*
D10*
D11*
X201295000Y-144780000D03*
D12*
X249555000Y-129540000D03*
X203835000Y-144780000D03*
X247015000Y-129540000D03*
X206375000Y-144780000D03*
X244475000Y-129540000D03*
X208915000Y-144780000D03*
X241935000Y-129540000D03*
X211455000Y-144780000D03*
X239395000Y-129540000D03*
X213995000Y-144780000D03*
X236855000Y-129540000D03*
X216535000Y-144780000D03*
X234315000Y-129540000D03*
X219075000Y-144780000D03*
X231775000Y-129540000D03*
X221615000Y-144780000D03*
X229235000Y-129540000D03*
X224155000Y-144780000D03*
X226695000Y-129540000D03*
X226695000Y-144780000D03*
X224155000Y-129540000D03*
X229235000Y-144780000D03*
X221615000Y-129540000D03*
X231775000Y-144780000D03*
X219075000Y-129540000D03*
X234315000Y-144780000D03*
X216535000Y-129540000D03*
X236855000Y-144780000D03*
X213995000Y-129540000D03*
X239395000Y-144780000D03*
X211455000Y-129540000D03*
X241935000Y-144780000D03*
X208915000Y-129540000D03*
X244475000Y-144780000D03*
X206375000Y-129540000D03*
X247015000Y-144780000D03*
X203835000Y-129540000D03*
X249555000Y-144780000D03*
X201295000Y-129540000D03*
D13*
X160655000Y-132080000D03*
D14*
X173355000Y-124460000D03*
X163195000Y-132080000D03*
X170815000Y-124460000D03*
X165735000Y-132080000D03*
X168275000Y-124460000D03*
X168275000Y-132080000D03*
X165735000Y-124460000D03*
X170815000Y-132080000D03*
X163195000Y-124460000D03*
X173355000Y-132080000D03*
X160655000Y-124460000D03*
D15*
X155702000Y-139700000D03*
X155702000Y-134700000D03*
X183515000Y-119380000D03*
X188515000Y-119380000D03*
X234823000Y-126111000D03*
X239823000Y-126111000D03*
D16*
X245110000Y-109855000D03*
D17*
X247650000Y-109855000D03*
D18*
X155575000Y-151765000D03*
D19*
X158115000Y-151765000D03*
X160655000Y-151765000D03*
X163195000Y-151765000D03*
X165735000Y-151765000D03*
X168275000Y-151765000D03*
X170815000Y-151765000D03*
X173355000Y-151765000D03*
X175895000Y-151765000D03*
X178435000Y-151765000D03*
X180975000Y-151765000D03*
X183515000Y-151765000D03*
X186055000Y-151765000D03*
X188595000Y-151765000D03*
X191135000Y-151765000D03*
X193675000Y-151765000D03*
X196215000Y-151765000D03*
X198755000Y-151765000D03*
X201295000Y-151765000D03*
X203835000Y-151765000D03*
X206375000Y-151765000D03*
X208915000Y-151765000D03*
X211455000Y-151765000D03*
X213995000Y-151765000D03*
X216535000Y-151765000D03*
X219075000Y-151765000D03*
X221615000Y-151765000D03*
X224155000Y-151765000D03*
X226695000Y-151765000D03*
X229235000Y-151765000D03*
X231775000Y-151765000D03*
X234315000Y-151765000D03*
X236855000Y-151765000D03*
X239395000Y-151765000D03*
X241935000Y-151765000D03*
X244475000Y-151765000D03*
X247015000Y-151765000D03*
X249555000Y-151765000D03*
X252095000Y-151765000D03*
D20*
X186055000Y-110490000D03*
D21*
X186055000Y-107950000D03*
X188595000Y-110490000D03*
X188595000Y-107950000D03*
X191135000Y-110490000D03*
X191135000Y-107950000D03*
X193675000Y-110490000D03*
X193675000Y-107950000D03*
X196215000Y-110490000D03*
X196215000Y-107950000D03*
X198755000Y-110490000D03*
X198755000Y-107950000D03*
X201295000Y-110490000D03*
X201295000Y-107950000D03*
X203835000Y-110490000D03*
X203835000Y-107950000D03*
X206375000Y-110490000D03*
X206375000Y-107950000D03*
X208915000Y-110490000D03*
X208915000Y-107950000D03*
X211455000Y-110490000D03*
X211455000Y-107950000D03*
X213995000Y-110490000D03*
X213995000Y-107950000D03*
X216535000Y-110490000D03*
X216535000Y-107950000D03*
X219075000Y-110490000D03*
X219075000Y-107950000D03*
X221615000Y-110490000D03*
X221615000Y-107950000D03*
X224155000Y-110490000D03*
X224155000Y-107950000D03*
X226695000Y-110490000D03*
X226695000Y-107950000D03*
X229235000Y-110490000D03*
X229235000Y-107950000D03*
X231775000Y-110490000D03*
X231775000Y-107950000D03*
X234315000Y-110490000D03*
X234315000Y-107950000D03*
D15*
X251333000Y-111887000D03*
D14*
X251333000Y-122047000D03*
D15*
X248158000Y-114173000D03*
D14*
X248158000Y-124333000D03*
D15*
X168910000Y-109220000D03*
D14*
X179070000Y-109220000D03*
D15*
X168910000Y-106045000D03*
D14*
X179070000Y-106045000D03*
D13*
X178435000Y-119380000D03*
D14*
X175895000Y-119380000D03*
X173355000Y-119380000D03*
X170815000Y-119380000D03*
X168275000Y-119380000D03*
X165735000Y-119380000D03*
X163195000Y-119380000D03*
D11*
X158750000Y-146050000D03*
D12*
X181610000Y-138430000D03*
X161290000Y-146050000D03*
X179070000Y-138430000D03*
X163830000Y-146050000D03*
X176530000Y-138430000D03*
X166370000Y-146050000D03*
X173990000Y-138430000D03*
X168910000Y-146050000D03*
X171450000Y-138430000D03*
X171450000Y-146050000D03*
X168910000Y-138430000D03*
X173990000Y-146050000D03*
X166370000Y-138430000D03*
X176530000Y-146050000D03*
X163830000Y-138430000D03*
X179070000Y-146050000D03*
X161290000Y-138430000D03*
X181610000Y-146050000D03*
X158750000Y-138430000D03*
D11*
X180340000Y-132080000D03*
D12*
X195580000Y-124460000D03*
X182880000Y-132080000D03*
X193040000Y-124460000D03*
X185420000Y-132080000D03*
X190500000Y-124460000D03*
X187960000Y-132080000D03*
X187960000Y-124460000D03*
X190500000Y-132080000D03*
X185420000Y-124460000D03*
X193040000Y-132080000D03*
X182880000Y-124460000D03*
X195580000Y-132080000D03*
X180340000Y-124460000D03*
D18*
X175387000Y-115824000D03*
D19*
X172847000Y-115824000D03*
D18*
X244094000Y-114935000D03*
D19*
X241554000Y-114935000D03*
D15*
X168910000Y-112395000D03*
D14*
X179070000Y-112395000D03*
D22*
X175768000Y-142621000D03*
X173355000Y-141859000D03*
X200025000Y-148717000D03*
X186817000Y-142240000D03*
X211455000Y-135890000D03*
X211455000Y-140335000D03*
X210185000Y-143510000D03*
X186055000Y-146558000D03*
X186055000Y-144526000D03*
X186055000Y-149352000D03*
X183007000Y-148717000D03*
X209042000Y-147320000D03*
X213868000Y-147320000D03*
X218440000Y-147320000D03*
X192405000Y-147320000D03*
X212598000Y-146685000D03*
X209550000Y-146685000D03*
X193675000Y-146685000D03*
X198120000Y-137160000D03*
X200660000Y-139700000D03*
X203454000Y-148844000D03*
X202565000Y-142240000D03*
X190881000Y-147955000D03*
X186944000Y-147320000D03*
X214620000Y-147955000D03*
X209931000Y-147955000D03*
X220980000Y-138176000D03*
X225425000Y-139700000D03*
X230759000Y-136525000D03*
X233045000Y-147193000D03*
X208915000Y-122555000D03*
X236982000Y-121285000D03*
X191770000Y-115570000D03*
X206375000Y-122555000D03*
X237490000Y-120650000D03*
X203835000Y-122555000D03*
X193675000Y-116205000D03*
X238125000Y-120015000D03*
X201295000Y-122555000D03*
X197231000Y-117221000D03*
X238760000Y-119380000D03*
X205105000Y-122555000D03*
X201295000Y-118745000D03*
X247523000Y-122174000D03*
X239395000Y-118745000D03*
X203327000Y-117983000D03*
X207645000Y-122555000D03*
X252095000Y-132207000D03*
X250317000Y-123825000D03*
X251841000Y-125349000D03*
X240030000Y-118110000D03*
X210185000Y-122555000D03*
X207010000Y-117475000D03*
X246380000Y-137922000D03*
X245745000Y-133096000D03*
X245745000Y-118110000D03*
X240665000Y-117475000D03*
X211455000Y-122555000D03*
X206375000Y-114300000D03*
X244475000Y-141605000D03*
X244475000Y-137160000D03*
X243205000Y-131191000D03*
X243205000Y-120904000D03*
X243205000Y-133604000D03*
X183388000Y-106934000D03*
X226695000Y-122809000D03*
X227965000Y-123825000D03*
X233045000Y-121920000D03*
X229870000Y-121920000D03*
X191262000Y-121920000D03*
X225425000Y-114935000D03*
X224155000Y-122555000D03*
X212725000Y-122555000D03*
X175260000Y-134620000D03*
X175260000Y-129794000D03*
X179070000Y-135128000D03*
X178181000Y-129286000D03*
X174244000Y-126873000D03*
X177800000Y-141224000D03*
X176403000Y-128524000D03*
X167005000Y-134493000D03*
X167640000Y-141605000D03*
X163068000Y-141658000D03*
X187706000Y-143510000D03*
X193929000Y-143510000D03*
X202311000Y-135890000D03*
X213868000Y-137160000D03*
X218440000Y-137160000D03*
X184150000Y-130429000D03*
X210820000Y-137160000D03*
X212090000Y-137160000D03*
X223520000Y-135255000D03*
X226695000Y-138430000D03*
X203835000Y-135255000D03*
X229235000Y-138049000D03*
X226314000Y-135128000D03*
X189738000Y-133985000D03*
X228737000Y-132598000D03*
X200406000Y-127762000D03*
X197485000Y-127127000D03*
X213360000Y-134620000D03*
X239014000Y-133477000D03*
X197612000Y-129667000D03*
D23*
X180340000Y-124460000D02*
X180340000Y-123952000D01*
D24*
X177165000Y-143002000D02*
X176149000Y-143002000D01*
X176149000Y-143002000D02*
X175768000Y-142621000D01*
X177165000Y-143002000D02*
X186055000Y-143002000D01*
X171450000Y-139954000D02*
X173355000Y-141859000D01*
X171450000Y-138430000D02*
X171450000Y-139954000D01*
X186055000Y-143002000D02*
X186817000Y-142240000D01*
X201295000Y-151765000D02*
X201295000Y-149987000D01*
X201295000Y-149987000D02*
X200025000Y-148717000D01*
X210185000Y-143510000D02*
X210185000Y-146177000D01*
X210185000Y-146177000D02*
X210820000Y-146812000D01*
X210820000Y-146812000D02*
X210820000Y-148590000D01*
X210820000Y-148590000D02*
X213995000Y-151765000D01*
X211455000Y-140335000D02*
X211455000Y-135890000D01*
X216535000Y-151765000D02*
X211455000Y-146685000D01*
X211455000Y-146685000D02*
X211455000Y-144780000D01*
X234315000Y-110490000D02*
X241554000Y-110490000D01*
X241554000Y-110490000D02*
X244475000Y-110490000D01*
X241554000Y-114935000D02*
X241554000Y-110490000D01*
X244475000Y-110490000D02*
X245110000Y-109855000D01*
X186055000Y-144526000D02*
X186055000Y-146558000D01*
X182372000Y-138430000D02*
X181610000Y-138430000D01*
X186055000Y-149352000D02*
X186055000Y-151765000D01*
X183007000Y-148717000D02*
X187452000Y-148717000D01*
X187452000Y-148717000D02*
X188595000Y-149860000D01*
X188595000Y-149860000D02*
X188595000Y-151765000D01*
X192405000Y-147320000D02*
X206502000Y-147320000D01*
X206502000Y-147320000D02*
X209042000Y-147320000D01*
X218440000Y-147320000D02*
X213868000Y-147320000D01*
X213116000Y-146685000D02*
X212598000Y-146685000D01*
X217805000Y-146685000D02*
X213116000Y-146685000D01*
X213116000Y-146685000D02*
X213106000Y-146695000D01*
X217805000Y-146685000D02*
X219710000Y-146685000D01*
X219710000Y-146685000D02*
X221615000Y-144780000D01*
X193675000Y-146685000D02*
X209550000Y-146685000D01*
X198120000Y-137160000D02*
X196215000Y-135255000D01*
X196215000Y-135255000D02*
X183115000Y-135255000D01*
X183115000Y-135255000D02*
X180340000Y-132480000D01*
X180340000Y-132480000D02*
X180340000Y-132080000D01*
X202565000Y-141605000D02*
X200660000Y-139700000D01*
X203454000Y-148844000D02*
X203835000Y-149225000D01*
X203835000Y-149225000D02*
X203835000Y-151765000D01*
X202565000Y-142240000D02*
X202565000Y-141605000D01*
X190881000Y-147955000D02*
X208466313Y-147955000D01*
X208466313Y-147955000D02*
X209931000Y-147955000D01*
X186944000Y-147320000D02*
X184404000Y-147320000D01*
X214620000Y-147955000D02*
X218176000Y-147955000D01*
X218176000Y-147955000D02*
X218186000Y-147945000D01*
X219075000Y-151765000D02*
X219075000Y-148834000D01*
X219075000Y-148834000D02*
X218186000Y-147945000D01*
X158750000Y-146050000D02*
X158750000Y-147500000D01*
X158750000Y-147500000D02*
X159205000Y-147955000D01*
X159205000Y-147955000D02*
X183769000Y-147955000D01*
X183769000Y-147955000D02*
X184404000Y-147320000D01*
X220980000Y-138176000D02*
X222885000Y-140081000D01*
X222885000Y-140081000D02*
X222885000Y-149098000D01*
X222885000Y-149098000D02*
X221615000Y-150368000D01*
X221615000Y-150368000D02*
X221615000Y-151765000D01*
X224155000Y-151765000D02*
X224155000Y-149352000D01*
X224155000Y-149352000D02*
X225425000Y-148082000D01*
X225425000Y-148082000D02*
X225425000Y-139700000D01*
X233045000Y-138811000D02*
X230759000Y-136525000D01*
X233045000Y-147193000D02*
X233045000Y-138811000D01*
X185420000Y-112238600D02*
X185420000Y-124460000D01*
X186055000Y-110490000D02*
X186055000Y-111603600D01*
X186055000Y-111603600D02*
X185420000Y-112238600D01*
X191135000Y-114935000D02*
X201295000Y-114935000D01*
X201295000Y-114935000D02*
X208915000Y-122555000D01*
X188595000Y-112395000D02*
X191135000Y-114935000D01*
X188595000Y-110490000D02*
X188595000Y-112395000D01*
X237236000Y-126249630D02*
X237236000Y-121539000D01*
X237236000Y-121539000D02*
X236982000Y-121285000D01*
X239395000Y-129540000D02*
X239395000Y-128408630D01*
X239395000Y-128408630D02*
X237236000Y-126249630D01*
X199390000Y-115570000D02*
X191770000Y-115570000D01*
X206375000Y-122555000D02*
X199390000Y-115570000D01*
X240030000Y-120650000D02*
X241935000Y-122555000D01*
X241935000Y-122555000D02*
X241935000Y-129540000D01*
X237490000Y-120650000D02*
X240030000Y-120650000D01*
X203835000Y-122555000D02*
X197485000Y-116205000D01*
X197485000Y-116205000D02*
X193675000Y-116205000D01*
X243838590Y-120015000D02*
X244475000Y-120651410D01*
X244475000Y-120651410D02*
X244475000Y-129540000D01*
X238125000Y-120015000D02*
X243838590Y-120015000D01*
X201295000Y-121285000D02*
X197231000Y-117221000D01*
X201295000Y-121412000D02*
X201295000Y-121285000D01*
X201295000Y-122555000D02*
X201295000Y-121412000D01*
X201295000Y-121671116D02*
X201295000Y-122555000D01*
X243840000Y-119380000D02*
X246507000Y-122047000D01*
X247015000Y-127000000D02*
X247015000Y-129540000D01*
X246507000Y-122047000D02*
X246507000Y-126492000D01*
X246507000Y-126492000D02*
X247015000Y-127000000D01*
X238760000Y-119380000D02*
X243840000Y-119380000D01*
X201295000Y-118745000D02*
X205105000Y-122555000D01*
X239395000Y-118745000D02*
X244094000Y-118745000D01*
X244094000Y-118745000D02*
X247523000Y-122174000D01*
X203327000Y-117983000D02*
X207645000Y-122301000D01*
X207645000Y-122301000D02*
X207645000Y-122306116D01*
X207645000Y-122306116D02*
X207645000Y-122555000D01*
X250317000Y-123825000D02*
X249682000Y-123190000D01*
X249682000Y-123190000D02*
X249555000Y-123190000D01*
X252476000Y-129540000D02*
X252476000Y-125984000D01*
X252476000Y-125984000D02*
X251841000Y-125349000D01*
X252476000Y-131826000D02*
X252476000Y-129540000D01*
X252095000Y-132207000D02*
X252476000Y-131826000D01*
X244475000Y-118110000D02*
X240030000Y-118110000D01*
X249555000Y-123190000D02*
X244475000Y-118110000D01*
X207010000Y-119380000D02*
X210185000Y-122555000D01*
X207010000Y-117475000D02*
X207010000Y-119380000D01*
X245745000Y-133096000D02*
X246380000Y-133731000D01*
X246380000Y-133731000D02*
X246380000Y-137922000D01*
X240665000Y-117475000D02*
X245110000Y-117475000D01*
X245110000Y-117475000D02*
X245745000Y-118110000D01*
X206375000Y-114300000D02*
X211455000Y-119380000D01*
X211455000Y-119380000D02*
X211455000Y-122555000D01*
X244475000Y-144780000D02*
X244475000Y-141605000D01*
X244475000Y-137160000D02*
X244475000Y-134874000D01*
X243205000Y-120904000D02*
X243205000Y-131191000D01*
X244475000Y-134874000D02*
X243205000Y-133604000D01*
D23*
X175387000Y-115824000D02*
X176587000Y-115824000D01*
X176587000Y-115824000D02*
X176714000Y-115697000D01*
X176714000Y-115697000D02*
X181610000Y-115697000D01*
X181610000Y-115697000D02*
X182626000Y-114681000D01*
X182626000Y-114681000D02*
X182626000Y-111379000D01*
X182626000Y-111379000D02*
X183388000Y-110617000D01*
X183388000Y-110617000D02*
X183388000Y-106934000D01*
D24*
X179070000Y-112395000D02*
X182245000Y-109220000D01*
X182245000Y-106553000D02*
X182245000Y-109220000D01*
X182626000Y-106172000D02*
X182245000Y-106553000D01*
X212090000Y-106172000D02*
X182626000Y-106172000D01*
X211455000Y-110490000D02*
X212725000Y-109220000D01*
X212725000Y-109220000D02*
X212725000Y-106807000D01*
X212725000Y-106807000D02*
X212090000Y-106172000D01*
X213995000Y-110490000D02*
X213995000Y-122555000D01*
X213995000Y-122555000D02*
X210564990Y-125985010D01*
X210564990Y-125985010D02*
X199769990Y-125985010D01*
X199769990Y-125985010D02*
X197485000Y-128270000D01*
X191370000Y-128270000D02*
X187960000Y-131680000D01*
X197485000Y-128270000D02*
X191370000Y-128270000D01*
X187960000Y-131680000D02*
X187960000Y-132080000D01*
X194691000Y-129032000D02*
X197993000Y-129032000D01*
X193040000Y-132080000D02*
X193040000Y-130630000D01*
X193040000Y-130630000D02*
X194638000Y-129032000D01*
X194638000Y-129032000D02*
X194691000Y-129032000D01*
X211257980Y-126435020D02*
X216535000Y-121158000D01*
X216535000Y-121158000D02*
X216535000Y-110490000D01*
X197993000Y-129032000D02*
X200589980Y-126435020D01*
X200589980Y-126435020D02*
X211257980Y-126435020D01*
X179070000Y-106045000D02*
X181229000Y-106045000D01*
X222885000Y-106807000D02*
X222885000Y-109220000D01*
X181229000Y-106045000D02*
X181991000Y-105283000D01*
X221361000Y-105283000D02*
X222885000Y-106807000D01*
X222885000Y-109220000D02*
X221615000Y-110490000D01*
X181991000Y-105283000D02*
X221361000Y-105283000D01*
X226695000Y-122164000D02*
X226695000Y-122809000D01*
X226695000Y-122164000D02*
X226695000Y-110490000D01*
X226949000Y-110744000D02*
X226695000Y-110490000D01*
X227965000Y-123063000D02*
X227965000Y-123825000D01*
X229235000Y-113538000D02*
X229235000Y-110490000D01*
X227965000Y-114808000D02*
X229235000Y-113538000D01*
X227965000Y-123063000D02*
X227965000Y-114808000D01*
X229235000Y-107950000D02*
X230505000Y-109220000D01*
X230505000Y-109220000D02*
X232791000Y-109220000D01*
X232791000Y-109220000D02*
X233045000Y-109474000D01*
X233045000Y-109474000D02*
X233045000Y-121920000D01*
X190500000Y-124460000D02*
X190500000Y-122682000D01*
X190500000Y-122682000D02*
X191262000Y-121920000D01*
X231775000Y-120015000D02*
X231775000Y-110490000D01*
X229870000Y-121920000D02*
X231775000Y-120015000D01*
X224155000Y-122555000D02*
X224155000Y-116205000D01*
X224155000Y-116205000D02*
X225425000Y-114935000D01*
X210820000Y-124460000D02*
X212725000Y-122555000D01*
X200215500Y-124460000D02*
X210820000Y-124460000D01*
X196630000Y-124460000D02*
X200215500Y-124460000D01*
X195580000Y-124460000D02*
X196630000Y-124460000D01*
X175260000Y-126365000D02*
X175260000Y-129794000D01*
X173355000Y-124460000D02*
X175895000Y-121920000D01*
X175895000Y-121920000D02*
X175895000Y-119380000D01*
X173355000Y-124460000D02*
X175260000Y-126365000D01*
X173990000Y-135890000D02*
X173990000Y-138430000D01*
X175260000Y-134620000D02*
X173990000Y-135890000D01*
X179070000Y-134620000D02*
X179070000Y-135128000D01*
X178181000Y-129286000D02*
X178181000Y-133731000D01*
X178181000Y-133731000D02*
X179070000Y-134620000D01*
X170815000Y-124460000D02*
X173228000Y-126873000D01*
X173228000Y-126873000D02*
X174244000Y-126873000D01*
X173355000Y-119380000D02*
X170815000Y-121920000D01*
X170815000Y-121920000D02*
X170815000Y-124460000D01*
X177800000Y-140843000D02*
X177800000Y-141224000D01*
X177800000Y-139446000D02*
X177800000Y-140843000D01*
X177800000Y-140843000D02*
X177800000Y-140899058D01*
X177800000Y-139151004D02*
X177800000Y-139446000D01*
X177800000Y-135890000D02*
X177800000Y-139151004D01*
X177165000Y-135255000D02*
X177800000Y-135890000D01*
X177165000Y-134620000D02*
X177165000Y-135255000D01*
X176403000Y-129413000D02*
X177165000Y-130175000D01*
X177165000Y-130175000D02*
X177165000Y-134620000D01*
X176403000Y-128524000D02*
X176403000Y-129413000D01*
X170815000Y-119380000D02*
X168275000Y-121920000D01*
X168275000Y-121920000D02*
X168275000Y-124460000D01*
X168275000Y-119380000D02*
X165735000Y-121920000D01*
X165735000Y-121920000D02*
X165735000Y-124460000D01*
X165735000Y-119380000D02*
X163195000Y-121920000D01*
X163195000Y-121920000D02*
X163195000Y-124460000D01*
X167640000Y-137287000D02*
X167640000Y-141605000D01*
X167005000Y-136652000D02*
X167640000Y-137287000D01*
X167005000Y-134493000D02*
X167005000Y-136652000D01*
X162179000Y-121527370D02*
X162179000Y-122936000D01*
X162179000Y-122936000D02*
X160655000Y-124460000D01*
X163195000Y-119380000D02*
X163195000Y-120511370D01*
X163195000Y-120511370D02*
X162179000Y-121527370D01*
X187706000Y-143510000D02*
X184912000Y-143510000D01*
X184912000Y-143510000D02*
X184521001Y-143900999D01*
X184521001Y-143900999D02*
X165310999Y-143900999D01*
X165310999Y-143900999D02*
X164920000Y-143510000D01*
X164920000Y-143510000D02*
X163068000Y-141658000D01*
X193929000Y-143510000D02*
X196850000Y-143510000D01*
X196850000Y-143510000D02*
X197485000Y-142875000D01*
X197485000Y-142875000D02*
X212090000Y-142875000D01*
X212090000Y-142875000D02*
X213995000Y-144780000D01*
X210820000Y-137160000D02*
X203708000Y-137160000D01*
X202311000Y-135890000D02*
X203581000Y-137160000D01*
X203581000Y-137160000D02*
X203708000Y-137160000D01*
X213868000Y-137160000D02*
X212090000Y-137160000D01*
X222123000Y-137160000D02*
X218440000Y-137160000D01*
X184150000Y-130429000D02*
X182880000Y-129159000D01*
X182880000Y-129159000D02*
X182880000Y-124460000D01*
X222123000Y-137160000D02*
X224155000Y-139192000D01*
X224155000Y-139192000D02*
X224155000Y-144780000D01*
X203835000Y-135255000D02*
X223520000Y-135255000D01*
X226695000Y-138430000D02*
X226695000Y-144780000D01*
X229235000Y-138049000D02*
X229235000Y-144780000D01*
X189738000Y-133985000D02*
X225171000Y-133985000D01*
X225171000Y-133985000D02*
X226314000Y-135128000D01*
X200406000Y-127762000D02*
X214376000Y-127762000D01*
X214376000Y-127762000D02*
X215265000Y-128651000D01*
X215265000Y-128651000D02*
X215265000Y-132080000D01*
X215265000Y-132080000D02*
X215783000Y-132598000D01*
X215783000Y-132598000D02*
X219974000Y-132598000D01*
X219974000Y-132598000D02*
X228737000Y-132598000D01*
X193040000Y-126492000D02*
X193675000Y-127127000D01*
X193675000Y-127127000D02*
X197485000Y-127127000D01*
X193040000Y-124860000D02*
X193040000Y-126492000D01*
X193040000Y-124460000D02*
X193040000Y-124860000D01*
X183515000Y-134620000D02*
X213360000Y-134620000D01*
X182880000Y-133985000D02*
X183515000Y-134620000D01*
X182880000Y-132480000D02*
X182880000Y-133985000D01*
X182880000Y-132080000D02*
X182880000Y-132480000D01*
X198501000Y-129667000D02*
X197612000Y-129667000D01*
X228219000Y-133223000D02*
X202057000Y-133223000D01*
X202057000Y-133223000D02*
X198501000Y-129667000D01*
X228382002Y-133223000D02*
X228219000Y-133223000D01*
X239014000Y-133477000D02*
X228636002Y-133477000D01*
X228636002Y-133477000D02*
X228382002Y-133223000D01*
X244094000Y-114935000D02*
X247396000Y-114935000D01*
X247396000Y-114935000D02*
X248158000Y-114173000D01*
D25*
G36*
X249523673Y-104568110D02*
X250969332Y-105534068D01*
X251935290Y-106979727D01*
X252290000Y-108762971D01*
X252290000Y-110814503D01*
X252146923Y-110671176D01*
X251619691Y-110452250D01*
X251048813Y-110451752D01*
X250521200Y-110669757D01*
X250117176Y-111073077D01*
X249898250Y-111600309D01*
X249897752Y-112171187D01*
X250115757Y-112698800D01*
X250519077Y-113102824D01*
X251046309Y-113321750D01*
X251617187Y-113322248D01*
X252144800Y-113104243D01*
X252290000Y-112959296D01*
X252290000Y-121014868D01*
X252070423Y-120815959D01*
X251682039Y-120655096D01*
X251460000Y-120777085D01*
X251460000Y-121920000D01*
X251480000Y-121920000D01*
X251480000Y-122174000D01*
X251460000Y-122174000D01*
X251460000Y-123316915D01*
X251682039Y-123438904D01*
X252070423Y-123278041D01*
X252290000Y-123079132D01*
X252290000Y-124523038D01*
X252027799Y-124414162D01*
X251655833Y-124413838D01*
X251312057Y-124555883D01*
X251048808Y-124818673D01*
X250906162Y-125162201D01*
X250905838Y-125534167D01*
X251047883Y-125877943D01*
X251310673Y-126141192D01*
X251654201Y-126283838D01*
X251701077Y-126283879D01*
X251716000Y-126298802D01*
X251716000Y-131351928D01*
X251566057Y-131413883D01*
X251302808Y-131676673D01*
X251160162Y-132020201D01*
X251159838Y-132392167D01*
X251301883Y-132735943D01*
X251564673Y-132999192D01*
X251908201Y-133141838D01*
X252280167Y-133142162D01*
X252290000Y-133138099D01*
X252290000Y-150289695D01*
X252095000Y-150250907D01*
X251526715Y-150363946D01*
X251044946Y-150685853D01*
X250825000Y-151015026D01*
X250605054Y-150685853D01*
X250123285Y-150363946D01*
X249555000Y-150250907D01*
X248986715Y-150363946D01*
X248504946Y-150685853D01*
X248285000Y-151015026D01*
X248065054Y-150685853D01*
X247583285Y-150363946D01*
X247015000Y-150250907D01*
X246446715Y-150363946D01*
X245964946Y-150685853D01*
X245745000Y-151015026D01*
X245525054Y-150685853D01*
X245043285Y-150363946D01*
X244475000Y-150250907D01*
X243906715Y-150363946D01*
X243424946Y-150685853D01*
X243205000Y-151015026D01*
X242985054Y-150685853D01*
X242503285Y-150363946D01*
X241935000Y-150250907D01*
X241366715Y-150363946D01*
X240884946Y-150685853D01*
X240665000Y-151015026D01*
X240445054Y-150685853D01*
X239963285Y-150363946D01*
X239395000Y-150250907D01*
X238826715Y-150363946D01*
X238344946Y-150685853D01*
X238125000Y-151015026D01*
X237905054Y-150685853D01*
X237423285Y-150363946D01*
X236855000Y-150250907D01*
X236286715Y-150363946D01*
X235804946Y-150685853D01*
X235585000Y-151015026D01*
X235365054Y-150685853D01*
X234883285Y-150363946D01*
X234315000Y-150250907D01*
X233746715Y-150363946D01*
X233264946Y-150685853D01*
X233045000Y-151015026D01*
X232825054Y-150685853D01*
X232343285Y-150363946D01*
X231775000Y-150250907D01*
X231206715Y-150363946D01*
X230724946Y-150685853D01*
X230505000Y-151015026D01*
X230285054Y-150685853D01*
X229803285Y-150363946D01*
X229235000Y-150250907D01*
X228666715Y-150363946D01*
X228184946Y-150685853D01*
X227965000Y-151015026D01*
X227745054Y-150685853D01*
X227263285Y-150363946D01*
X226695000Y-150250907D01*
X226126715Y-150363946D01*
X225644946Y-150685853D01*
X225425000Y-151015026D01*
X225205054Y-150685853D01*
X224915000Y-150492046D01*
X224915000Y-149666802D01*
X225962401Y-148619401D01*
X226127148Y-148372840D01*
X226185000Y-148082000D01*
X226185000Y-146549505D01*
X226695000Y-146650950D01*
X227244151Y-146541717D01*
X227709698Y-146230648D01*
X227965000Y-145848562D01*
X228220302Y-146230648D01*
X228685849Y-146541717D01*
X229235000Y-146650950D01*
X229784151Y-146541717D01*
X230249698Y-146230648D01*
X230505000Y-145848562D01*
X230760302Y-146230648D01*
X231225849Y-146541717D01*
X231775000Y-146650950D01*
X232285000Y-146549505D01*
X232285000Y-146630537D01*
X232252808Y-146662673D01*
X232110162Y-147006201D01*
X232109838Y-147378167D01*
X232251883Y-147721943D01*
X232514673Y-147985192D01*
X232858201Y-148127838D01*
X233230167Y-148128162D01*
X233573943Y-147986117D01*
X233837192Y-147723327D01*
X233979838Y-147379799D01*
X233980162Y-147007833D01*
X233838117Y-146664057D01*
X233805000Y-146630882D01*
X233805000Y-146549505D01*
X234315000Y-146650950D01*
X234864151Y-146541717D01*
X235329698Y-146230648D01*
X235585000Y-145848562D01*
X235840302Y-146230648D01*
X236305849Y-146541717D01*
X236855000Y-146650950D01*
X237404151Y-146541717D01*
X237869698Y-146230648D01*
X238125000Y-145848562D01*
X238380302Y-146230648D01*
X238845849Y-146541717D01*
X239395000Y-146650950D01*
X239944151Y-146541717D01*
X240409698Y-146230648D01*
X240665000Y-145848562D01*
X240920302Y-146230648D01*
X241385849Y-146541717D01*
X241935000Y-146650950D01*
X242484151Y-146541717D01*
X242949698Y-146230648D01*
X243205000Y-145848562D01*
X243460302Y-146230648D01*
X243925849Y-146541717D01*
X244475000Y-146650950D01*
X245024151Y-146541717D01*
X245489698Y-146230648D01*
X245745000Y-145848562D01*
X246000302Y-146230648D01*
X246465849Y-146541717D01*
X247015000Y-146650950D01*
X247564151Y-146541717D01*
X248029698Y-146230648D01*
X248285000Y-145848562D01*
X248540302Y-146230648D01*
X249005849Y-146541717D01*
X249555000Y-146650950D01*
X250104151Y-146541717D01*
X250569698Y-146230648D01*
X250880767Y-145765101D01*
X250990000Y-145215950D01*
X250990000Y-144344050D01*
X250880767Y-143794899D01*
X250569698Y-143329352D01*
X250104151Y-143018283D01*
X249555000Y-142909050D01*
X249005849Y-143018283D01*
X248540302Y-143329352D01*
X248285000Y-143711438D01*
X248029698Y-143329352D01*
X247564151Y-143018283D01*
X247015000Y-142909050D01*
X246465849Y-143018283D01*
X246000302Y-143329352D01*
X245745000Y-143711438D01*
X245489698Y-143329352D01*
X245235000Y-143159168D01*
X245235000Y-142167463D01*
X245267192Y-142135327D01*
X245409838Y-141791799D01*
X245410162Y-141419833D01*
X245268117Y-141076057D01*
X245005327Y-140812808D01*
X244661799Y-140670162D01*
X244289833Y-140669838D01*
X243946057Y-140811883D01*
X243682808Y-141074673D01*
X243540162Y-141418201D01*
X243539838Y-141790167D01*
X243681883Y-142133943D01*
X243715000Y-142167118D01*
X243715000Y-143159168D01*
X243460302Y-143329352D01*
X243205000Y-143711438D01*
X242949698Y-143329352D01*
X242484151Y-143018283D01*
X241935000Y-142909050D01*
X241385849Y-143018283D01*
X240920302Y-143329352D01*
X240665000Y-143711438D01*
X240409698Y-143329352D01*
X239944151Y-143018283D01*
X239395000Y-142909050D01*
X238845849Y-143018283D01*
X238380302Y-143329352D01*
X238125000Y-143711438D01*
X237869698Y-143329352D01*
X237404151Y-143018283D01*
X236855000Y-142909050D01*
X236305849Y-143018283D01*
X235840302Y-143329352D01*
X235585000Y-143711438D01*
X235329698Y-143329352D01*
X234864151Y-143018283D01*
X234315000Y-142909050D01*
X233805000Y-143010495D01*
X233805000Y-138811000D01*
X233773890Y-138654599D01*
X233747148Y-138520160D01*
X233582401Y-138273599D01*
X231694122Y-136385320D01*
X231694162Y-136339833D01*
X231552117Y-135996057D01*
X231289327Y-135732808D01*
X230945799Y-135590162D01*
X230573833Y-135589838D01*
X230230057Y-135731883D01*
X229966808Y-135994673D01*
X229824162Y-136338201D01*
X229823838Y-136710167D01*
X229965883Y-137053943D01*
X230228673Y-137317192D01*
X230572201Y-137459838D01*
X230619077Y-137459879D01*
X232285000Y-139125802D01*
X232285000Y-143010495D01*
X231775000Y-142909050D01*
X231225849Y-143018283D01*
X230760302Y-143329352D01*
X230505000Y-143711438D01*
X230249698Y-143329352D01*
X229995000Y-143159168D01*
X229995000Y-138611463D01*
X230027192Y-138579327D01*
X230169838Y-138235799D01*
X230170162Y-137863833D01*
X230028117Y-137520057D01*
X229765327Y-137256808D01*
X229421799Y-137114162D01*
X229049833Y-137113838D01*
X228706057Y-137255883D01*
X228442808Y-137518673D01*
X228300162Y-137862201D01*
X228299838Y-138234167D01*
X228441883Y-138577943D01*
X228475000Y-138611118D01*
X228475000Y-143159168D01*
X228220302Y-143329352D01*
X227965000Y-143711438D01*
X227709698Y-143329352D01*
X227455000Y-143159168D01*
X227455000Y-138992463D01*
X227487192Y-138960327D01*
X227629838Y-138616799D01*
X227630162Y-138244833D01*
X227488117Y-137901057D01*
X227225327Y-137637808D01*
X226881799Y-137495162D01*
X226509833Y-137494838D01*
X226166057Y-137636883D01*
X225902808Y-137899673D01*
X225760162Y-138243201D01*
X225759838Y-138615167D01*
X225865310Y-138870430D01*
X225611799Y-138765162D01*
X225239833Y-138764838D01*
X224896057Y-138906883D01*
X224864544Y-138938341D01*
X224857148Y-138901161D01*
X224692401Y-138654599D01*
X222660401Y-136622599D01*
X222413839Y-136457852D01*
X222123000Y-136400000D01*
X219002463Y-136400000D01*
X218970327Y-136367808D01*
X218626799Y-136225162D01*
X218254833Y-136224838D01*
X217911057Y-136366883D01*
X217647808Y-136629673D01*
X217505162Y-136973201D01*
X217504838Y-137345167D01*
X217646883Y-137688943D01*
X217909673Y-137952192D01*
X218253201Y-138094838D01*
X218625167Y-138095162D01*
X218968943Y-137953117D01*
X219002118Y-137920000D01*
X220073897Y-137920000D01*
X220045162Y-137989201D01*
X220044838Y-138361167D01*
X220186883Y-138704943D01*
X220449673Y-138968192D01*
X220793201Y-139110838D01*
X220840077Y-139110879D01*
X222125000Y-140395802D01*
X222125000Y-143010495D01*
X221615000Y-142909050D01*
X221065849Y-143018283D01*
X220600302Y-143329352D01*
X220345000Y-143711438D01*
X220089698Y-143329352D01*
X219624151Y-143018283D01*
X219075000Y-142909050D01*
X218525849Y-143018283D01*
X218060302Y-143329352D01*
X217805000Y-143711438D01*
X217549698Y-143329352D01*
X217084151Y-143018283D01*
X216535000Y-142909050D01*
X215985849Y-143018283D01*
X215520302Y-143329352D01*
X215265000Y-143711438D01*
X215009698Y-143329352D01*
X214544151Y-143018283D01*
X213995000Y-142909050D01*
X213445849Y-143018283D01*
X213363266Y-143073464D01*
X212627401Y-142337599D01*
X212380839Y-142172852D01*
X212090000Y-142115000D01*
X203500110Y-142115000D01*
X203500162Y-142054833D01*
X203358117Y-141711057D01*
X203325000Y-141677882D01*
X203325000Y-141605000D01*
X203267148Y-141314161D01*
X203102401Y-141067599D01*
X201595122Y-139560320D01*
X201595162Y-139514833D01*
X201453117Y-139171057D01*
X201190327Y-138907808D01*
X200846799Y-138765162D01*
X200474833Y-138764838D01*
X200131057Y-138906883D01*
X199867808Y-139169673D01*
X199725162Y-139513201D01*
X199724838Y-139885167D01*
X199866883Y-140228943D01*
X200129673Y-140492192D01*
X200473201Y-140634838D01*
X200520077Y-140634879D01*
X201720600Y-141835402D01*
X201630162Y-142053201D01*
X201630108Y-142115000D01*
X197485000Y-142115000D01*
X197194161Y-142172852D01*
X196947599Y-142337599D01*
X196535198Y-142750000D01*
X194491463Y-142750000D01*
X194459327Y-142717808D01*
X194115799Y-142575162D01*
X193743833Y-142574838D01*
X193400057Y-142716883D01*
X193136808Y-142979673D01*
X192994162Y-143323201D01*
X192993838Y-143695167D01*
X193135883Y-144038943D01*
X193398673Y-144302192D01*
X193742201Y-144444838D01*
X194114167Y-144445162D01*
X194457943Y-144303117D01*
X194491118Y-144270000D01*
X196850000Y-144270000D01*
X197140839Y-144212148D01*
X197387401Y-144047401D01*
X197799802Y-143635000D01*
X199847560Y-143635000D01*
X199847560Y-145925000D01*
X194237463Y-145925000D01*
X194205327Y-145892808D01*
X193861799Y-145750162D01*
X193489833Y-145749838D01*
X193146057Y-145891883D01*
X192882808Y-146154673D01*
X192758378Y-146454332D01*
X192591799Y-146385162D01*
X192219833Y-146384838D01*
X191876057Y-146526883D01*
X191612808Y-146789673D01*
X191470162Y-147133201D01*
X191470108Y-147195000D01*
X191443463Y-147195000D01*
X191411327Y-147162808D01*
X191067799Y-147020162D01*
X190695833Y-147019838D01*
X190352057Y-147161883D01*
X190088808Y-147424673D01*
X189946162Y-147768201D01*
X189945838Y-148140167D01*
X190087883Y-148483943D01*
X190350673Y-148747192D01*
X190694201Y-148889838D01*
X191066167Y-148890162D01*
X191409943Y-148748117D01*
X191443118Y-148715000D01*
X199090001Y-148715000D01*
X199089838Y-148902167D01*
X199231883Y-149245943D01*
X199494673Y-149509192D01*
X199838201Y-149651838D01*
X199885077Y-149651879D01*
X200535000Y-150301802D01*
X200535000Y-150492046D01*
X200244946Y-150685853D01*
X200017298Y-151026553D01*
X199950183Y-150883642D01*
X199521924Y-150493355D01*
X199111890Y-150323524D01*
X198882000Y-150444845D01*
X198882000Y-151638000D01*
X198902000Y-151638000D01*
X198902000Y-151892000D01*
X198882000Y-151892000D01*
X198882000Y-151912000D01*
X198628000Y-151912000D01*
X198628000Y-151892000D01*
X198608000Y-151892000D01*
X198608000Y-151638000D01*
X198628000Y-151638000D01*
X198628000Y-150444845D01*
X198398110Y-150323524D01*
X197988076Y-150493355D01*
X197559817Y-150883642D01*
X197492702Y-151026553D01*
X197265054Y-150685853D01*
X196783285Y-150363946D01*
X196215000Y-150250907D01*
X195646715Y-150363946D01*
X195164946Y-150685853D01*
X194945000Y-151015026D01*
X194725054Y-150685853D01*
X194243285Y-150363946D01*
X193675000Y-150250907D01*
X193106715Y-150363946D01*
X192624946Y-150685853D01*
X192405000Y-151015026D01*
X192185054Y-150685853D01*
X191703285Y-150363946D01*
X191135000Y-150250907D01*
X190566715Y-150363946D01*
X190084946Y-150685853D01*
X189865000Y-151015026D01*
X189645054Y-150685853D01*
X189355000Y-150492046D01*
X189355000Y-149860000D01*
X189297148Y-149569161D01*
X189132401Y-149322599D01*
X187989401Y-148179599D01*
X187742839Y-148014852D01*
X187599868Y-147986413D01*
X187736192Y-147850327D01*
X187878838Y-147506799D01*
X187879162Y-147134833D01*
X187737117Y-146791057D01*
X187474327Y-146527808D01*
X187130799Y-146385162D01*
X186990151Y-146385039D01*
X186990162Y-146372833D01*
X186848117Y-146029057D01*
X186815000Y-145995882D01*
X186815000Y-145088463D01*
X186847192Y-145056327D01*
X186989838Y-144712799D01*
X186990162Y-144340833D01*
X186960894Y-144270000D01*
X187143537Y-144270000D01*
X187175673Y-144302192D01*
X187519201Y-144444838D01*
X187891167Y-144445162D01*
X188234943Y-144303117D01*
X188498192Y-144040327D01*
X188640838Y-143696799D01*
X188641162Y-143324833D01*
X188499117Y-142981057D01*
X188236327Y-142717808D01*
X187892799Y-142575162D01*
X187690305Y-142574986D01*
X187751838Y-142426799D01*
X187752162Y-142054833D01*
X187610117Y-141711057D01*
X187347327Y-141447808D01*
X187003799Y-141305162D01*
X186631833Y-141304838D01*
X186288057Y-141446883D01*
X186024808Y-141709673D01*
X185882162Y-142053201D01*
X185882121Y-142100077D01*
X185740198Y-142242000D01*
X176623072Y-142242000D01*
X176561117Y-142092057D01*
X176298327Y-141828808D01*
X175954799Y-141686162D01*
X175582833Y-141685838D01*
X175239057Y-141827883D01*
X174975808Y-142090673D01*
X174833162Y-142434201D01*
X174832838Y-142806167D01*
X174971187Y-143140999D01*
X165625801Y-143140999D01*
X164003122Y-141518320D01*
X164003162Y-141472833D01*
X163861117Y-141129057D01*
X163598327Y-140865808D01*
X163254799Y-140723162D01*
X162882833Y-140722838D01*
X162539057Y-140864883D01*
X162275808Y-141127673D01*
X162133162Y-141471201D01*
X162132838Y-141843167D01*
X162274883Y-142186943D01*
X162537673Y-142450192D01*
X162881201Y-142592838D01*
X162928077Y-142592879D01*
X164773598Y-144438400D01*
X165020160Y-144603147D01*
X165310999Y-144660999D01*
X165314111Y-144660999D01*
X165100000Y-144981438D01*
X164844698Y-144599352D01*
X164379151Y-144288283D01*
X163830000Y-144179050D01*
X163280849Y-144288283D01*
X162815302Y-144599352D01*
X162560000Y-144981438D01*
X162304698Y-144599352D01*
X161839151Y-144288283D01*
X161290000Y-144179050D01*
X160740849Y-144288283D01*
X160275302Y-144599352D01*
X160177749Y-144745350D01*
X160153162Y-144614683D01*
X160014090Y-144398559D01*
X159801890Y-144253569D01*
X159550000Y-144202560D01*
X157950000Y-144202560D01*
X157714683Y-144246838D01*
X157498559Y-144385910D01*
X157353569Y-144598110D01*
X157302560Y-144850000D01*
X157302560Y-147250000D01*
X157346838Y-147485317D01*
X157485910Y-147701441D01*
X157698110Y-147846431D01*
X157950000Y-147897440D01*
X158119080Y-147897440D01*
X158212599Y-148037401D01*
X158667599Y-148492401D01*
X158914160Y-148657148D01*
X159205000Y-148715000D01*
X182072001Y-148715000D01*
X182071838Y-148902167D01*
X182213883Y-149245943D01*
X182476673Y-149509192D01*
X182820201Y-149651838D01*
X183192167Y-149652162D01*
X183535943Y-149510117D01*
X183569118Y-149477000D01*
X185119890Y-149477000D01*
X185119838Y-149537167D01*
X185261883Y-149880943D01*
X185295000Y-149914118D01*
X185295000Y-150492046D01*
X185004946Y-150685853D01*
X184785000Y-151015026D01*
X184565054Y-150685853D01*
X184083285Y-150363946D01*
X183515000Y-150250907D01*
X182946715Y-150363946D01*
X182464946Y-150685853D01*
X182245000Y-151015026D01*
X182025054Y-150685853D01*
X181543285Y-150363946D01*
X180975000Y-150250907D01*
X180406715Y-150363946D01*
X179924946Y-150685853D01*
X179705000Y-151015026D01*
X179485054Y-150685853D01*
X179003285Y-150363946D01*
X178435000Y-150250907D01*
X177866715Y-150363946D01*
X177384946Y-150685853D01*
X177165000Y-151015026D01*
X176945054Y-150685853D01*
X176463285Y-150363946D01*
X175895000Y-150250907D01*
X175326715Y-150363946D01*
X174844946Y-150685853D01*
X174625000Y-151015026D01*
X174405054Y-150685853D01*
X173923285Y-150363946D01*
X173355000Y-150250907D01*
X172786715Y-150363946D01*
X172304946Y-150685853D01*
X172085000Y-151015026D01*
X171865054Y-150685853D01*
X171383285Y-150363946D01*
X170815000Y-150250907D01*
X170246715Y-150363946D01*
X169764946Y-150685853D01*
X169545000Y-151015026D01*
X169325054Y-150685853D01*
X168843285Y-150363946D01*
X168275000Y-150250907D01*
X167706715Y-150363946D01*
X167224946Y-150685853D01*
X167005000Y-151015026D01*
X166785054Y-150685853D01*
X166303285Y-150363946D01*
X165735000Y-150250907D01*
X165166715Y-150363946D01*
X164684946Y-150685853D01*
X164465000Y-151015026D01*
X164245054Y-150685853D01*
X163763285Y-150363946D01*
X163195000Y-150250907D01*
X162626715Y-150363946D01*
X162144946Y-150685853D01*
X161925000Y-151015026D01*
X161705054Y-150685853D01*
X161223285Y-150363946D01*
X160655000Y-150250907D01*
X160086715Y-150363946D01*
X159604946Y-150685853D01*
X159385000Y-151015026D01*
X159165054Y-150685853D01*
X158683285Y-150363946D01*
X158115000Y-150250907D01*
X157546715Y-150363946D01*
X157064946Y-150685853D01*
X157037150Y-150727452D01*
X157028162Y-150679683D01*
X156889090Y-150463559D01*
X156676890Y-150318569D01*
X156425000Y-150267560D01*
X154725000Y-150267560D01*
X154608600Y-150289462D01*
X154608600Y-140707745D01*
X154873861Y-140707745D01*
X154947995Y-140953864D01*
X155485223Y-141146965D01*
X156055454Y-141119778D01*
X156456005Y-140953864D01*
X156530139Y-140707745D01*
X155702000Y-139879605D01*
X154873861Y-140707745D01*
X154608600Y-140707745D01*
X154608600Y-140502339D01*
X154694255Y-140528139D01*
X155522395Y-139700000D01*
X155881605Y-139700000D01*
X156709745Y-140528139D01*
X156955864Y-140454005D01*
X157148965Y-139916777D01*
X157121778Y-139346546D01*
X156955864Y-138945995D01*
X156709745Y-138871861D01*
X155881605Y-139700000D01*
X155522395Y-139700000D01*
X154694255Y-138871861D01*
X154608600Y-138897661D01*
X154608600Y-138692255D01*
X154873861Y-138692255D01*
X155702000Y-139520395D01*
X156530139Y-138692255D01*
X156489399Y-138557000D01*
X157315000Y-138557000D01*
X157315000Y-138957000D01*
X157472834Y-139496483D01*
X157825104Y-139934500D01*
X158318181Y-140204367D01*
X158400961Y-140221904D01*
X158623000Y-140099915D01*
X158623000Y-138557000D01*
X157315000Y-138557000D01*
X156489399Y-138557000D01*
X156456005Y-138446136D01*
X155918777Y-138253035D01*
X155348546Y-138280222D01*
X154947995Y-138446136D01*
X154873861Y-138692255D01*
X154608600Y-138692255D01*
X154608600Y-137903000D01*
X157315000Y-137903000D01*
X157315000Y-138303000D01*
X158623000Y-138303000D01*
X158623000Y-136760085D01*
X158877000Y-136760085D01*
X158877000Y-138303000D01*
X158897000Y-138303000D01*
X158897000Y-138557000D01*
X158877000Y-138557000D01*
X158877000Y-140099915D01*
X159099039Y-140221904D01*
X159181819Y-140204367D01*
X159674896Y-139934500D01*
X160022493Y-139502293D01*
X160275302Y-139880648D01*
X160740849Y-140191717D01*
X161290000Y-140300950D01*
X161839151Y-140191717D01*
X162304698Y-139880648D01*
X162557507Y-139502293D01*
X162905104Y-139934500D01*
X163398181Y-140204367D01*
X163480961Y-140221904D01*
X163703000Y-140099915D01*
X163703000Y-138557000D01*
X163957000Y-138557000D01*
X163957000Y-140099915D01*
X164179039Y-140221904D01*
X164261819Y-140204367D01*
X164754896Y-139934500D01*
X165100000Y-139505393D01*
X165445104Y-139934500D01*
X165938181Y-140204367D01*
X166020961Y-140221904D01*
X166243000Y-140099915D01*
X166243000Y-138557000D01*
X163957000Y-138557000D01*
X163703000Y-138557000D01*
X163683000Y-138557000D01*
X163683000Y-138303000D01*
X163703000Y-138303000D01*
X163703000Y-136760085D01*
X163957000Y-136760085D01*
X163957000Y-138303000D01*
X166243000Y-138303000D01*
X166243000Y-138283000D01*
X166497000Y-138283000D01*
X166497000Y-138303000D01*
X166517000Y-138303000D01*
X166517000Y-138557000D01*
X166497000Y-138557000D01*
X166497000Y-140099915D01*
X166719039Y-140221904D01*
X166801819Y-140204367D01*
X166880000Y-140161578D01*
X166880000Y-141042537D01*
X166847808Y-141074673D01*
X166705162Y-141418201D01*
X166704838Y-141790167D01*
X166846883Y-142133943D01*
X167109673Y-142397192D01*
X167453201Y-142539838D01*
X167825167Y-142540162D01*
X168168943Y-142398117D01*
X168432192Y-142135327D01*
X168574838Y-141791799D01*
X168575162Y-141419833D01*
X168433117Y-141076057D01*
X168400000Y-141042882D01*
X168400000Y-140161578D01*
X168478181Y-140204367D01*
X168560961Y-140221904D01*
X168783000Y-140099915D01*
X168783000Y-138557000D01*
X168763000Y-138557000D01*
X168763000Y-138303000D01*
X168783000Y-138303000D01*
X168783000Y-136760085D01*
X168560961Y-136638096D01*
X168478181Y-136655633D01*
X168211969Y-136801334D01*
X168177401Y-136749599D01*
X167765000Y-136337198D01*
X167765000Y-135055463D01*
X167797192Y-135023327D01*
X167939838Y-134679799D01*
X167940162Y-134307833D01*
X167798117Y-133964057D01*
X167535327Y-133700808D01*
X167191799Y-133558162D01*
X166819833Y-133557838D01*
X166476057Y-133699883D01*
X166212808Y-133962673D01*
X166070162Y-134306201D01*
X166069838Y-134678167D01*
X166211883Y-135021943D01*
X166245000Y-135055118D01*
X166245000Y-136595000D01*
X166242998Y-136595000D01*
X166242998Y-136760084D01*
X166020961Y-136638096D01*
X165938181Y-136655633D01*
X165445104Y-136925500D01*
X165100000Y-137354607D01*
X164754896Y-136925500D01*
X164261819Y-136655633D01*
X164179039Y-136638096D01*
X163957000Y-136760085D01*
X163703000Y-136760085D01*
X163480961Y-136638096D01*
X163398181Y-136655633D01*
X162905104Y-136925500D01*
X162557507Y-137357707D01*
X162304698Y-136979352D01*
X161839151Y-136668283D01*
X161290000Y-136559050D01*
X160740849Y-136668283D01*
X160275302Y-136979352D01*
X160022493Y-137357707D01*
X159674896Y-136925500D01*
X159181819Y-136655633D01*
X159099039Y-136638096D01*
X158877000Y-136760085D01*
X158623000Y-136760085D01*
X158400961Y-136638096D01*
X158318181Y-136655633D01*
X157825104Y-136925500D01*
X157472834Y-137363517D01*
X157315000Y-137903000D01*
X154608600Y-137903000D01*
X154608600Y-135635859D01*
X154888077Y-135915824D01*
X155415309Y-136134750D01*
X155986187Y-136135248D01*
X156513800Y-135917243D01*
X156917824Y-135513923D01*
X157136750Y-134986691D01*
X157137248Y-134415813D01*
X156919243Y-133888200D01*
X156515923Y-133484176D01*
X155988691Y-133265250D01*
X155417813Y-133264752D01*
X154890200Y-133482757D01*
X154608600Y-133763866D01*
X154608600Y-132365750D01*
X159220000Y-132365750D01*
X159220000Y-133006309D01*
X159316673Y-133239698D01*
X159495301Y-133418327D01*
X159728690Y-133515000D01*
X160369250Y-133515000D01*
X160528000Y-133356250D01*
X160528000Y-132207000D01*
X160782000Y-132207000D01*
X160782000Y-133356250D01*
X160940750Y-133515000D01*
X161581310Y-133515000D01*
X161814699Y-133418327D01*
X161993327Y-133239698D01*
X162090000Y-133006309D01*
X162090000Y-132978062D01*
X162457577Y-133311041D01*
X162845961Y-133471904D01*
X163068000Y-133349915D01*
X163068000Y-132207000D01*
X163322000Y-132207000D01*
X163322000Y-133349915D01*
X163544039Y-133471904D01*
X163932423Y-133311041D01*
X164347389Y-132935134D01*
X164465000Y-132686633D01*
X164582611Y-132935134D01*
X164997577Y-133311041D01*
X165385961Y-133471904D01*
X165608000Y-133349915D01*
X165608000Y-132207000D01*
X165862000Y-132207000D01*
X165862000Y-133349915D01*
X166084039Y-133471904D01*
X166472423Y-133311041D01*
X166887389Y-132935134D01*
X167005000Y-132686633D01*
X167122611Y-132935134D01*
X167537577Y-133311041D01*
X167925961Y-133471904D01*
X168148000Y-133349915D01*
X168148000Y-132207000D01*
X168402000Y-132207000D01*
X168402000Y-133349915D01*
X168624039Y-133471904D01*
X169012423Y-133311041D01*
X169427389Y-132935134D01*
X169545000Y-132686633D01*
X169662611Y-132935134D01*
X170077577Y-133311041D01*
X170465961Y-133471904D01*
X170688000Y-133349915D01*
X170688000Y-132207000D01*
X170942000Y-132207000D01*
X170942000Y-133349915D01*
X171164039Y-133471904D01*
X171552423Y-133311041D01*
X171967389Y-132935134D01*
X172085000Y-132686633D01*
X172202611Y-132935134D01*
X172617577Y-133311041D01*
X173005961Y-133471904D01*
X173228000Y-133349915D01*
X173228000Y-132207000D01*
X173482000Y-132207000D01*
X173482000Y-133349915D01*
X173704039Y-133471904D01*
X174092423Y-133311041D01*
X174507389Y-132935134D01*
X174746914Y-132429041D01*
X174625629Y-132207000D01*
X173482000Y-132207000D01*
X173228000Y-132207000D01*
X170942000Y-132207000D01*
X170688000Y-132207000D01*
X168402000Y-132207000D01*
X168148000Y-132207000D01*
X165862000Y-132207000D01*
X165608000Y-132207000D01*
X163322000Y-132207000D01*
X163068000Y-132207000D01*
X160782000Y-132207000D01*
X160528000Y-132207000D01*
X159378750Y-132207000D01*
X159220000Y-132365750D01*
X154608600Y-132365750D01*
X154608600Y-131153691D01*
X159220000Y-131153691D01*
X159220000Y-131794250D01*
X159378750Y-131953000D01*
X160528000Y-131953000D01*
X160528000Y-130803750D01*
X160782000Y-130803750D01*
X160782000Y-131953000D01*
X163068000Y-131953000D01*
X163068000Y-130810085D01*
X163322000Y-130810085D01*
X163322000Y-131953000D01*
X165608000Y-131953000D01*
X165608000Y-130810085D01*
X165862000Y-130810085D01*
X165862000Y-131953000D01*
X168148000Y-131953000D01*
X168148000Y-130810085D01*
X168402000Y-130810085D01*
X168402000Y-131953000D01*
X170688000Y-131953000D01*
X170688000Y-130810085D01*
X170942000Y-130810085D01*
X170942000Y-131953000D01*
X173228000Y-131953000D01*
X173228000Y-130810085D01*
X173482000Y-130810085D01*
X173482000Y-131953000D01*
X174625629Y-131953000D01*
X174746914Y-131730959D01*
X174507389Y-131224866D01*
X174092423Y-130848959D01*
X173704039Y-130688096D01*
X173482000Y-130810085D01*
X173228000Y-130810085D01*
X173005961Y-130688096D01*
X172617577Y-130848959D01*
X172202611Y-131224866D01*
X172085000Y-131473367D01*
X171967389Y-131224866D01*
X171552423Y-130848959D01*
X171164039Y-130688096D01*
X170942000Y-130810085D01*
X170688000Y-130810085D01*
X170465961Y-130688096D01*
X170077577Y-130848959D01*
X169662611Y-131224866D01*
X169545000Y-131473367D01*
X169427389Y-131224866D01*
X169012423Y-130848959D01*
X168624039Y-130688096D01*
X168402000Y-130810085D01*
X168148000Y-130810085D01*
X167925961Y-130688096D01*
X167537577Y-130848959D01*
X167122611Y-131224866D01*
X167005000Y-131473367D01*
X166887389Y-131224866D01*
X166472423Y-130848959D01*
X166084039Y-130688096D01*
X165862000Y-130810085D01*
X165608000Y-130810085D01*
X165385961Y-130688096D01*
X164997577Y-130848959D01*
X164582611Y-131224866D01*
X164465000Y-131473367D01*
X164347389Y-131224866D01*
X163932423Y-130848959D01*
X163544039Y-130688096D01*
X163322000Y-130810085D01*
X163068000Y-130810085D01*
X162845961Y-130688096D01*
X162457577Y-130848959D01*
X162090000Y-131181938D01*
X162090000Y-131153691D01*
X161993327Y-130920302D01*
X161814699Y-130741673D01*
X161581310Y-130645000D01*
X160940750Y-130645000D01*
X160782000Y-130803750D01*
X160528000Y-130803750D01*
X160369250Y-130645000D01*
X159728690Y-130645000D01*
X159495301Y-130741673D01*
X159316673Y-130920302D01*
X159220000Y-131153691D01*
X154608600Y-131153691D01*
X154608600Y-124431887D01*
X159220000Y-124431887D01*
X159220000Y-124488113D01*
X159329233Y-125037264D01*
X159640302Y-125502811D01*
X160105849Y-125813880D01*
X160655000Y-125923113D01*
X161204151Y-125813880D01*
X161669698Y-125502811D01*
X161925000Y-125120725D01*
X162180302Y-125502811D01*
X162645849Y-125813880D01*
X163195000Y-125923113D01*
X163744151Y-125813880D01*
X164209698Y-125502811D01*
X164465000Y-125120725D01*
X164720302Y-125502811D01*
X165185849Y-125813880D01*
X165735000Y-125923113D01*
X166284151Y-125813880D01*
X166749698Y-125502811D01*
X167005000Y-125120725D01*
X167260302Y-125502811D01*
X167725849Y-125813880D01*
X168275000Y-125923113D01*
X168824151Y-125813880D01*
X169289698Y-125502811D01*
X169545000Y-125120725D01*
X169800302Y-125502811D01*
X170265849Y-125813880D01*
X170815000Y-125923113D01*
X171138886Y-125858688D01*
X172690599Y-127410401D01*
X172937160Y-127575148D01*
X173228000Y-127633000D01*
X173681537Y-127633000D01*
X173713673Y-127665192D01*
X174057201Y-127807838D01*
X174429167Y-127808162D01*
X174500000Y-127778894D01*
X174500000Y-129231537D01*
X174467808Y-129263673D01*
X174325162Y-129607201D01*
X174324838Y-129979167D01*
X174466883Y-130322943D01*
X174729673Y-130586192D01*
X175073201Y-130728838D01*
X175445167Y-130729162D01*
X175788943Y-130587117D01*
X176052192Y-130324327D01*
X176107156Y-130191958D01*
X176405000Y-130489802D01*
X176405000Y-135255000D01*
X176462852Y-135545839D01*
X176627599Y-135792401D01*
X177040000Y-136204802D01*
X177040000Y-136660495D01*
X176530000Y-136559050D01*
X175980849Y-136668283D01*
X175515302Y-136979352D01*
X175260000Y-137361438D01*
X175004698Y-136979352D01*
X174750000Y-136809168D01*
X174750000Y-136204802D01*
X175399680Y-135555122D01*
X175445167Y-135555162D01*
X175788943Y-135413117D01*
X176052192Y-135150327D01*
X176194838Y-134806799D01*
X176195162Y-134434833D01*
X176053117Y-134091057D01*
X175790327Y-133827808D01*
X175446799Y-133685162D01*
X175074833Y-133684838D01*
X174731057Y-133826883D01*
X174467808Y-134089673D01*
X174325162Y-134433201D01*
X174325121Y-134480077D01*
X173452599Y-135352599D01*
X173287852Y-135599161D01*
X173230000Y-135890000D01*
X173230000Y-136809168D01*
X172975302Y-136979352D01*
X172720000Y-137361438D01*
X172464698Y-136979352D01*
X171999151Y-136668283D01*
X171450000Y-136559050D01*
X170900849Y-136668283D01*
X170435302Y-136979352D01*
X170182493Y-137357707D01*
X169834896Y-136925500D01*
X169341819Y-136655633D01*
X169259039Y-136638096D01*
X169037000Y-136760085D01*
X169037000Y-138303000D01*
X169057000Y-138303000D01*
X169057000Y-138557000D01*
X169037000Y-138557000D01*
X169037000Y-140099915D01*
X169259039Y-140221904D01*
X169341819Y-140204367D01*
X169834896Y-139934500D01*
X170182493Y-139502293D01*
X170435302Y-139880648D01*
X170712214Y-140065675D01*
X170747852Y-140244839D01*
X170912599Y-140491401D01*
X172419878Y-141998680D01*
X172419838Y-142044167D01*
X172561883Y-142387943D01*
X172824673Y-142651192D01*
X173168201Y-142793838D01*
X173540167Y-142794162D01*
X173883943Y-142652117D01*
X174147192Y-142389327D01*
X174289838Y-142045799D01*
X174290162Y-141673833D01*
X174148117Y-141330057D01*
X173885327Y-141066808D01*
X173541799Y-140924162D01*
X173494923Y-140924121D01*
X172456756Y-139885954D01*
X172464698Y-139880648D01*
X172720000Y-139498562D01*
X172975302Y-139880648D01*
X173440849Y-140191717D01*
X173990000Y-140300950D01*
X174539151Y-140191717D01*
X175004698Y-139880648D01*
X175260000Y-139498562D01*
X175515302Y-139880648D01*
X175980849Y-140191717D01*
X176530000Y-140300950D01*
X177040000Y-140199505D01*
X177040000Y-140661537D01*
X177007808Y-140693673D01*
X176865162Y-141037201D01*
X176864838Y-141409167D01*
X177006883Y-141752943D01*
X177269673Y-142016192D01*
X177613201Y-142158838D01*
X177985167Y-142159162D01*
X178328943Y-142017117D01*
X178592192Y-141754327D01*
X178734838Y-141410799D01*
X178735162Y-141038833D01*
X178593117Y-140695057D01*
X178560000Y-140661882D01*
X178560000Y-140199505D01*
X179070000Y-140300950D01*
X179619151Y-140191717D01*
X180084698Y-139880648D01*
X180340000Y-139498562D01*
X180595302Y-139880648D01*
X181060849Y-140191717D01*
X181610000Y-140300950D01*
X182159151Y-140191717D01*
X182624698Y-139880648D01*
X182935767Y-139415101D01*
X183045000Y-138865950D01*
X183045000Y-138764462D01*
X183074148Y-138720839D01*
X183132000Y-138430000D01*
X183074148Y-138139161D01*
X183045000Y-138095538D01*
X183045000Y-137994050D01*
X182935767Y-137444899D01*
X182624698Y-136979352D01*
X182159151Y-136668283D01*
X181610000Y-136559050D01*
X181060849Y-136668283D01*
X180595302Y-136979352D01*
X180340000Y-137361438D01*
X180084698Y-136979352D01*
X179619151Y-136668283D01*
X179070000Y-136559050D01*
X178560000Y-136660495D01*
X178560000Y-135928633D01*
X178883201Y-136062838D01*
X179255167Y-136063162D01*
X179598943Y-135921117D01*
X179862192Y-135658327D01*
X180004838Y-135314799D01*
X180005162Y-134942833D01*
X179863117Y-134599057D01*
X179816556Y-134552415D01*
X179772148Y-134329161D01*
X179607401Y-134082599D01*
X179429958Y-133905156D01*
X179540000Y-133927440D01*
X180712638Y-133927440D01*
X182577599Y-135792401D01*
X182824161Y-135957148D01*
X183115000Y-136015000D01*
X195900198Y-136015000D01*
X197184878Y-137299680D01*
X197184838Y-137345167D01*
X197326883Y-137688943D01*
X197589673Y-137952192D01*
X197933201Y-138094838D01*
X198305167Y-138095162D01*
X198648943Y-137953117D01*
X198912192Y-137690327D01*
X199054838Y-137346799D01*
X199055162Y-136974833D01*
X198913117Y-136631057D01*
X198650327Y-136367808D01*
X198306799Y-136225162D01*
X198259923Y-136225121D01*
X197414802Y-135380000D01*
X201510367Y-135380000D01*
X201376162Y-135703201D01*
X201375838Y-136075167D01*
X201517883Y-136418943D01*
X201780673Y-136682192D01*
X202124201Y-136824838D01*
X202171077Y-136824879D01*
X203043599Y-137697401D01*
X203290160Y-137862148D01*
X203581000Y-137920000D01*
X210257537Y-137920000D01*
X210289673Y-137952192D01*
X210633201Y-138094838D01*
X210695000Y-138094892D01*
X210695000Y-139772537D01*
X210662808Y-139804673D01*
X210520162Y-140148201D01*
X210519838Y-140520167D01*
X210661883Y-140863943D01*
X210924673Y-141127192D01*
X211268201Y-141269838D01*
X211640167Y-141270162D01*
X211983943Y-141128117D01*
X212247192Y-140865327D01*
X212389838Y-140521799D01*
X212390162Y-140149833D01*
X212248117Y-139806057D01*
X212215000Y-139772882D01*
X212215000Y-138095110D01*
X212275167Y-138095162D01*
X212618943Y-137953117D01*
X212652118Y-137920000D01*
X213305537Y-137920000D01*
X213337673Y-137952192D01*
X213681201Y-138094838D01*
X214053167Y-138095162D01*
X214396943Y-137953117D01*
X214660192Y-137690327D01*
X214802838Y-137346799D01*
X214803162Y-136974833D01*
X214661117Y-136631057D01*
X214398327Y-136367808D01*
X214054799Y-136225162D01*
X213682833Y-136224838D01*
X213339057Y-136366883D01*
X213305882Y-136400000D01*
X212652463Y-136400000D01*
X212620327Y-136367808D01*
X212320668Y-136243378D01*
X212389838Y-136076799D01*
X212389892Y-136015000D01*
X222957537Y-136015000D01*
X222989673Y-136047192D01*
X223333201Y-136189838D01*
X223705167Y-136190162D01*
X224048943Y-136048117D01*
X224312192Y-135785327D01*
X224454838Y-135441799D01*
X224455162Y-135069833D01*
X224320944Y-134745000D01*
X224856198Y-134745000D01*
X225378878Y-135267680D01*
X225378838Y-135313167D01*
X225520883Y-135656943D01*
X225783673Y-135920192D01*
X226127201Y-136062838D01*
X226499167Y-136063162D01*
X226842943Y-135921117D01*
X227106192Y-135658327D01*
X227248838Y-135314799D01*
X227249162Y-134942833D01*
X227107117Y-134599057D01*
X226844327Y-134335808D01*
X226500799Y-134193162D01*
X226453923Y-134193121D01*
X226243802Y-133983000D01*
X228067200Y-133983000D01*
X228098601Y-134014401D01*
X228345162Y-134179148D01*
X228636002Y-134237000D01*
X238451537Y-134237000D01*
X238483673Y-134269192D01*
X238827201Y-134411838D01*
X239199167Y-134412162D01*
X239542943Y-134270117D01*
X239806192Y-134007327D01*
X239896780Y-133789167D01*
X242269838Y-133789167D01*
X242411883Y-134132943D01*
X242674673Y-134396192D01*
X243018201Y-134538838D01*
X243065077Y-134538879D01*
X243715000Y-135188802D01*
X243715000Y-136597537D01*
X243682808Y-136629673D01*
X243540162Y-136973201D01*
X243539838Y-137345167D01*
X243681883Y-137688943D01*
X243944673Y-137952192D01*
X244288201Y-138094838D01*
X244660167Y-138095162D01*
X245003943Y-137953117D01*
X245267192Y-137690327D01*
X245409838Y-137346799D01*
X245410162Y-136974833D01*
X245268117Y-136631057D01*
X245235000Y-136597882D01*
X245235000Y-134874000D01*
X245203890Y-134717599D01*
X245177148Y-134583160D01*
X245012401Y-134336599D01*
X244140122Y-133464320D01*
X244140162Y-133418833D01*
X244083280Y-133281167D01*
X244809838Y-133281167D01*
X244951883Y-133624943D01*
X245214673Y-133888192D01*
X245558201Y-134030838D01*
X245605077Y-134030879D01*
X245620000Y-134045802D01*
X245620000Y-137359537D01*
X245587808Y-137391673D01*
X245445162Y-137735201D01*
X245444838Y-138107167D01*
X245586883Y-138450943D01*
X245849673Y-138714192D01*
X246193201Y-138856838D01*
X246565167Y-138857162D01*
X246908943Y-138715117D01*
X247172192Y-138452327D01*
X247314838Y-138108799D01*
X247315162Y-137736833D01*
X247173117Y-137393057D01*
X247140000Y-137359882D01*
X247140000Y-133731000D01*
X247082148Y-133440161D01*
X246917401Y-133193599D01*
X246680122Y-132956320D01*
X246680162Y-132910833D01*
X246538117Y-132567057D01*
X246275327Y-132303808D01*
X245931799Y-132161162D01*
X245559833Y-132160838D01*
X245216057Y-132302883D01*
X244952808Y-132565673D01*
X244810162Y-132909201D01*
X244809838Y-133281167D01*
X244083280Y-133281167D01*
X243998117Y-133075057D01*
X243735327Y-132811808D01*
X243391799Y-132669162D01*
X243019833Y-132668838D01*
X242676057Y-132810883D01*
X242412808Y-133073673D01*
X242270162Y-133417201D01*
X242269838Y-133789167D01*
X239896780Y-133789167D01*
X239948838Y-133663799D01*
X239949162Y-133291833D01*
X239807117Y-132948057D01*
X239544327Y-132684808D01*
X239200799Y-132542162D01*
X238828833Y-132541838D01*
X238485057Y-132683883D01*
X238451882Y-132717000D01*
X229671897Y-132717000D01*
X229672162Y-132412833D01*
X229530117Y-132069057D01*
X229267327Y-131805808D01*
X228923799Y-131663162D01*
X228551833Y-131662838D01*
X228208057Y-131804883D01*
X228174882Y-131838000D01*
X216097802Y-131838000D01*
X216025000Y-131765198D01*
X216025000Y-131309505D01*
X216535000Y-131410950D01*
X217084151Y-131301717D01*
X217549698Y-130990648D01*
X217805000Y-130608562D01*
X218060302Y-130990648D01*
X218525849Y-131301717D01*
X219075000Y-131410950D01*
X219624151Y-131301717D01*
X220089698Y-130990648D01*
X220345000Y-130608562D01*
X220600302Y-130990648D01*
X221065849Y-131301717D01*
X221615000Y-131410950D01*
X222164151Y-131301717D01*
X222629698Y-130990648D01*
X222885000Y-130608562D01*
X223140302Y-130990648D01*
X223605849Y-131301717D01*
X224155000Y-131410950D01*
X224704151Y-131301717D01*
X225169698Y-130990648D01*
X225425000Y-130608562D01*
X225680302Y-130990648D01*
X226145849Y-131301717D01*
X226695000Y-131410950D01*
X227244151Y-131301717D01*
X227709698Y-130990648D01*
X227965000Y-130608562D01*
X228220302Y-130990648D01*
X228685849Y-131301717D01*
X229235000Y-131410950D01*
X229784151Y-131301717D01*
X230249698Y-130990648D01*
X230505000Y-130608562D01*
X230760302Y-130990648D01*
X231225849Y-131301717D01*
X231775000Y-131410950D01*
X232324151Y-131301717D01*
X232789698Y-130990648D01*
X233045000Y-130608562D01*
X233300302Y-130990648D01*
X233765849Y-131301717D01*
X234315000Y-131410950D01*
X234864151Y-131301717D01*
X235329698Y-130990648D01*
X235582507Y-130612293D01*
X235930104Y-131044500D01*
X236423181Y-131314367D01*
X236505961Y-131331904D01*
X236728000Y-131209915D01*
X236728000Y-129667000D01*
X236708000Y-129667000D01*
X236708000Y-129413000D01*
X236728000Y-129413000D01*
X236728000Y-127870085D01*
X236505961Y-127748096D01*
X236423181Y-127765633D01*
X235930104Y-128035500D01*
X235582507Y-128467707D01*
X235329698Y-128089352D01*
X234864151Y-127778283D01*
X234315000Y-127669050D01*
X233765849Y-127778283D01*
X233300302Y-128089352D01*
X233045000Y-128471438D01*
X232789698Y-128089352D01*
X232324151Y-127778283D01*
X231775000Y-127669050D01*
X231225849Y-127778283D01*
X230760302Y-128089352D01*
X230505000Y-128471438D01*
X230249698Y-128089352D01*
X229784151Y-127778283D01*
X229235000Y-127669050D01*
X228685849Y-127778283D01*
X228220302Y-128089352D01*
X227965000Y-128471438D01*
X227709698Y-128089352D01*
X227244151Y-127778283D01*
X226695000Y-127669050D01*
X226145849Y-127778283D01*
X225680302Y-128089352D01*
X225425000Y-128471438D01*
X225169698Y-128089352D01*
X224704151Y-127778283D01*
X224155000Y-127669050D01*
X223605849Y-127778283D01*
X223140302Y-128089352D01*
X222885000Y-128471438D01*
X222629698Y-128089352D01*
X222164151Y-127778283D01*
X221615000Y-127669050D01*
X221065849Y-127778283D01*
X220600302Y-128089352D01*
X220345000Y-128471438D01*
X220089698Y-128089352D01*
X219624151Y-127778283D01*
X219075000Y-127669050D01*
X218525849Y-127778283D01*
X218060302Y-128089352D01*
X217805000Y-128471438D01*
X217549698Y-128089352D01*
X217084151Y-127778283D01*
X216535000Y-127669050D01*
X215985849Y-127778283D01*
X215674873Y-127986071D01*
X214913401Y-127224599D01*
X214754979Y-127118745D01*
X233994861Y-127118745D01*
X234068995Y-127364864D01*
X234606223Y-127557965D01*
X235176454Y-127530778D01*
X235577005Y-127364864D01*
X235651139Y-127118745D01*
X234823000Y-126290605D01*
X233994861Y-127118745D01*
X214754979Y-127118745D01*
X214666839Y-127059852D01*
X214376000Y-127002000D01*
X211751113Y-127002000D01*
X211795381Y-126972421D01*
X212873579Y-125894223D01*
X233376035Y-125894223D01*
X233403222Y-126464454D01*
X233569136Y-126865005D01*
X233815255Y-126939139D01*
X234643395Y-126111000D01*
X235002605Y-126111000D01*
X235830745Y-126939139D01*
X236076864Y-126865005D01*
X236269965Y-126327777D01*
X236242778Y-125757546D01*
X236076864Y-125356995D01*
X235830745Y-125282861D01*
X235002605Y-126111000D01*
X234643395Y-126111000D01*
X233815255Y-125282861D01*
X233569136Y-125356995D01*
X233376035Y-125894223D01*
X212873579Y-125894223D01*
X213664547Y-125103255D01*
X233994861Y-125103255D01*
X234823000Y-125931395D01*
X235651139Y-125103255D01*
X235577005Y-124857136D01*
X235039777Y-124664035D01*
X234469546Y-124691222D01*
X234068995Y-124857136D01*
X233994861Y-125103255D01*
X213664547Y-125103255D01*
X217072401Y-121695401D01*
X217237148Y-121448840D01*
X217295000Y-121158000D01*
X217295000Y-111769520D01*
X217624029Y-111549670D01*
X217805000Y-111278828D01*
X217985971Y-111549670D01*
X218472152Y-111874526D01*
X219045641Y-111988600D01*
X219104359Y-111988600D01*
X219677848Y-111874526D01*
X220164029Y-111549670D01*
X220345000Y-111278828D01*
X220525971Y-111549670D01*
X221012152Y-111874526D01*
X221585641Y-111988600D01*
X221644359Y-111988600D01*
X222217848Y-111874526D01*
X222704029Y-111549670D01*
X222885000Y-111278828D01*
X223065971Y-111549670D01*
X223552152Y-111874526D01*
X224125641Y-111988600D01*
X224184359Y-111988600D01*
X224757848Y-111874526D01*
X225244029Y-111549670D01*
X225425000Y-111278828D01*
X225605971Y-111549670D01*
X225935000Y-111769520D01*
X225935000Y-114134367D01*
X225611799Y-114000162D01*
X225239833Y-113999838D01*
X224896057Y-114141883D01*
X224632808Y-114404673D01*
X224490162Y-114748201D01*
X224490121Y-114795077D01*
X223617599Y-115667599D01*
X223452852Y-115914161D01*
X223395000Y-116205000D01*
X223395000Y-121992537D01*
X223362808Y-122024673D01*
X223220162Y-122368201D01*
X223219838Y-122740167D01*
X223361883Y-123083943D01*
X223624673Y-123347192D01*
X223968201Y-123489838D01*
X224340167Y-123490162D01*
X224683943Y-123348117D01*
X224947192Y-123085327D01*
X225089838Y-122741799D01*
X225090162Y-122369833D01*
X224948117Y-122026057D01*
X224915000Y-121992882D01*
X224915000Y-116519802D01*
X225564680Y-115870122D01*
X225610167Y-115870162D01*
X225935000Y-115735944D01*
X225935000Y-122246537D01*
X225902808Y-122278673D01*
X225760162Y-122622201D01*
X225759838Y-122994167D01*
X225901883Y-123337943D01*
X226164673Y-123601192D01*
X226508201Y-123743838D01*
X226880167Y-123744162D01*
X227030124Y-123682201D01*
X227029838Y-124010167D01*
X227171883Y-124353943D01*
X227434673Y-124617192D01*
X227778201Y-124759838D01*
X228150167Y-124760162D01*
X228493943Y-124618117D01*
X228757192Y-124355327D01*
X228899838Y-124011799D01*
X228900162Y-123639833D01*
X228758117Y-123296057D01*
X228725000Y-123262882D01*
X228725000Y-115122802D01*
X229772401Y-114075401D01*
X229937148Y-113828840D01*
X229995000Y-113538000D01*
X229995000Y-111769520D01*
X230324029Y-111549670D01*
X230505000Y-111278828D01*
X230685971Y-111549670D01*
X231015000Y-111769520D01*
X231015000Y-119700198D01*
X229730320Y-120984878D01*
X229684833Y-120984838D01*
X229341057Y-121126883D01*
X229077808Y-121389673D01*
X228935162Y-121733201D01*
X228934838Y-122105167D01*
X229076883Y-122448943D01*
X229339673Y-122712192D01*
X229683201Y-122854838D01*
X230055167Y-122855162D01*
X230398943Y-122713117D01*
X230662192Y-122450327D01*
X230804838Y-122106799D01*
X230804879Y-122059923D01*
X232285000Y-120579802D01*
X232285000Y-121357537D01*
X232252808Y-121389673D01*
X232110162Y-121733201D01*
X232109838Y-122105167D01*
X232251883Y-122448943D01*
X232514673Y-122712192D01*
X232858201Y-122854838D01*
X233230167Y-122855162D01*
X233573943Y-122713117D01*
X233837192Y-122450327D01*
X233979838Y-122106799D01*
X233980162Y-121734833D01*
X233870805Y-121470167D01*
X236046838Y-121470167D01*
X236188883Y-121813943D01*
X236451673Y-122077192D01*
X236476000Y-122087294D01*
X236476000Y-126249630D01*
X236533852Y-126540469D01*
X236698599Y-126787031D01*
X238228343Y-128316775D01*
X238127493Y-128467707D01*
X237779896Y-128035500D01*
X237286819Y-127765633D01*
X237204039Y-127748096D01*
X236982000Y-127870085D01*
X236982000Y-129413000D01*
X237002000Y-129413000D01*
X237002000Y-129667000D01*
X236982000Y-129667000D01*
X236982000Y-131209915D01*
X237204039Y-131331904D01*
X237286819Y-131314367D01*
X237779896Y-131044500D01*
X238127493Y-130612293D01*
X238380302Y-130990648D01*
X238845849Y-131301717D01*
X239395000Y-131410950D01*
X239944151Y-131301717D01*
X240409698Y-130990648D01*
X240665000Y-130608562D01*
X240920302Y-130990648D01*
X241385849Y-131301717D01*
X241935000Y-131410950D01*
X242269866Y-131344341D01*
X242269838Y-131376167D01*
X242411883Y-131719943D01*
X242674673Y-131983192D01*
X243018201Y-132125838D01*
X243390167Y-132126162D01*
X243733943Y-131984117D01*
X243997192Y-131721327D01*
X244139838Y-131377799D01*
X244139867Y-131344288D01*
X244475000Y-131410950D01*
X245024151Y-131301717D01*
X245489698Y-130990648D01*
X245745000Y-130608562D01*
X246000302Y-130990648D01*
X246465849Y-131301717D01*
X247015000Y-131410950D01*
X247564151Y-131301717D01*
X248029698Y-130990648D01*
X248285000Y-130608562D01*
X248540302Y-130990648D01*
X249005849Y-131301717D01*
X249555000Y-131410950D01*
X250104151Y-131301717D01*
X250569698Y-130990648D01*
X250880767Y-130525101D01*
X250990000Y-129975950D01*
X250990000Y-129104050D01*
X250880767Y-128554899D01*
X250569698Y-128089352D01*
X250104151Y-127778283D01*
X249555000Y-127669050D01*
X249005849Y-127778283D01*
X248540302Y-128089352D01*
X248285000Y-128471438D01*
X248029698Y-128089352D01*
X247775000Y-127919168D01*
X247775000Y-127000000D01*
X247717148Y-126709161D01*
X247552401Y-126462599D01*
X247267000Y-126177198D01*
X247267000Y-125424920D01*
X247420577Y-125564041D01*
X247808961Y-125724904D01*
X248031000Y-125602915D01*
X248031000Y-124460000D01*
X248011000Y-124460000D01*
X248011000Y-124206000D01*
X248031000Y-124206000D01*
X248031000Y-123063085D01*
X247940292Y-123013250D01*
X248051943Y-122967117D01*
X248154719Y-122864521D01*
X248329071Y-123038873D01*
X248285000Y-123063085D01*
X248285000Y-124206000D01*
X248305000Y-124206000D01*
X248305000Y-124460000D01*
X248285000Y-124460000D01*
X248285000Y-125602915D01*
X248507039Y-125724904D01*
X248895423Y-125564041D01*
X249310389Y-125188134D01*
X249549914Y-124682041D01*
X249428630Y-124460002D01*
X249593000Y-124460002D01*
X249593000Y-124423181D01*
X249786673Y-124617192D01*
X250130201Y-124759838D01*
X250502167Y-124760162D01*
X250845943Y-124618117D01*
X251109192Y-124355327D01*
X251251838Y-124011799D01*
X251252162Y-123639833D01*
X251134880Y-123355989D01*
X251206000Y-123316915D01*
X251206000Y-122174000D01*
X250062371Y-122174000D01*
X249941086Y-122396041D01*
X249989950Y-122499285D01*
X249972839Y-122487852D01*
X249916434Y-122476632D01*
X249137761Y-121697959D01*
X249941086Y-121697959D01*
X250062371Y-121920000D01*
X251206000Y-121920000D01*
X251206000Y-120777085D01*
X250983961Y-120655096D01*
X250595577Y-120815959D01*
X250180611Y-121191866D01*
X249941086Y-121697959D01*
X249137761Y-121697959D01*
X246308461Y-118868659D01*
X246537192Y-118640327D01*
X246679838Y-118296799D01*
X246680162Y-117924833D01*
X246538117Y-117581057D01*
X246275327Y-117317808D01*
X245931799Y-117175162D01*
X245884923Y-117175121D01*
X245647401Y-116937599D01*
X245400839Y-116772852D01*
X245110000Y-116715000D01*
X241227463Y-116715000D01*
X241195327Y-116682808D01*
X240851799Y-116540162D01*
X240479833Y-116539838D01*
X240136057Y-116681883D01*
X239872808Y-116944673D01*
X239763235Y-117208554D01*
X239501057Y-117316883D01*
X239237808Y-117579673D01*
X239128235Y-117843554D01*
X238866057Y-117951883D01*
X238602808Y-118214673D01*
X238493235Y-118478554D01*
X238231057Y-118586883D01*
X237967808Y-118849673D01*
X237858235Y-119113554D01*
X237596057Y-119221883D01*
X237332808Y-119484673D01*
X237223235Y-119748554D01*
X236961057Y-119856883D01*
X236697808Y-120119673D01*
X236561932Y-120446897D01*
X236453057Y-120491883D01*
X236189808Y-120754673D01*
X236047162Y-121098201D01*
X236046838Y-121470167D01*
X233870805Y-121470167D01*
X233838117Y-121391057D01*
X233805000Y-121357882D01*
X233805000Y-111892995D01*
X234285641Y-111988600D01*
X234344359Y-111988600D01*
X234917848Y-111874526D01*
X235404029Y-111549670D01*
X235604262Y-111250000D01*
X240794000Y-111250000D01*
X240794000Y-113662046D01*
X240503946Y-113855853D01*
X240182039Y-114337622D01*
X240069000Y-114905907D01*
X240069000Y-114964093D01*
X240182039Y-115532378D01*
X240503946Y-116014147D01*
X240985715Y-116336054D01*
X241554000Y-116449093D01*
X242122285Y-116336054D01*
X242604054Y-116014147D01*
X242631850Y-115972548D01*
X242640838Y-116020317D01*
X242779910Y-116236441D01*
X242992110Y-116381431D01*
X243244000Y-116432440D01*
X244944000Y-116432440D01*
X245179317Y-116388162D01*
X245395441Y-116249090D01*
X245540431Y-116036890D01*
X245591440Y-115785000D01*
X245591440Y-115695000D01*
X247396000Y-115695000D01*
X247686839Y-115637148D01*
X247784675Y-115571776D01*
X247871309Y-115607750D01*
X248442187Y-115608248D01*
X248969800Y-115390243D01*
X249373824Y-114986923D01*
X249592750Y-114459691D01*
X249593248Y-113888813D01*
X249375243Y-113361200D01*
X248971923Y-112957176D01*
X248444691Y-112738250D01*
X247873813Y-112737752D01*
X247346200Y-112955757D01*
X246942176Y-113359077D01*
X246723250Y-113886309D01*
X246722998Y-114175000D01*
X245591440Y-114175000D01*
X245591440Y-114085000D01*
X245547162Y-113849683D01*
X245408090Y-113633559D01*
X245195890Y-113488569D01*
X244944000Y-113437560D01*
X243244000Y-113437560D01*
X243008683Y-113481838D01*
X242792559Y-113620910D01*
X242647569Y-113833110D01*
X242633914Y-113900541D01*
X242604054Y-113855853D01*
X242314000Y-113662046D01*
X242314000Y-111250000D01*
X243809661Y-111250000D01*
X243958110Y-111351431D01*
X244210000Y-111402440D01*
X246010000Y-111402440D01*
X246245317Y-111358162D01*
X246461441Y-111219090D01*
X246606431Y-111006890D01*
X246610567Y-110986466D01*
X246779357Y-111155551D01*
X247343330Y-111389733D01*
X247953991Y-111390265D01*
X248518371Y-111157068D01*
X248950551Y-110725643D01*
X249184733Y-110161670D01*
X249185265Y-109551009D01*
X248952068Y-108986629D01*
X248520643Y-108554449D01*
X247956670Y-108320267D01*
X247346009Y-108319735D01*
X246781629Y-108552932D01*
X246613387Y-108720880D01*
X246613162Y-108719683D01*
X246474090Y-108503559D01*
X246261890Y-108358569D01*
X246010000Y-108307560D01*
X244210000Y-108307560D01*
X243974683Y-108351838D01*
X243758559Y-108490910D01*
X243613569Y-108703110D01*
X243562560Y-108955000D01*
X243562560Y-109730000D01*
X235604262Y-109730000D01*
X235404029Y-109430330D01*
X235089248Y-109220000D01*
X235404029Y-109009670D01*
X235728885Y-108523489D01*
X235842959Y-107950000D01*
X235728885Y-107376511D01*
X235404029Y-106890330D01*
X234917848Y-106565474D01*
X234344359Y-106451400D01*
X234285641Y-106451400D01*
X233712152Y-106565474D01*
X233225971Y-106890330D01*
X233045000Y-107161172D01*
X232864029Y-106890330D01*
X232377848Y-106565474D01*
X231804359Y-106451400D01*
X231745641Y-106451400D01*
X231172152Y-106565474D01*
X230685971Y-106890330D01*
X230505000Y-107161172D01*
X230324029Y-106890330D01*
X229837848Y-106565474D01*
X229264359Y-106451400D01*
X229205641Y-106451400D01*
X228632152Y-106565474D01*
X228145971Y-106890330D01*
X227965000Y-107161172D01*
X227784029Y-106890330D01*
X227297848Y-106565474D01*
X226724359Y-106451400D01*
X226665641Y-106451400D01*
X226092152Y-106565474D01*
X225605971Y-106890330D01*
X225425000Y-107161172D01*
X225244029Y-106890330D01*
X224757848Y-106565474D01*
X224184359Y-106451400D01*
X224125641Y-106451400D01*
X223595252Y-106556901D01*
X223587148Y-106516161D01*
X223587148Y-106516160D01*
X223422401Y-106269599D01*
X221898401Y-104745599D01*
X221651839Y-104580852D01*
X221361000Y-104523000D01*
X181991000Y-104523000D01*
X181700161Y-104580852D01*
X181453599Y-104745599D01*
X180914198Y-105285000D01*
X180282995Y-105285000D01*
X180112811Y-105030302D01*
X179647264Y-104719233D01*
X179098113Y-104610000D01*
X179041887Y-104610000D01*
X178492736Y-104719233D01*
X178027189Y-105030302D01*
X177716120Y-105495849D01*
X177606887Y-106045000D01*
X177716120Y-106594151D01*
X178027189Y-107059698D01*
X178492736Y-107370767D01*
X179041887Y-107480000D01*
X179098113Y-107480000D01*
X179647264Y-107370767D01*
X180112811Y-107059698D01*
X180282995Y-106805000D01*
X181229000Y-106805000D01*
X181485000Y-106754078D01*
X181485000Y-108905198D01*
X179375102Y-111015096D01*
X179098113Y-110960000D01*
X179041887Y-110960000D01*
X178492736Y-111069233D01*
X178027189Y-111380302D01*
X177716120Y-111845849D01*
X177606887Y-112395000D01*
X177716120Y-112944151D01*
X178027189Y-113409698D01*
X178492736Y-113720767D01*
X179041887Y-113830000D01*
X179098113Y-113830000D01*
X179647264Y-113720767D01*
X180112811Y-113409698D01*
X180423880Y-112944151D01*
X180533113Y-112395000D01*
X180468688Y-112071114D01*
X182578000Y-109961802D01*
X182578000Y-110281487D01*
X182053244Y-110806244D01*
X181877658Y-111069026D01*
X181816000Y-111379000D01*
X181816000Y-114345487D01*
X181274488Y-114887000D01*
X176868070Y-114887000D01*
X176840162Y-114738683D01*
X176701090Y-114522559D01*
X176488890Y-114377569D01*
X176237000Y-114326560D01*
X174537000Y-114326560D01*
X174301683Y-114370838D01*
X174085559Y-114509910D01*
X173940569Y-114722110D01*
X173918699Y-114830107D01*
X173613924Y-114552355D01*
X173203890Y-114382524D01*
X172974000Y-114503845D01*
X172974000Y-115697000D01*
X172994000Y-115697000D01*
X172994000Y-115951000D01*
X172974000Y-115951000D01*
X172974000Y-117144155D01*
X173203890Y-117265476D01*
X173613924Y-117095645D01*
X173916937Y-116819499D01*
X173933838Y-116909317D01*
X174072910Y-117125441D01*
X174285110Y-117270431D01*
X174537000Y-117321440D01*
X176237000Y-117321440D01*
X176472317Y-117277162D01*
X176688441Y-117138090D01*
X176833431Y-116925890D01*
X176884440Y-116674000D01*
X176884440Y-116574835D01*
X176896974Y-116572342D01*
X176994765Y-116507000D01*
X181610000Y-116507000D01*
X181919974Y-116445342D01*
X182182756Y-116269756D01*
X183198757Y-115253756D01*
X183358956Y-115014000D01*
X183374342Y-114990974D01*
X183436000Y-114681000D01*
X183436000Y-111714512D01*
X183960757Y-111189756D01*
X184136343Y-110926973D01*
X184176841Y-110723371D01*
X184198000Y-110617000D01*
X184198000Y-107421441D01*
X184322838Y-107120799D01*
X184323002Y-106932000D01*
X184938128Y-106932000D01*
X184641115Y-107376511D01*
X184527041Y-107950000D01*
X184641115Y-108523489D01*
X184965971Y-109009670D01*
X184979642Y-109018805D01*
X184956083Y-109023238D01*
X184739959Y-109162310D01*
X184594969Y-109374510D01*
X184543960Y-109626400D01*
X184543960Y-111353600D01*
X184588238Y-111588917D01*
X184727310Y-111805041D01*
X184786288Y-111845339D01*
X184717852Y-111947761D01*
X184660000Y-112238600D01*
X184660000Y-118593204D01*
X184522745Y-118551861D01*
X183694605Y-119380000D01*
X184522745Y-120208139D01*
X184660000Y-120166796D01*
X184660000Y-122839168D01*
X184405302Y-123009352D01*
X184150000Y-123391438D01*
X183894698Y-123009352D01*
X183429151Y-122698283D01*
X182880000Y-122589050D01*
X182330849Y-122698283D01*
X181865302Y-123009352D01*
X181612493Y-123387707D01*
X181264896Y-122955500D01*
X180771819Y-122685633D01*
X180689039Y-122668096D01*
X180467000Y-122790085D01*
X180467000Y-124333000D01*
X180487000Y-124333000D01*
X180487000Y-124587000D01*
X180467000Y-124587000D01*
X180467000Y-126129915D01*
X180689039Y-126251904D01*
X180771819Y-126234367D01*
X181264896Y-125964500D01*
X181612493Y-125532293D01*
X181865302Y-125910648D01*
X182120000Y-126080832D01*
X182120000Y-129159000D01*
X182177852Y-129449839D01*
X182342599Y-129696401D01*
X182859355Y-130213157D01*
X182330849Y-130318283D01*
X181865302Y-130629352D01*
X181767749Y-130775350D01*
X181743162Y-130644683D01*
X181604090Y-130428559D01*
X181391890Y-130283569D01*
X181140000Y-130232560D01*
X179540000Y-130232560D01*
X179304683Y-130276838D01*
X179088559Y-130415910D01*
X178943569Y-130628110D01*
X178941000Y-130640796D01*
X178941000Y-129848463D01*
X178973192Y-129816327D01*
X179115838Y-129472799D01*
X179116162Y-129100833D01*
X178974117Y-128757057D01*
X178711327Y-128493808D01*
X178367799Y-128351162D01*
X177995833Y-128350838D01*
X177652057Y-128492883D01*
X177388808Y-128755673D01*
X177246162Y-129099201D01*
X177246090Y-129181288D01*
X177163000Y-129098198D01*
X177163000Y-129086463D01*
X177195192Y-129054327D01*
X177337838Y-128710799D01*
X177338162Y-128338833D01*
X177196117Y-127995057D01*
X176933327Y-127731808D01*
X176589799Y-127589162D01*
X176217833Y-127588838D01*
X176020000Y-127670581D01*
X176020000Y-126365000D01*
X175962148Y-126074161D01*
X175797401Y-125827599D01*
X174734904Y-124765102D01*
X174770330Y-124587000D01*
X178905000Y-124587000D01*
X178905000Y-124987000D01*
X179062834Y-125526483D01*
X179415104Y-125964500D01*
X179908181Y-126234367D01*
X179990961Y-126251904D01*
X180213000Y-126129915D01*
X180213000Y-124587000D01*
X178905000Y-124587000D01*
X174770330Y-124587000D01*
X174790000Y-124488113D01*
X174790000Y-124431887D01*
X174734904Y-124154898D01*
X174956802Y-123933000D01*
X178905000Y-123933000D01*
X178905000Y-124333000D01*
X180213000Y-124333000D01*
X180213000Y-122790085D01*
X179990961Y-122668096D01*
X179908181Y-122685633D01*
X179415104Y-122955500D01*
X179062834Y-123393517D01*
X178905000Y-123933000D01*
X174956802Y-123933000D01*
X176432401Y-122457401D01*
X176597148Y-122210840D01*
X176617843Y-122106799D01*
X176655000Y-121920000D01*
X176655000Y-120583667D01*
X176937811Y-120394698D01*
X177008150Y-120289428D01*
X177031838Y-120415317D01*
X177170910Y-120631441D01*
X177383110Y-120776431D01*
X177635000Y-120827440D01*
X179235000Y-120827440D01*
X179470317Y-120783162D01*
X179686441Y-120644090D01*
X179831431Y-120431890D01*
X179840370Y-120387745D01*
X182686861Y-120387745D01*
X182760995Y-120633864D01*
X183298223Y-120826965D01*
X183868454Y-120799778D01*
X184269005Y-120633864D01*
X184343139Y-120387745D01*
X183515000Y-119559605D01*
X182686861Y-120387745D01*
X179840370Y-120387745D01*
X179882440Y-120180000D01*
X179882440Y-119163223D01*
X182068035Y-119163223D01*
X182095222Y-119733454D01*
X182261136Y-120134005D01*
X182507255Y-120208139D01*
X183335395Y-119380000D01*
X182507255Y-118551861D01*
X182261136Y-118625995D01*
X182068035Y-119163223D01*
X179882440Y-119163223D01*
X179882440Y-118580000D01*
X179843351Y-118372255D01*
X182686861Y-118372255D01*
X183515000Y-119200395D01*
X184343139Y-118372255D01*
X184269005Y-118126136D01*
X183731777Y-117933035D01*
X183161546Y-117960222D01*
X182760995Y-118126136D01*
X182686861Y-118372255D01*
X179843351Y-118372255D01*
X179838162Y-118344683D01*
X179699090Y-118128559D01*
X179486890Y-117983569D01*
X179235000Y-117932560D01*
X177635000Y-117932560D01*
X177399683Y-117976838D01*
X177183559Y-118115910D01*
X177038569Y-118328110D01*
X177009355Y-118472375D01*
X176937811Y-118365302D01*
X176472264Y-118054233D01*
X175923113Y-117945000D01*
X175866887Y-117945000D01*
X175317736Y-118054233D01*
X174852189Y-118365302D01*
X174625000Y-118705314D01*
X174397811Y-118365302D01*
X173932264Y-118054233D01*
X173383113Y-117945000D01*
X173326887Y-117945000D01*
X172777736Y-118054233D01*
X172312189Y-118365302D01*
X172085000Y-118705314D01*
X171857811Y-118365302D01*
X171392264Y-118054233D01*
X170843113Y-117945000D01*
X170786887Y-117945000D01*
X170237736Y-118054233D01*
X169772189Y-118365302D01*
X169545000Y-118705314D01*
X169317811Y-118365302D01*
X168852264Y-118054233D01*
X168303113Y-117945000D01*
X168246887Y-117945000D01*
X167697736Y-118054233D01*
X167232189Y-118365302D01*
X167005000Y-118705314D01*
X166777811Y-118365302D01*
X166312264Y-118054233D01*
X165763113Y-117945000D01*
X165706887Y-117945000D01*
X165157736Y-118054233D01*
X164692189Y-118365302D01*
X164465000Y-118705314D01*
X164237811Y-118365302D01*
X163772264Y-118054233D01*
X163223113Y-117945000D01*
X163166887Y-117945000D01*
X162617736Y-118054233D01*
X162152189Y-118365302D01*
X161841120Y-118830849D01*
X161731887Y-119380000D01*
X161841120Y-119929151D01*
X162152189Y-120394698D01*
X162202952Y-120428616D01*
X161641599Y-120989969D01*
X161476852Y-121236531D01*
X161419000Y-121527370D01*
X161419000Y-122621198D01*
X160978886Y-123061312D01*
X160655000Y-122996887D01*
X160105849Y-123106120D01*
X159640302Y-123417189D01*
X159329233Y-123882736D01*
X159220000Y-124431887D01*
X154608600Y-124431887D01*
X154608600Y-120686219D01*
X156692413Y-120686219D01*
X157031955Y-121507972D01*
X157660121Y-122137236D01*
X158481281Y-122478211D01*
X159370419Y-122478987D01*
X160192172Y-122139445D01*
X160821436Y-121511279D01*
X161162411Y-120690119D01*
X161163187Y-119800981D01*
X160823645Y-118979228D01*
X160195479Y-118349964D01*
X159374319Y-118008989D01*
X158485181Y-118008213D01*
X157663428Y-118347755D01*
X157034164Y-118975921D01*
X156693189Y-119797081D01*
X156692413Y-120686219D01*
X154608600Y-120686219D01*
X154608600Y-118810492D01*
X157238199Y-116180892D01*
X171405514Y-116180892D01*
X171651817Y-116705358D01*
X172080076Y-117095645D01*
X172490110Y-117265476D01*
X172720000Y-117144155D01*
X172720000Y-115951000D01*
X171526181Y-115951000D01*
X171405514Y-116180892D01*
X157238199Y-116180892D01*
X157951983Y-115467108D01*
X171405514Y-115467108D01*
X171526181Y-115697000D01*
X172720000Y-115697000D01*
X172720000Y-114503845D01*
X172490110Y-114382524D01*
X172080076Y-114552355D01*
X171651817Y-114942642D01*
X171405514Y-115467108D01*
X157951983Y-115467108D01*
X160739904Y-112679187D01*
X167474752Y-112679187D01*
X167692757Y-113206800D01*
X168096077Y-113610824D01*
X168623309Y-113829750D01*
X169194187Y-113830248D01*
X169721800Y-113612243D01*
X170125824Y-113208923D01*
X170344750Y-112681691D01*
X170345248Y-112110813D01*
X170127243Y-111583200D01*
X169723923Y-111179176D01*
X169196691Y-110960250D01*
X168625813Y-110959752D01*
X168098200Y-111177757D01*
X167694176Y-111581077D01*
X167475250Y-112108309D01*
X167474752Y-112679187D01*
X160739904Y-112679187D01*
X163914904Y-109504187D01*
X167474752Y-109504187D01*
X167692757Y-110031800D01*
X168096077Y-110435824D01*
X168623309Y-110654750D01*
X169194187Y-110655248D01*
X169721800Y-110437243D01*
X170125824Y-110033923D01*
X170344750Y-109506691D01*
X170345000Y-109220000D01*
X177606887Y-109220000D01*
X177716120Y-109769151D01*
X178027189Y-110234698D01*
X178492736Y-110545767D01*
X179041887Y-110655000D01*
X179098113Y-110655000D01*
X179647264Y-110545767D01*
X180112811Y-110234698D01*
X180423880Y-109769151D01*
X180533113Y-109220000D01*
X180423880Y-108670849D01*
X180112811Y-108205302D01*
X179647264Y-107894233D01*
X179098113Y-107785000D01*
X179041887Y-107785000D01*
X178492736Y-107894233D01*
X178027189Y-108205302D01*
X177716120Y-108670849D01*
X177606887Y-109220000D01*
X170345000Y-109220000D01*
X170345248Y-108935813D01*
X170127243Y-108408200D01*
X169723923Y-108004176D01*
X169196691Y-107785250D01*
X168625813Y-107784752D01*
X168098200Y-108002757D01*
X167694176Y-108406077D01*
X167475250Y-108933309D01*
X167474752Y-109504187D01*
X163914904Y-109504187D01*
X166366346Y-107052745D01*
X168081861Y-107052745D01*
X168155995Y-107298864D01*
X168693223Y-107491965D01*
X169263454Y-107464778D01*
X169664005Y-107298864D01*
X169738139Y-107052745D01*
X168910000Y-106224605D01*
X168081861Y-107052745D01*
X166366346Y-107052745D01*
X167468852Y-105950239D01*
X167490222Y-106398454D01*
X167656136Y-106799005D01*
X167902255Y-106873139D01*
X168730395Y-106045000D01*
X169089605Y-106045000D01*
X169917745Y-106873139D01*
X170163864Y-106799005D01*
X170356965Y-106261777D01*
X170329778Y-105691546D01*
X170163864Y-105290995D01*
X169917745Y-105216861D01*
X169089605Y-106045000D01*
X168730395Y-106045000D01*
X168716253Y-106030858D01*
X168895858Y-105851253D01*
X168910000Y-105865395D01*
X169738139Y-105037255D01*
X169664005Y-104791136D01*
X169126777Y-104598035D01*
X168805750Y-104613341D01*
X169204091Y-104215000D01*
X247748469Y-104215000D01*
X249523673Y-104568110D01*
X249523673Y-104568110D01*
G37*
X249523673Y-104568110D02*
X250969332Y-105534068D01*
X251935290Y-106979727D01*
X252290000Y-108762971D01*
X252290000Y-110814503D01*
X252146923Y-110671176D01*
X251619691Y-110452250D01*
X251048813Y-110451752D01*
X250521200Y-110669757D01*
X250117176Y-111073077D01*
X249898250Y-111600309D01*
X249897752Y-112171187D01*
X250115757Y-112698800D01*
X250519077Y-113102824D01*
X251046309Y-113321750D01*
X251617187Y-113322248D01*
X252144800Y-113104243D01*
X252290000Y-112959296D01*
X252290000Y-121014868D01*
X252070423Y-120815959D01*
X251682039Y-120655096D01*
X251460000Y-120777085D01*
X251460000Y-121920000D01*
X251480000Y-121920000D01*
X251480000Y-122174000D01*
X251460000Y-122174000D01*
X251460000Y-123316915D01*
X251682039Y-123438904D01*
X252070423Y-123278041D01*
X252290000Y-123079132D01*
X252290000Y-124523038D01*
X252027799Y-124414162D01*
X251655833Y-124413838D01*
X251312057Y-124555883D01*
X251048808Y-124818673D01*
X250906162Y-125162201D01*
X250905838Y-125534167D01*
X251047883Y-125877943D01*
X251310673Y-126141192D01*
X251654201Y-126283838D01*
X251701077Y-126283879D01*
X251716000Y-126298802D01*
X251716000Y-131351928D01*
X251566057Y-131413883D01*
X251302808Y-131676673D01*
X251160162Y-132020201D01*
X251159838Y-132392167D01*
X251301883Y-132735943D01*
X251564673Y-132999192D01*
X251908201Y-133141838D01*
X252280167Y-133142162D01*
X252290000Y-133138099D01*
X252290000Y-150289695D01*
X252095000Y-150250907D01*
X251526715Y-150363946D01*
X251044946Y-150685853D01*
X250825000Y-151015026D01*
X250605054Y-150685853D01*
X250123285Y-150363946D01*
X249555000Y-150250907D01*
X248986715Y-150363946D01*
X248504946Y-150685853D01*
X248285000Y-151015026D01*
X248065054Y-150685853D01*
X247583285Y-150363946D01*
X247015000Y-150250907D01*
X246446715Y-150363946D01*
X245964946Y-150685853D01*
X245745000Y-151015026D01*
X245525054Y-150685853D01*
X245043285Y-150363946D01*
X244475000Y-150250907D01*
X243906715Y-150363946D01*
X243424946Y-150685853D01*
X243205000Y-151015026D01*
X242985054Y-150685853D01*
X242503285Y-150363946D01*
X241935000Y-150250907D01*
X241366715Y-150363946D01*
X240884946Y-150685853D01*
X240665000Y-151015026D01*
X240445054Y-150685853D01*
X239963285Y-150363946D01*
X239395000Y-150250907D01*
X238826715Y-150363946D01*
X238344946Y-150685853D01*
X238125000Y-151015026D01*
X237905054Y-150685853D01*
X237423285Y-150363946D01*
X236855000Y-150250907D01*
X236286715Y-150363946D01*
X235804946Y-150685853D01*
X235585000Y-151015026D01*
X235365054Y-150685853D01*
X234883285Y-150363946D01*
X234315000Y-150250907D01*
X233746715Y-150363946D01*
X233264946Y-150685853D01*
X233045000Y-151015026D01*
X232825054Y-150685853D01*
X232343285Y-150363946D01*
X231775000Y-150250907D01*
X231206715Y-150363946D01*
X230724946Y-150685853D01*
X230505000Y-151015026D01*
X230285054Y-150685853D01*
X229803285Y-150363946D01*
X229235000Y-150250907D01*
X228666715Y-150363946D01*
X228184946Y-150685853D01*
X227965000Y-151015026D01*
X227745054Y-150685853D01*
X227263285Y-150363946D01*
X226695000Y-150250907D01*
X226126715Y-150363946D01*
X225644946Y-150685853D01*
X225425000Y-151015026D01*
X225205054Y-150685853D01*
X224915000Y-150492046D01*
X224915000Y-149666802D01*
X225962401Y-148619401D01*
X226127148Y-148372840D01*
X226185000Y-148082000D01*
X226185000Y-146549505D01*
X226695000Y-146650950D01*
X227244151Y-146541717D01*
X227709698Y-146230648D01*
X227965000Y-145848562D01*
X228220302Y-146230648D01*
X228685849Y-146541717D01*
X229235000Y-146650950D01*
X229784151Y-146541717D01*
X230249698Y-146230648D01*
X230505000Y-145848562D01*
X230760302Y-146230648D01*
X231225849Y-146541717D01*
X231775000Y-146650950D01*
X232285000Y-146549505D01*
X232285000Y-146630537D01*
X232252808Y-146662673D01*
X232110162Y-147006201D01*
X232109838Y-147378167D01*
X232251883Y-147721943D01*
X232514673Y-147985192D01*
X232858201Y-148127838D01*
X233230167Y-148128162D01*
X233573943Y-147986117D01*
X233837192Y-147723327D01*
X233979838Y-147379799D01*
X233980162Y-147007833D01*
X233838117Y-146664057D01*
X233805000Y-146630882D01*
X233805000Y-146549505D01*
X234315000Y-146650950D01*
X234864151Y-146541717D01*
X235329698Y-146230648D01*
X235585000Y-145848562D01*
X235840302Y-146230648D01*
X236305849Y-146541717D01*
X236855000Y-146650950D01*
X237404151Y-146541717D01*
X237869698Y-146230648D01*
X238125000Y-145848562D01*
X238380302Y-146230648D01*
X238845849Y-146541717D01*
X239395000Y-146650950D01*
X239944151Y-146541717D01*
X240409698Y-146230648D01*
X240665000Y-145848562D01*
X240920302Y-146230648D01*
X241385849Y-146541717D01*
X241935000Y-146650950D01*
X242484151Y-146541717D01*
X242949698Y-146230648D01*
X243205000Y-145848562D01*
X243460302Y-146230648D01*
X243925849Y-146541717D01*
X244475000Y-146650950D01*
X245024151Y-146541717D01*
X245489698Y-146230648D01*
X245745000Y-145848562D01*
X246000302Y-146230648D01*
X246465849Y-146541717D01*
X247015000Y-146650950D01*
X247564151Y-146541717D01*
X248029698Y-146230648D01*
X248285000Y-145848562D01*
X248540302Y-146230648D01*
X249005849Y-146541717D01*
X249555000Y-146650950D01*
X250104151Y-146541717D01*
X250569698Y-146230648D01*
X250880767Y-145765101D01*
X250990000Y-145215950D01*
X250990000Y-144344050D01*
X250880767Y-143794899D01*
X250569698Y-143329352D01*
X250104151Y-143018283D01*
X249555000Y-142909050D01*
X249005849Y-143018283D01*
X248540302Y-143329352D01*
X248285000Y-143711438D01*
X248029698Y-143329352D01*
X247564151Y-143018283D01*
X247015000Y-142909050D01*
X246465849Y-143018283D01*
X246000302Y-143329352D01*
X245745000Y-143711438D01*
X245489698Y-143329352D01*
X245235000Y-143159168D01*
X245235000Y-142167463D01*
X245267192Y-142135327D01*
X245409838Y-141791799D01*
X245410162Y-141419833D01*
X245268117Y-141076057D01*
X245005327Y-140812808D01*
X244661799Y-140670162D01*
X244289833Y-140669838D01*
X243946057Y-140811883D01*
X243682808Y-141074673D01*
X243540162Y-141418201D01*
X243539838Y-141790167D01*
X243681883Y-142133943D01*
X243715000Y-142167118D01*
X243715000Y-143159168D01*
X243460302Y-143329352D01*
X243205000Y-143711438D01*
X242949698Y-143329352D01*
X242484151Y-143018283D01*
X241935000Y-142909050D01*
X241385849Y-143018283D01*
X240920302Y-143329352D01*
X240665000Y-143711438D01*
X240409698Y-143329352D01*
X239944151Y-143018283D01*
X239395000Y-142909050D01*
X238845849Y-143018283D01*
X238380302Y-143329352D01*
X238125000Y-143711438D01*
X237869698Y-143329352D01*
X237404151Y-143018283D01*
X236855000Y-142909050D01*
X236305849Y-143018283D01*
X235840302Y-143329352D01*
X235585000Y-143711438D01*
X235329698Y-143329352D01*
X234864151Y-143018283D01*
X234315000Y-142909050D01*
X233805000Y-143010495D01*
X233805000Y-138811000D01*
X233773890Y-138654599D01*
X233747148Y-138520160D01*
X233582401Y-138273599D01*
X231694122Y-136385320D01*
X231694162Y-136339833D01*
X231552117Y-135996057D01*
X231289327Y-135732808D01*
X230945799Y-135590162D01*
X230573833Y-135589838D01*
X230230057Y-135731883D01*
X229966808Y-135994673D01*
X229824162Y-136338201D01*
X229823838Y-136710167D01*
X229965883Y-137053943D01*
X230228673Y-137317192D01*
X230572201Y-137459838D01*
X230619077Y-137459879D01*
X232285000Y-139125802D01*
X232285000Y-143010495D01*
X231775000Y-142909050D01*
X231225849Y-143018283D01*
X230760302Y-143329352D01*
X230505000Y-143711438D01*
X230249698Y-143329352D01*
X229995000Y-143159168D01*
X229995000Y-138611463D01*
X230027192Y-138579327D01*
X230169838Y-138235799D01*
X230170162Y-137863833D01*
X230028117Y-137520057D01*
X229765327Y-137256808D01*
X229421799Y-137114162D01*
X229049833Y-137113838D01*
X228706057Y-137255883D01*
X228442808Y-137518673D01*
X228300162Y-137862201D01*
X228299838Y-138234167D01*
X228441883Y-138577943D01*
X228475000Y-138611118D01*
X228475000Y-143159168D01*
X228220302Y-143329352D01*
X227965000Y-143711438D01*
X227709698Y-143329352D01*
X227455000Y-143159168D01*
X227455000Y-138992463D01*
X227487192Y-138960327D01*
X227629838Y-138616799D01*
X227630162Y-138244833D01*
X227488117Y-137901057D01*
X227225327Y-137637808D01*
X226881799Y-137495162D01*
X226509833Y-137494838D01*
X226166057Y-137636883D01*
X225902808Y-137899673D01*
X225760162Y-138243201D01*
X225759838Y-138615167D01*
X225865310Y-138870430D01*
X225611799Y-138765162D01*
X225239833Y-138764838D01*
X224896057Y-138906883D01*
X224864544Y-138938341D01*
X224857148Y-138901161D01*
X224692401Y-138654599D01*
X222660401Y-136622599D01*
X222413839Y-136457852D01*
X222123000Y-136400000D01*
X219002463Y-136400000D01*
X218970327Y-136367808D01*
X218626799Y-136225162D01*
X218254833Y-136224838D01*
X217911057Y-136366883D01*
X217647808Y-136629673D01*
X217505162Y-136973201D01*
X217504838Y-137345167D01*
X217646883Y-137688943D01*
X217909673Y-137952192D01*
X218253201Y-138094838D01*
X218625167Y-138095162D01*
X218968943Y-137953117D01*
X219002118Y-137920000D01*
X220073897Y-137920000D01*
X220045162Y-137989201D01*
X220044838Y-138361167D01*
X220186883Y-138704943D01*
X220449673Y-138968192D01*
X220793201Y-139110838D01*
X220840077Y-139110879D01*
X222125000Y-140395802D01*
X222125000Y-143010495D01*
X221615000Y-142909050D01*
X221065849Y-143018283D01*
X220600302Y-143329352D01*
X220345000Y-143711438D01*
X220089698Y-143329352D01*
X219624151Y-143018283D01*
X219075000Y-142909050D01*
X218525849Y-143018283D01*
X218060302Y-143329352D01*
X217805000Y-143711438D01*
X217549698Y-143329352D01*
X217084151Y-143018283D01*
X216535000Y-142909050D01*
X215985849Y-143018283D01*
X215520302Y-143329352D01*
X215265000Y-143711438D01*
X215009698Y-143329352D01*
X214544151Y-143018283D01*
X213995000Y-142909050D01*
X213445849Y-143018283D01*
X213363266Y-143073464D01*
X212627401Y-142337599D01*
X212380839Y-142172852D01*
X212090000Y-142115000D01*
X203500110Y-142115000D01*
X203500162Y-142054833D01*
X203358117Y-141711057D01*
X203325000Y-141677882D01*
X203325000Y-141605000D01*
X203267148Y-141314161D01*
X203102401Y-141067599D01*
X201595122Y-139560320D01*
X201595162Y-139514833D01*
X201453117Y-139171057D01*
X201190327Y-138907808D01*
X200846799Y-138765162D01*
X200474833Y-138764838D01*
X200131057Y-138906883D01*
X199867808Y-139169673D01*
X199725162Y-139513201D01*
X199724838Y-139885167D01*
X199866883Y-140228943D01*
X200129673Y-140492192D01*
X200473201Y-140634838D01*
X200520077Y-140634879D01*
X201720600Y-141835402D01*
X201630162Y-142053201D01*
X201630108Y-142115000D01*
X197485000Y-142115000D01*
X197194161Y-142172852D01*
X196947599Y-142337599D01*
X196535198Y-142750000D01*
X194491463Y-142750000D01*
X194459327Y-142717808D01*
X194115799Y-142575162D01*
X193743833Y-142574838D01*
X193400057Y-142716883D01*
X193136808Y-142979673D01*
X192994162Y-143323201D01*
X192993838Y-143695167D01*
X193135883Y-144038943D01*
X193398673Y-144302192D01*
X193742201Y-144444838D01*
X194114167Y-144445162D01*
X194457943Y-144303117D01*
X194491118Y-144270000D01*
X196850000Y-144270000D01*
X197140839Y-144212148D01*
X197387401Y-144047401D01*
X197799802Y-143635000D01*
X199847560Y-143635000D01*
X199847560Y-145925000D01*
X194237463Y-145925000D01*
X194205327Y-145892808D01*
X193861799Y-145750162D01*
X193489833Y-145749838D01*
X193146057Y-145891883D01*
X192882808Y-146154673D01*
X192758378Y-146454332D01*
X192591799Y-146385162D01*
X192219833Y-146384838D01*
X191876057Y-146526883D01*
X191612808Y-146789673D01*
X191470162Y-147133201D01*
X191470108Y-147195000D01*
X191443463Y-147195000D01*
X191411327Y-147162808D01*
X191067799Y-147020162D01*
X190695833Y-147019838D01*
X190352057Y-147161883D01*
X190088808Y-147424673D01*
X189946162Y-147768201D01*
X189945838Y-148140167D01*
X190087883Y-148483943D01*
X190350673Y-148747192D01*
X190694201Y-148889838D01*
X191066167Y-148890162D01*
X191409943Y-148748117D01*
X191443118Y-148715000D01*
X199090001Y-148715000D01*
X199089838Y-148902167D01*
X199231883Y-149245943D01*
X199494673Y-149509192D01*
X199838201Y-149651838D01*
X199885077Y-149651879D01*
X200535000Y-150301802D01*
X200535000Y-150492046D01*
X200244946Y-150685853D01*
X200017298Y-151026553D01*
X199950183Y-150883642D01*
X199521924Y-150493355D01*
X199111890Y-150323524D01*
X198882000Y-150444845D01*
X198882000Y-151638000D01*
X198902000Y-151638000D01*
X198902000Y-151892000D01*
X198882000Y-151892000D01*
X198882000Y-151912000D01*
X198628000Y-151912000D01*
X198628000Y-151892000D01*
X198608000Y-151892000D01*
X198608000Y-151638000D01*
X198628000Y-151638000D01*
X198628000Y-150444845D01*
X198398110Y-150323524D01*
X197988076Y-150493355D01*
X197559817Y-150883642D01*
X197492702Y-151026553D01*
X197265054Y-150685853D01*
X196783285Y-150363946D01*
X196215000Y-150250907D01*
X195646715Y-150363946D01*
X195164946Y-150685853D01*
X194945000Y-151015026D01*
X194725054Y-150685853D01*
X194243285Y-150363946D01*
X193675000Y-150250907D01*
X193106715Y-150363946D01*
X192624946Y-150685853D01*
X192405000Y-151015026D01*
X192185054Y-150685853D01*
X191703285Y-150363946D01*
X191135000Y-150250907D01*
X190566715Y-150363946D01*
X190084946Y-150685853D01*
X189865000Y-151015026D01*
X189645054Y-150685853D01*
X189355000Y-150492046D01*
X189355000Y-149860000D01*
X189297148Y-149569161D01*
X189132401Y-149322599D01*
X187989401Y-148179599D01*
X187742839Y-148014852D01*
X187599868Y-147986413D01*
X187736192Y-147850327D01*
X187878838Y-147506799D01*
X187879162Y-147134833D01*
X187737117Y-146791057D01*
X187474327Y-146527808D01*
X187130799Y-146385162D01*
X186990151Y-146385039D01*
X186990162Y-146372833D01*
X186848117Y-146029057D01*
X186815000Y-145995882D01*
X186815000Y-145088463D01*
X186847192Y-145056327D01*
X186989838Y-144712799D01*
X186990162Y-144340833D01*
X186960894Y-144270000D01*
X187143537Y-144270000D01*
X187175673Y-144302192D01*
X187519201Y-144444838D01*
X187891167Y-144445162D01*
X188234943Y-144303117D01*
X188498192Y-144040327D01*
X188640838Y-143696799D01*
X188641162Y-143324833D01*
X188499117Y-142981057D01*
X188236327Y-142717808D01*
X187892799Y-142575162D01*
X187690305Y-142574986D01*
X187751838Y-142426799D01*
X187752162Y-142054833D01*
X187610117Y-141711057D01*
X187347327Y-141447808D01*
X187003799Y-141305162D01*
X186631833Y-141304838D01*
X186288057Y-141446883D01*
X186024808Y-141709673D01*
X185882162Y-142053201D01*
X185882121Y-142100077D01*
X185740198Y-142242000D01*
X176623072Y-142242000D01*
X176561117Y-142092057D01*
X176298327Y-141828808D01*
X175954799Y-141686162D01*
X175582833Y-141685838D01*
X175239057Y-141827883D01*
X174975808Y-142090673D01*
X174833162Y-142434201D01*
X174832838Y-142806167D01*
X174971187Y-143140999D01*
X165625801Y-143140999D01*
X164003122Y-141518320D01*
X164003162Y-141472833D01*
X163861117Y-141129057D01*
X163598327Y-140865808D01*
X163254799Y-140723162D01*
X162882833Y-140722838D01*
X162539057Y-140864883D01*
X162275808Y-141127673D01*
X162133162Y-141471201D01*
X162132838Y-141843167D01*
X162274883Y-142186943D01*
X162537673Y-142450192D01*
X162881201Y-142592838D01*
X162928077Y-142592879D01*
X164773598Y-144438400D01*
X165020160Y-144603147D01*
X165310999Y-144660999D01*
X165314111Y-144660999D01*
X165100000Y-144981438D01*
X164844698Y-144599352D01*
X164379151Y-144288283D01*
X163830000Y-144179050D01*
X163280849Y-144288283D01*
X162815302Y-144599352D01*
X162560000Y-144981438D01*
X162304698Y-144599352D01*
X161839151Y-144288283D01*
X161290000Y-144179050D01*
X160740849Y-144288283D01*
X160275302Y-144599352D01*
X160177749Y-144745350D01*
X160153162Y-144614683D01*
X160014090Y-144398559D01*
X159801890Y-144253569D01*
X159550000Y-144202560D01*
X157950000Y-144202560D01*
X157714683Y-144246838D01*
X157498559Y-144385910D01*
X157353569Y-144598110D01*
X157302560Y-144850000D01*
X157302560Y-147250000D01*
X157346838Y-147485317D01*
X157485910Y-147701441D01*
X157698110Y-147846431D01*
X157950000Y-147897440D01*
X158119080Y-147897440D01*
X158212599Y-148037401D01*
X158667599Y-148492401D01*
X158914160Y-148657148D01*
X159205000Y-148715000D01*
X182072001Y-148715000D01*
X182071838Y-148902167D01*
X182213883Y-149245943D01*
X182476673Y-149509192D01*
X182820201Y-149651838D01*
X183192167Y-149652162D01*
X183535943Y-149510117D01*
X183569118Y-149477000D01*
X185119890Y-149477000D01*
X185119838Y-149537167D01*
X185261883Y-149880943D01*
X185295000Y-149914118D01*
X185295000Y-150492046D01*
X185004946Y-150685853D01*
X184785000Y-151015026D01*
X184565054Y-150685853D01*
X184083285Y-150363946D01*
X183515000Y-150250907D01*
X182946715Y-150363946D01*
X182464946Y-150685853D01*
X182245000Y-151015026D01*
X182025054Y-150685853D01*
X181543285Y-150363946D01*
X180975000Y-150250907D01*
X180406715Y-150363946D01*
X179924946Y-150685853D01*
X179705000Y-151015026D01*
X179485054Y-150685853D01*
X179003285Y-150363946D01*
X178435000Y-150250907D01*
X177866715Y-150363946D01*
X177384946Y-150685853D01*
X177165000Y-151015026D01*
X176945054Y-150685853D01*
X176463285Y-150363946D01*
X175895000Y-150250907D01*
X175326715Y-150363946D01*
X174844946Y-150685853D01*
X174625000Y-151015026D01*
X174405054Y-150685853D01*
X173923285Y-150363946D01*
X173355000Y-150250907D01*
X172786715Y-150363946D01*
X172304946Y-150685853D01*
X172085000Y-151015026D01*
X171865054Y-150685853D01*
X171383285Y-150363946D01*
X170815000Y-150250907D01*
X170246715Y-150363946D01*
X169764946Y-150685853D01*
X169545000Y-151015026D01*
X169325054Y-150685853D01*
X168843285Y-150363946D01*
X168275000Y-150250907D01*
X167706715Y-150363946D01*
X167224946Y-150685853D01*
X167005000Y-151015026D01*
X166785054Y-150685853D01*
X166303285Y-150363946D01*
X165735000Y-150250907D01*
X165166715Y-150363946D01*
X164684946Y-150685853D01*
X164465000Y-151015026D01*
X164245054Y-150685853D01*
X163763285Y-150363946D01*
X163195000Y-150250907D01*
X162626715Y-150363946D01*
X162144946Y-150685853D01*
X161925000Y-151015026D01*
X161705054Y-150685853D01*
X161223285Y-150363946D01*
X160655000Y-150250907D01*
X160086715Y-150363946D01*
X159604946Y-150685853D01*
X159385000Y-151015026D01*
X159165054Y-150685853D01*
X158683285Y-150363946D01*
X158115000Y-150250907D01*
X157546715Y-150363946D01*
X157064946Y-150685853D01*
X157037150Y-150727452D01*
X157028162Y-150679683D01*
X156889090Y-150463559D01*
X156676890Y-150318569D01*
X156425000Y-150267560D01*
X154725000Y-150267560D01*
X154608600Y-150289462D01*
X154608600Y-140707745D01*
X154873861Y-140707745D01*
X154947995Y-140953864D01*
X155485223Y-141146965D01*
X156055454Y-141119778D01*
X156456005Y-140953864D01*
X156530139Y-140707745D01*
X155702000Y-139879605D01*
X154873861Y-140707745D01*
X154608600Y-140707745D01*
X154608600Y-140502339D01*
X154694255Y-140528139D01*
X155522395Y-139700000D01*
X155881605Y-139700000D01*
X156709745Y-140528139D01*
X156955864Y-140454005D01*
X157148965Y-139916777D01*
X157121778Y-139346546D01*
X156955864Y-138945995D01*
X156709745Y-138871861D01*
X155881605Y-139700000D01*
X155522395Y-139700000D01*
X154694255Y-138871861D01*
X154608600Y-138897661D01*
X154608600Y-138692255D01*
X154873861Y-138692255D01*
X155702000Y-139520395D01*
X156530139Y-138692255D01*
X156489399Y-138557000D01*
X157315000Y-138557000D01*
X157315000Y-138957000D01*
X157472834Y-139496483D01*
X157825104Y-139934500D01*
X158318181Y-140204367D01*
X158400961Y-140221904D01*
X158623000Y-140099915D01*
X158623000Y-138557000D01*
X157315000Y-138557000D01*
X156489399Y-138557000D01*
X156456005Y-138446136D01*
X155918777Y-138253035D01*
X155348546Y-138280222D01*
X154947995Y-138446136D01*
X154873861Y-138692255D01*
X154608600Y-138692255D01*
X154608600Y-137903000D01*
X157315000Y-137903000D01*
X157315000Y-138303000D01*
X158623000Y-138303000D01*
X158623000Y-136760085D01*
X158877000Y-136760085D01*
X158877000Y-138303000D01*
X158897000Y-138303000D01*
X158897000Y-138557000D01*
X158877000Y-138557000D01*
X158877000Y-140099915D01*
X159099039Y-140221904D01*
X159181819Y-140204367D01*
X159674896Y-139934500D01*
X160022493Y-139502293D01*
X160275302Y-139880648D01*
X160740849Y-140191717D01*
X161290000Y-140300950D01*
X161839151Y-140191717D01*
X162304698Y-139880648D01*
X162557507Y-139502293D01*
X162905104Y-139934500D01*
X163398181Y-140204367D01*
X163480961Y-140221904D01*
X163703000Y-140099915D01*
X163703000Y-138557000D01*
X163957000Y-138557000D01*
X163957000Y-140099915D01*
X164179039Y-140221904D01*
X164261819Y-140204367D01*
X164754896Y-139934500D01*
X165100000Y-139505393D01*
X165445104Y-139934500D01*
X165938181Y-140204367D01*
X166020961Y-140221904D01*
X166243000Y-140099915D01*
X166243000Y-138557000D01*
X163957000Y-138557000D01*
X163703000Y-138557000D01*
X163683000Y-138557000D01*
X163683000Y-138303000D01*
X163703000Y-138303000D01*
X163703000Y-136760085D01*
X163957000Y-136760085D01*
X163957000Y-138303000D01*
X166243000Y-138303000D01*
X166243000Y-138283000D01*
X166497000Y-138283000D01*
X166497000Y-138303000D01*
X166517000Y-138303000D01*
X166517000Y-138557000D01*
X166497000Y-138557000D01*
X166497000Y-140099915D01*
X166719039Y-140221904D01*
X166801819Y-140204367D01*
X166880000Y-140161578D01*
X166880000Y-141042537D01*
X166847808Y-141074673D01*
X166705162Y-141418201D01*
X166704838Y-141790167D01*
X166846883Y-142133943D01*
X167109673Y-142397192D01*
X167453201Y-142539838D01*
X167825167Y-142540162D01*
X168168943Y-142398117D01*
X168432192Y-142135327D01*
X168574838Y-141791799D01*
X168575162Y-141419833D01*
X168433117Y-141076057D01*
X168400000Y-141042882D01*
X168400000Y-140161578D01*
X168478181Y-140204367D01*
X168560961Y-140221904D01*
X168783000Y-140099915D01*
X168783000Y-138557000D01*
X168763000Y-138557000D01*
X168763000Y-138303000D01*
X168783000Y-138303000D01*
X168783000Y-136760085D01*
X168560961Y-136638096D01*
X168478181Y-136655633D01*
X168211969Y-136801334D01*
X168177401Y-136749599D01*
X167765000Y-136337198D01*
X167765000Y-135055463D01*
X167797192Y-135023327D01*
X167939838Y-134679799D01*
X167940162Y-134307833D01*
X167798117Y-133964057D01*
X167535327Y-133700808D01*
X167191799Y-133558162D01*
X166819833Y-133557838D01*
X166476057Y-133699883D01*
X166212808Y-133962673D01*
X166070162Y-134306201D01*
X166069838Y-134678167D01*
X166211883Y-135021943D01*
X166245000Y-135055118D01*
X166245000Y-136595000D01*
X166242998Y-136595000D01*
X166242998Y-136760084D01*
X166020961Y-136638096D01*
X165938181Y-136655633D01*
X165445104Y-136925500D01*
X165100000Y-137354607D01*
X164754896Y-136925500D01*
X164261819Y-136655633D01*
X164179039Y-136638096D01*
X163957000Y-136760085D01*
X163703000Y-136760085D01*
X163480961Y-136638096D01*
X163398181Y-136655633D01*
X162905104Y-136925500D01*
X162557507Y-137357707D01*
X162304698Y-136979352D01*
X161839151Y-136668283D01*
X161290000Y-136559050D01*
X160740849Y-136668283D01*
X160275302Y-136979352D01*
X160022493Y-137357707D01*
X159674896Y-136925500D01*
X159181819Y-136655633D01*
X159099039Y-136638096D01*
X158877000Y-136760085D01*
X158623000Y-136760085D01*
X158400961Y-136638096D01*
X158318181Y-136655633D01*
X157825104Y-136925500D01*
X157472834Y-137363517D01*
X157315000Y-137903000D01*
X154608600Y-137903000D01*
X154608600Y-135635859D01*
X154888077Y-135915824D01*
X155415309Y-136134750D01*
X155986187Y-136135248D01*
X156513800Y-135917243D01*
X156917824Y-135513923D01*
X157136750Y-134986691D01*
X157137248Y-134415813D01*
X156919243Y-133888200D01*
X156515923Y-133484176D01*
X155988691Y-133265250D01*
X155417813Y-133264752D01*
X154890200Y-133482757D01*
X154608600Y-133763866D01*
X154608600Y-132365750D01*
X159220000Y-132365750D01*
X159220000Y-133006309D01*
X159316673Y-133239698D01*
X159495301Y-133418327D01*
X159728690Y-133515000D01*
X160369250Y-133515000D01*
X160528000Y-133356250D01*
X160528000Y-132207000D01*
X160782000Y-132207000D01*
X160782000Y-133356250D01*
X160940750Y-133515000D01*
X161581310Y-133515000D01*
X161814699Y-133418327D01*
X161993327Y-133239698D01*
X162090000Y-133006309D01*
X162090000Y-132978062D01*
X162457577Y-133311041D01*
X162845961Y-133471904D01*
X163068000Y-133349915D01*
X163068000Y-132207000D01*
X163322000Y-132207000D01*
X163322000Y-133349915D01*
X163544039Y-133471904D01*
X163932423Y-133311041D01*
X164347389Y-132935134D01*
X164465000Y-132686633D01*
X164582611Y-132935134D01*
X164997577Y-133311041D01*
X165385961Y-133471904D01*
X165608000Y-133349915D01*
X165608000Y-132207000D01*
X165862000Y-132207000D01*
X165862000Y-133349915D01*
X166084039Y-133471904D01*
X166472423Y-133311041D01*
X166887389Y-132935134D01*
X167005000Y-132686633D01*
X167122611Y-132935134D01*
X167537577Y-133311041D01*
X167925961Y-133471904D01*
X168148000Y-133349915D01*
X168148000Y-132207000D01*
X168402000Y-132207000D01*
X168402000Y-133349915D01*
X168624039Y-133471904D01*
X169012423Y-133311041D01*
X169427389Y-132935134D01*
X169545000Y-132686633D01*
X169662611Y-132935134D01*
X170077577Y-133311041D01*
X170465961Y-133471904D01*
X170688000Y-133349915D01*
X170688000Y-132207000D01*
X170942000Y-132207000D01*
X170942000Y-133349915D01*
X171164039Y-133471904D01*
X171552423Y-133311041D01*
X171967389Y-132935134D01*
X172085000Y-132686633D01*
X172202611Y-132935134D01*
X172617577Y-133311041D01*
X173005961Y-133471904D01*
X173228000Y-133349915D01*
X173228000Y-132207000D01*
X173482000Y-132207000D01*
X173482000Y-133349915D01*
X173704039Y-133471904D01*
X174092423Y-133311041D01*
X174507389Y-132935134D01*
X174746914Y-132429041D01*
X174625629Y-132207000D01*
X173482000Y-132207000D01*
X173228000Y-132207000D01*
X170942000Y-132207000D01*
X170688000Y-132207000D01*
X168402000Y-132207000D01*
X168148000Y-132207000D01*
X165862000Y-132207000D01*
X165608000Y-132207000D01*
X163322000Y-132207000D01*
X163068000Y-132207000D01*
X160782000Y-132207000D01*
X160528000Y-132207000D01*
X159378750Y-132207000D01*
X159220000Y-132365750D01*
X154608600Y-132365750D01*
X154608600Y-131153691D01*
X159220000Y-131153691D01*
X159220000Y-131794250D01*
X159378750Y-131953000D01*
X160528000Y-131953000D01*
X160528000Y-130803750D01*
X160782000Y-130803750D01*
X160782000Y-131953000D01*
X163068000Y-131953000D01*
X163068000Y-130810085D01*
X163322000Y-130810085D01*
X163322000Y-131953000D01*
X165608000Y-131953000D01*
X165608000Y-130810085D01*
X165862000Y-130810085D01*
X165862000Y-131953000D01*
X168148000Y-131953000D01*
X168148000Y-130810085D01*
X168402000Y-130810085D01*
X168402000Y-131953000D01*
X170688000Y-131953000D01*
X170688000Y-130810085D01*
X170942000Y-130810085D01*
X170942000Y-131953000D01*
X173228000Y-131953000D01*
X173228000Y-130810085D01*
X173482000Y-130810085D01*
X173482000Y-131953000D01*
X174625629Y-131953000D01*
X174746914Y-131730959D01*
X174507389Y-131224866D01*
X174092423Y-130848959D01*
X173704039Y-130688096D01*
X173482000Y-130810085D01*
X173228000Y-130810085D01*
X173005961Y-130688096D01*
X172617577Y-130848959D01*
X172202611Y-131224866D01*
X172085000Y-131473367D01*
X171967389Y-131224866D01*
X171552423Y-130848959D01*
X171164039Y-130688096D01*
X170942000Y-130810085D01*
X170688000Y-130810085D01*
X170465961Y-130688096D01*
X170077577Y-130848959D01*
X169662611Y-131224866D01*
X169545000Y-131473367D01*
X169427389Y-131224866D01*
X169012423Y-130848959D01*
X168624039Y-130688096D01*
X168402000Y-130810085D01*
X168148000Y-130810085D01*
X167925961Y-130688096D01*
X167537577Y-130848959D01*
X167122611Y-131224866D01*
X167005000Y-131473367D01*
X166887389Y-131224866D01*
X166472423Y-130848959D01*
X166084039Y-130688096D01*
X165862000Y-130810085D01*
X165608000Y-130810085D01*
X165385961Y-130688096D01*
X164997577Y-130848959D01*
X164582611Y-131224866D01*
X164465000Y-131473367D01*
X164347389Y-131224866D01*
X163932423Y-130848959D01*
X163544039Y-130688096D01*
X163322000Y-130810085D01*
X163068000Y-130810085D01*
X162845961Y-130688096D01*
X162457577Y-130848959D01*
X162090000Y-131181938D01*
X162090000Y-131153691D01*
X161993327Y-130920302D01*
X161814699Y-130741673D01*
X161581310Y-130645000D01*
X160940750Y-130645000D01*
X160782000Y-130803750D01*
X160528000Y-130803750D01*
X160369250Y-130645000D01*
X159728690Y-130645000D01*
X159495301Y-130741673D01*
X159316673Y-130920302D01*
X159220000Y-131153691D01*
X154608600Y-131153691D01*
X154608600Y-124431887D01*
X159220000Y-124431887D01*
X159220000Y-124488113D01*
X159329233Y-125037264D01*
X159640302Y-125502811D01*
X160105849Y-125813880D01*
X160655000Y-125923113D01*
X161204151Y-125813880D01*
X161669698Y-125502811D01*
X161925000Y-125120725D01*
X162180302Y-125502811D01*
X162645849Y-125813880D01*
X163195000Y-125923113D01*
X163744151Y-125813880D01*
X164209698Y-125502811D01*
X164465000Y-125120725D01*
X164720302Y-125502811D01*
X165185849Y-125813880D01*
X165735000Y-125923113D01*
X166284151Y-125813880D01*
X166749698Y-125502811D01*
X167005000Y-125120725D01*
X167260302Y-125502811D01*
X167725849Y-125813880D01*
X168275000Y-125923113D01*
X168824151Y-125813880D01*
X169289698Y-125502811D01*
X169545000Y-125120725D01*
X169800302Y-125502811D01*
X170265849Y-125813880D01*
X170815000Y-125923113D01*
X171138886Y-125858688D01*
X172690599Y-127410401D01*
X172937160Y-127575148D01*
X173228000Y-127633000D01*
X173681537Y-127633000D01*
X173713673Y-127665192D01*
X174057201Y-127807838D01*
X174429167Y-127808162D01*
X174500000Y-127778894D01*
X174500000Y-129231537D01*
X174467808Y-129263673D01*
X174325162Y-129607201D01*
X174324838Y-129979167D01*
X174466883Y-130322943D01*
X174729673Y-130586192D01*
X175073201Y-130728838D01*
X175445167Y-130729162D01*
X175788943Y-130587117D01*
X176052192Y-130324327D01*
X176107156Y-130191958D01*
X176405000Y-130489802D01*
X176405000Y-135255000D01*
X176462852Y-135545839D01*
X176627599Y-135792401D01*
X177040000Y-136204802D01*
X177040000Y-136660495D01*
X176530000Y-136559050D01*
X175980849Y-136668283D01*
X175515302Y-136979352D01*
X175260000Y-137361438D01*
X175004698Y-136979352D01*
X174750000Y-136809168D01*
X174750000Y-136204802D01*
X175399680Y-135555122D01*
X175445167Y-135555162D01*
X175788943Y-135413117D01*
X176052192Y-135150327D01*
X176194838Y-134806799D01*
X176195162Y-134434833D01*
X176053117Y-134091057D01*
X175790327Y-133827808D01*
X175446799Y-133685162D01*
X175074833Y-133684838D01*
X174731057Y-133826883D01*
X174467808Y-134089673D01*
X174325162Y-134433201D01*
X174325121Y-134480077D01*
X173452599Y-135352599D01*
X173287852Y-135599161D01*
X173230000Y-135890000D01*
X173230000Y-136809168D01*
X172975302Y-136979352D01*
X172720000Y-137361438D01*
X172464698Y-136979352D01*
X171999151Y-136668283D01*
X171450000Y-136559050D01*
X170900849Y-136668283D01*
X170435302Y-136979352D01*
X170182493Y-137357707D01*
X169834896Y-136925500D01*
X169341819Y-136655633D01*
X169259039Y-136638096D01*
X169037000Y-136760085D01*
X169037000Y-138303000D01*
X169057000Y-138303000D01*
X169057000Y-138557000D01*
X169037000Y-138557000D01*
X169037000Y-140099915D01*
X169259039Y-140221904D01*
X169341819Y-140204367D01*
X169834896Y-139934500D01*
X170182493Y-139502293D01*
X170435302Y-139880648D01*
X170712214Y-140065675D01*
X170747852Y-140244839D01*
X170912599Y-140491401D01*
X172419878Y-141998680D01*
X172419838Y-142044167D01*
X172561883Y-142387943D01*
X172824673Y-142651192D01*
X173168201Y-142793838D01*
X173540167Y-142794162D01*
X173883943Y-142652117D01*
X174147192Y-142389327D01*
X174289838Y-142045799D01*
X174290162Y-141673833D01*
X174148117Y-141330057D01*
X173885327Y-141066808D01*
X173541799Y-140924162D01*
X173494923Y-140924121D01*
X172456756Y-139885954D01*
X172464698Y-139880648D01*
X172720000Y-139498562D01*
X172975302Y-139880648D01*
X173440849Y-140191717D01*
X173990000Y-140300950D01*
X174539151Y-140191717D01*
X175004698Y-139880648D01*
X175260000Y-139498562D01*
X175515302Y-139880648D01*
X175980849Y-140191717D01*
X176530000Y-140300950D01*
X177040000Y-140199505D01*
X177040000Y-140661537D01*
X177007808Y-140693673D01*
X176865162Y-141037201D01*
X176864838Y-141409167D01*
X177006883Y-141752943D01*
X177269673Y-142016192D01*
X177613201Y-142158838D01*
X177985167Y-142159162D01*
X178328943Y-142017117D01*
X178592192Y-141754327D01*
X178734838Y-141410799D01*
X178735162Y-141038833D01*
X178593117Y-140695057D01*
X178560000Y-140661882D01*
X178560000Y-140199505D01*
X179070000Y-140300950D01*
X179619151Y-140191717D01*
X180084698Y-139880648D01*
X180340000Y-139498562D01*
X180595302Y-139880648D01*
X181060849Y-140191717D01*
X181610000Y-140300950D01*
X182159151Y-140191717D01*
X182624698Y-139880648D01*
X182935767Y-139415101D01*
X183045000Y-138865950D01*
X183045000Y-138764462D01*
X183074148Y-138720839D01*
X183132000Y-138430000D01*
X183074148Y-138139161D01*
X183045000Y-138095538D01*
X183045000Y-137994050D01*
X182935767Y-137444899D01*
X182624698Y-136979352D01*
X182159151Y-136668283D01*
X181610000Y-136559050D01*
X181060849Y-136668283D01*
X180595302Y-136979352D01*
X180340000Y-137361438D01*
X180084698Y-136979352D01*
X179619151Y-136668283D01*
X179070000Y-136559050D01*
X178560000Y-136660495D01*
X178560000Y-135928633D01*
X178883201Y-136062838D01*
X179255167Y-136063162D01*
X179598943Y-135921117D01*
X179862192Y-135658327D01*
X180004838Y-135314799D01*
X180005162Y-134942833D01*
X179863117Y-134599057D01*
X179816556Y-134552415D01*
X179772148Y-134329161D01*
X179607401Y-134082599D01*
X179429958Y-133905156D01*
X179540000Y-133927440D01*
X180712638Y-133927440D01*
X182577599Y-135792401D01*
X182824161Y-135957148D01*
X183115000Y-136015000D01*
X195900198Y-136015000D01*
X197184878Y-137299680D01*
X197184838Y-137345167D01*
X197326883Y-137688943D01*
X197589673Y-137952192D01*
X197933201Y-138094838D01*
X198305167Y-138095162D01*
X198648943Y-137953117D01*
X198912192Y-137690327D01*
X199054838Y-137346799D01*
X199055162Y-136974833D01*
X198913117Y-136631057D01*
X198650327Y-136367808D01*
X198306799Y-136225162D01*
X198259923Y-136225121D01*
X197414802Y-135380000D01*
X201510367Y-135380000D01*
X201376162Y-135703201D01*
X201375838Y-136075167D01*
X201517883Y-136418943D01*
X201780673Y-136682192D01*
X202124201Y-136824838D01*
X202171077Y-136824879D01*
X203043599Y-137697401D01*
X203290160Y-137862148D01*
X203581000Y-137920000D01*
X210257537Y-137920000D01*
X210289673Y-137952192D01*
X210633201Y-138094838D01*
X210695000Y-138094892D01*
X210695000Y-139772537D01*
X210662808Y-139804673D01*
X210520162Y-140148201D01*
X210519838Y-140520167D01*
X210661883Y-140863943D01*
X210924673Y-141127192D01*
X211268201Y-141269838D01*
X211640167Y-141270162D01*
X211983943Y-141128117D01*
X212247192Y-140865327D01*
X212389838Y-140521799D01*
X212390162Y-140149833D01*
X212248117Y-139806057D01*
X212215000Y-139772882D01*
X212215000Y-138095110D01*
X212275167Y-138095162D01*
X212618943Y-137953117D01*
X212652118Y-137920000D01*
X213305537Y-137920000D01*
X213337673Y-137952192D01*
X213681201Y-138094838D01*
X214053167Y-138095162D01*
X214396943Y-137953117D01*
X214660192Y-137690327D01*
X214802838Y-137346799D01*
X214803162Y-136974833D01*
X214661117Y-136631057D01*
X214398327Y-136367808D01*
X214054799Y-136225162D01*
X213682833Y-136224838D01*
X213339057Y-136366883D01*
X213305882Y-136400000D01*
X212652463Y-136400000D01*
X212620327Y-136367808D01*
X212320668Y-136243378D01*
X212389838Y-136076799D01*
X212389892Y-136015000D01*
X222957537Y-136015000D01*
X222989673Y-136047192D01*
X223333201Y-136189838D01*
X223705167Y-136190162D01*
X224048943Y-136048117D01*
X224312192Y-135785327D01*
X224454838Y-135441799D01*
X224455162Y-135069833D01*
X224320944Y-134745000D01*
X224856198Y-134745000D01*
X225378878Y-135267680D01*
X225378838Y-135313167D01*
X225520883Y-135656943D01*
X225783673Y-135920192D01*
X226127201Y-136062838D01*
X226499167Y-136063162D01*
X226842943Y-135921117D01*
X227106192Y-135658327D01*
X227248838Y-135314799D01*
X227249162Y-134942833D01*
X227107117Y-134599057D01*
X226844327Y-134335808D01*
X226500799Y-134193162D01*
X226453923Y-134193121D01*
X226243802Y-133983000D01*
X228067200Y-133983000D01*
X228098601Y-134014401D01*
X228345162Y-134179148D01*
X228636002Y-134237000D01*
X238451537Y-134237000D01*
X238483673Y-134269192D01*
X238827201Y-134411838D01*
X239199167Y-134412162D01*
X239542943Y-134270117D01*
X239806192Y-134007327D01*
X239896780Y-133789167D01*
X242269838Y-133789167D01*
X242411883Y-134132943D01*
X242674673Y-134396192D01*
X243018201Y-134538838D01*
X243065077Y-134538879D01*
X243715000Y-135188802D01*
X243715000Y-136597537D01*
X243682808Y-136629673D01*
X243540162Y-136973201D01*
X243539838Y-137345167D01*
X243681883Y-137688943D01*
X243944673Y-137952192D01*
X244288201Y-138094838D01*
X244660167Y-138095162D01*
X245003943Y-137953117D01*
X245267192Y-137690327D01*
X245409838Y-137346799D01*
X245410162Y-136974833D01*
X245268117Y-136631057D01*
X245235000Y-136597882D01*
X245235000Y-134874000D01*
X245203890Y-134717599D01*
X245177148Y-134583160D01*
X245012401Y-134336599D01*
X244140122Y-133464320D01*
X244140162Y-133418833D01*
X244083280Y-133281167D01*
X244809838Y-133281167D01*
X244951883Y-133624943D01*
X245214673Y-133888192D01*
X245558201Y-134030838D01*
X245605077Y-134030879D01*
X245620000Y-134045802D01*
X245620000Y-137359537D01*
X245587808Y-137391673D01*
X245445162Y-137735201D01*
X245444838Y-138107167D01*
X245586883Y-138450943D01*
X245849673Y-138714192D01*
X246193201Y-138856838D01*
X246565167Y-138857162D01*
X246908943Y-138715117D01*
X247172192Y-138452327D01*
X247314838Y-138108799D01*
X247315162Y-137736833D01*
X247173117Y-137393057D01*
X247140000Y-137359882D01*
X247140000Y-133731000D01*
X247082148Y-133440161D01*
X246917401Y-133193599D01*
X246680122Y-132956320D01*
X246680162Y-132910833D01*
X246538117Y-132567057D01*
X246275327Y-132303808D01*
X245931799Y-132161162D01*
X245559833Y-132160838D01*
X245216057Y-132302883D01*
X244952808Y-132565673D01*
X244810162Y-132909201D01*
X244809838Y-133281167D01*
X244083280Y-133281167D01*
X243998117Y-133075057D01*
X243735327Y-132811808D01*
X243391799Y-132669162D01*
X243019833Y-132668838D01*
X242676057Y-132810883D01*
X242412808Y-133073673D01*
X242270162Y-133417201D01*
X242269838Y-133789167D01*
X239896780Y-133789167D01*
X239948838Y-133663799D01*
X239949162Y-133291833D01*
X239807117Y-132948057D01*
X239544327Y-132684808D01*
X239200799Y-132542162D01*
X238828833Y-132541838D01*
X238485057Y-132683883D01*
X238451882Y-132717000D01*
X229671897Y-132717000D01*
X229672162Y-132412833D01*
X229530117Y-132069057D01*
X229267327Y-131805808D01*
X228923799Y-131663162D01*
X228551833Y-131662838D01*
X228208057Y-131804883D01*
X228174882Y-131838000D01*
X216097802Y-131838000D01*
X216025000Y-131765198D01*
X216025000Y-131309505D01*
X216535000Y-131410950D01*
X217084151Y-131301717D01*
X217549698Y-130990648D01*
X217805000Y-130608562D01*
X218060302Y-130990648D01*
X218525849Y-131301717D01*
X219075000Y-131410950D01*
X219624151Y-131301717D01*
X220089698Y-130990648D01*
X220345000Y-130608562D01*
X220600302Y-130990648D01*
X221065849Y-131301717D01*
X221615000Y-131410950D01*
X222164151Y-131301717D01*
X222629698Y-130990648D01*
X222885000Y-130608562D01*
X223140302Y-130990648D01*
X223605849Y-131301717D01*
X224155000Y-131410950D01*
X224704151Y-131301717D01*
X225169698Y-130990648D01*
X225425000Y-130608562D01*
X225680302Y-130990648D01*
X226145849Y-131301717D01*
X226695000Y-131410950D01*
X227244151Y-131301717D01*
X227709698Y-130990648D01*
X227965000Y-130608562D01*
X228220302Y-130990648D01*
X228685849Y-131301717D01*
X229235000Y-131410950D01*
X229784151Y-131301717D01*
X230249698Y-130990648D01*
X230505000Y-130608562D01*
X230760302Y-130990648D01*
X231225849Y-131301717D01*
X231775000Y-131410950D01*
X232324151Y-131301717D01*
X232789698Y-130990648D01*
X233045000Y-130608562D01*
X233300302Y-130990648D01*
X233765849Y-131301717D01*
X234315000Y-131410950D01*
X234864151Y-131301717D01*
X235329698Y-130990648D01*
X235582507Y-130612293D01*
X235930104Y-131044500D01*
X236423181Y-131314367D01*
X236505961Y-131331904D01*
X236728000Y-131209915D01*
X236728000Y-129667000D01*
X236708000Y-129667000D01*
X236708000Y-129413000D01*
X236728000Y-129413000D01*
X236728000Y-127870085D01*
X236505961Y-127748096D01*
X236423181Y-127765633D01*
X235930104Y-128035500D01*
X235582507Y-128467707D01*
X235329698Y-128089352D01*
X234864151Y-127778283D01*
X234315000Y-127669050D01*
X233765849Y-127778283D01*
X233300302Y-128089352D01*
X233045000Y-128471438D01*
X232789698Y-128089352D01*
X232324151Y-127778283D01*
X231775000Y-127669050D01*
X231225849Y-127778283D01*
X230760302Y-128089352D01*
X230505000Y-128471438D01*
X230249698Y-128089352D01*
X229784151Y-127778283D01*
X229235000Y-127669050D01*
X228685849Y-127778283D01*
X228220302Y-128089352D01*
X227965000Y-128471438D01*
X227709698Y-128089352D01*
X227244151Y-127778283D01*
X226695000Y-127669050D01*
X226145849Y-127778283D01*
X225680302Y-128089352D01*
X225425000Y-128471438D01*
X225169698Y-128089352D01*
X224704151Y-127778283D01*
X224155000Y-127669050D01*
X223605849Y-127778283D01*
X223140302Y-128089352D01*
X222885000Y-128471438D01*
X222629698Y-128089352D01*
X222164151Y-127778283D01*
X221615000Y-127669050D01*
X221065849Y-127778283D01*
X220600302Y-128089352D01*
X220345000Y-128471438D01*
X220089698Y-128089352D01*
X219624151Y-127778283D01*
X219075000Y-127669050D01*
X218525849Y-127778283D01*
X218060302Y-128089352D01*
X217805000Y-128471438D01*
X217549698Y-128089352D01*
X217084151Y-127778283D01*
X216535000Y-127669050D01*
X215985849Y-127778283D01*
X215674873Y-127986071D01*
X214913401Y-127224599D01*
X214754979Y-127118745D01*
X233994861Y-127118745D01*
X234068995Y-127364864D01*
X234606223Y-127557965D01*
X235176454Y-127530778D01*
X235577005Y-127364864D01*
X235651139Y-127118745D01*
X234823000Y-126290605D01*
X233994861Y-127118745D01*
X214754979Y-127118745D01*
X214666839Y-127059852D01*
X214376000Y-127002000D01*
X211751113Y-127002000D01*
X211795381Y-126972421D01*
X212873579Y-125894223D01*
X233376035Y-125894223D01*
X233403222Y-126464454D01*
X233569136Y-126865005D01*
X233815255Y-126939139D01*
X234643395Y-126111000D01*
X235002605Y-126111000D01*
X235830745Y-126939139D01*
X236076864Y-126865005D01*
X236269965Y-126327777D01*
X236242778Y-125757546D01*
X236076864Y-125356995D01*
X235830745Y-125282861D01*
X235002605Y-126111000D01*
X234643395Y-126111000D01*
X233815255Y-125282861D01*
X233569136Y-125356995D01*
X233376035Y-125894223D01*
X212873579Y-125894223D01*
X213664547Y-125103255D01*
X233994861Y-125103255D01*
X234823000Y-125931395D01*
X235651139Y-125103255D01*
X235577005Y-124857136D01*
X235039777Y-124664035D01*
X234469546Y-124691222D01*
X234068995Y-124857136D01*
X233994861Y-125103255D01*
X213664547Y-125103255D01*
X217072401Y-121695401D01*
X217237148Y-121448840D01*
X217295000Y-121158000D01*
X217295000Y-111769520D01*
X217624029Y-111549670D01*
X217805000Y-111278828D01*
X217985971Y-111549670D01*
X218472152Y-111874526D01*
X219045641Y-111988600D01*
X219104359Y-111988600D01*
X219677848Y-111874526D01*
X220164029Y-111549670D01*
X220345000Y-111278828D01*
X220525971Y-111549670D01*
X221012152Y-111874526D01*
X221585641Y-111988600D01*
X221644359Y-111988600D01*
X222217848Y-111874526D01*
X222704029Y-111549670D01*
X222885000Y-111278828D01*
X223065971Y-111549670D01*
X223552152Y-111874526D01*
X224125641Y-111988600D01*
X224184359Y-111988600D01*
X224757848Y-111874526D01*
X225244029Y-111549670D01*
X225425000Y-111278828D01*
X225605971Y-111549670D01*
X225935000Y-111769520D01*
X225935000Y-114134367D01*
X225611799Y-114000162D01*
X225239833Y-113999838D01*
X224896057Y-114141883D01*
X224632808Y-114404673D01*
X224490162Y-114748201D01*
X224490121Y-114795077D01*
X223617599Y-115667599D01*
X223452852Y-115914161D01*
X223395000Y-116205000D01*
X223395000Y-121992537D01*
X223362808Y-122024673D01*
X223220162Y-122368201D01*
X223219838Y-122740167D01*
X223361883Y-123083943D01*
X223624673Y-123347192D01*
X223968201Y-123489838D01*
X224340167Y-123490162D01*
X224683943Y-123348117D01*
X224947192Y-123085327D01*
X225089838Y-122741799D01*
X225090162Y-122369833D01*
X224948117Y-122026057D01*
X224915000Y-121992882D01*
X224915000Y-116519802D01*
X225564680Y-115870122D01*
X225610167Y-115870162D01*
X225935000Y-115735944D01*
X225935000Y-122246537D01*
X225902808Y-122278673D01*
X225760162Y-122622201D01*
X225759838Y-122994167D01*
X225901883Y-123337943D01*
X226164673Y-123601192D01*
X226508201Y-123743838D01*
X226880167Y-123744162D01*
X227030124Y-123682201D01*
X227029838Y-124010167D01*
X227171883Y-124353943D01*
X227434673Y-124617192D01*
X227778201Y-124759838D01*
X228150167Y-124760162D01*
X228493943Y-124618117D01*
X228757192Y-124355327D01*
X228899838Y-124011799D01*
X228900162Y-123639833D01*
X228758117Y-123296057D01*
X228725000Y-123262882D01*
X228725000Y-115122802D01*
X229772401Y-114075401D01*
X229937148Y-113828840D01*
X229995000Y-113538000D01*
X229995000Y-111769520D01*
X230324029Y-111549670D01*
X230505000Y-111278828D01*
X230685971Y-111549670D01*
X231015000Y-111769520D01*
X231015000Y-119700198D01*
X229730320Y-120984878D01*
X229684833Y-120984838D01*
X229341057Y-121126883D01*
X229077808Y-121389673D01*
X228935162Y-121733201D01*
X228934838Y-122105167D01*
X229076883Y-122448943D01*
X229339673Y-122712192D01*
X229683201Y-122854838D01*
X230055167Y-122855162D01*
X230398943Y-122713117D01*
X230662192Y-122450327D01*
X230804838Y-122106799D01*
X230804879Y-122059923D01*
X232285000Y-120579802D01*
X232285000Y-121357537D01*
X232252808Y-121389673D01*
X232110162Y-121733201D01*
X232109838Y-122105167D01*
X232251883Y-122448943D01*
X232514673Y-122712192D01*
X232858201Y-122854838D01*
X233230167Y-122855162D01*
X233573943Y-122713117D01*
X233837192Y-122450327D01*
X233979838Y-122106799D01*
X233980162Y-121734833D01*
X233870805Y-121470167D01*
X236046838Y-121470167D01*
X236188883Y-121813943D01*
X236451673Y-122077192D01*
X236476000Y-122087294D01*
X236476000Y-126249630D01*
X236533852Y-126540469D01*
X236698599Y-126787031D01*
X238228343Y-128316775D01*
X238127493Y-128467707D01*
X237779896Y-128035500D01*
X237286819Y-127765633D01*
X237204039Y-127748096D01*
X236982000Y-127870085D01*
X236982000Y-129413000D01*
X237002000Y-129413000D01*
X237002000Y-129667000D01*
X236982000Y-129667000D01*
X236982000Y-131209915D01*
X237204039Y-131331904D01*
X237286819Y-131314367D01*
X237779896Y-131044500D01*
X238127493Y-130612293D01*
X238380302Y-130990648D01*
X238845849Y-131301717D01*
X239395000Y-131410950D01*
X239944151Y-131301717D01*
X240409698Y-130990648D01*
X240665000Y-130608562D01*
X240920302Y-130990648D01*
X241385849Y-131301717D01*
X241935000Y-131410950D01*
X242269866Y-131344341D01*
X242269838Y-131376167D01*
X242411883Y-131719943D01*
X242674673Y-131983192D01*
X243018201Y-132125838D01*
X243390167Y-132126162D01*
X243733943Y-131984117D01*
X243997192Y-131721327D01*
X244139838Y-131377799D01*
X244139867Y-131344288D01*
X244475000Y-131410950D01*
X245024151Y-131301717D01*
X245489698Y-130990648D01*
X245745000Y-130608562D01*
X246000302Y-130990648D01*
X246465849Y-131301717D01*
X247015000Y-131410950D01*
X247564151Y-131301717D01*
X248029698Y-130990648D01*
X248285000Y-130608562D01*
X248540302Y-130990648D01*
X249005849Y-131301717D01*
X249555000Y-131410950D01*
X250104151Y-131301717D01*
X250569698Y-130990648D01*
X250880767Y-130525101D01*
X250990000Y-129975950D01*
X250990000Y-129104050D01*
X250880767Y-128554899D01*
X250569698Y-128089352D01*
X250104151Y-127778283D01*
X249555000Y-127669050D01*
X249005849Y-127778283D01*
X248540302Y-128089352D01*
X248285000Y-128471438D01*
X248029698Y-128089352D01*
X247775000Y-127919168D01*
X247775000Y-127000000D01*
X247717148Y-126709161D01*
X247552401Y-126462599D01*
X247267000Y-126177198D01*
X247267000Y-125424920D01*
X247420577Y-125564041D01*
X247808961Y-125724904D01*
X248031000Y-125602915D01*
X248031000Y-124460000D01*
X248011000Y-124460000D01*
X248011000Y-124206000D01*
X248031000Y-124206000D01*
X248031000Y-123063085D01*
X247940292Y-123013250D01*
X248051943Y-122967117D01*
X248154719Y-122864521D01*
X248329071Y-123038873D01*
X248285000Y-123063085D01*
X248285000Y-124206000D01*
X248305000Y-124206000D01*
X248305000Y-124460000D01*
X248285000Y-124460000D01*
X248285000Y-125602915D01*
X248507039Y-125724904D01*
X248895423Y-125564041D01*
X249310389Y-125188134D01*
X249549914Y-124682041D01*
X249428630Y-124460002D01*
X249593000Y-124460002D01*
X249593000Y-124423181D01*
X249786673Y-124617192D01*
X250130201Y-124759838D01*
X250502167Y-124760162D01*
X250845943Y-124618117D01*
X251109192Y-124355327D01*
X251251838Y-124011799D01*
X251252162Y-123639833D01*
X251134880Y-123355989D01*
X251206000Y-123316915D01*
X251206000Y-122174000D01*
X250062371Y-122174000D01*
X249941086Y-122396041D01*
X249989950Y-122499285D01*
X249972839Y-122487852D01*
X249916434Y-122476632D01*
X249137761Y-121697959D01*
X249941086Y-121697959D01*
X250062371Y-121920000D01*
X251206000Y-121920000D01*
X251206000Y-120777085D01*
X250983961Y-120655096D01*
X250595577Y-120815959D01*
X250180611Y-121191866D01*
X249941086Y-121697959D01*
X249137761Y-121697959D01*
X246308461Y-118868659D01*
X246537192Y-118640327D01*
X246679838Y-118296799D01*
X246680162Y-117924833D01*
X246538117Y-117581057D01*
X246275327Y-117317808D01*
X245931799Y-117175162D01*
X245884923Y-117175121D01*
X245647401Y-116937599D01*
X245400839Y-116772852D01*
X245110000Y-116715000D01*
X241227463Y-116715000D01*
X241195327Y-116682808D01*
X240851799Y-116540162D01*
X240479833Y-116539838D01*
X240136057Y-116681883D01*
X239872808Y-116944673D01*
X239763235Y-117208554D01*
X239501057Y-117316883D01*
X239237808Y-117579673D01*
X239128235Y-117843554D01*
X238866057Y-117951883D01*
X238602808Y-118214673D01*
X238493235Y-118478554D01*
X238231057Y-118586883D01*
X237967808Y-118849673D01*
X237858235Y-119113554D01*
X237596057Y-119221883D01*
X237332808Y-119484673D01*
X237223235Y-119748554D01*
X236961057Y-119856883D01*
X236697808Y-120119673D01*
X236561932Y-120446897D01*
X236453057Y-120491883D01*
X236189808Y-120754673D01*
X236047162Y-121098201D01*
X236046838Y-121470167D01*
X233870805Y-121470167D01*
X233838117Y-121391057D01*
X233805000Y-121357882D01*
X233805000Y-111892995D01*
X234285641Y-111988600D01*
X234344359Y-111988600D01*
X234917848Y-111874526D01*
X235404029Y-111549670D01*
X235604262Y-111250000D01*
X240794000Y-111250000D01*
X240794000Y-113662046D01*
X240503946Y-113855853D01*
X240182039Y-114337622D01*
X240069000Y-114905907D01*
X240069000Y-114964093D01*
X240182039Y-115532378D01*
X240503946Y-116014147D01*
X240985715Y-116336054D01*
X241554000Y-116449093D01*
X242122285Y-116336054D01*
X242604054Y-116014147D01*
X242631850Y-115972548D01*
X242640838Y-116020317D01*
X242779910Y-116236441D01*
X242992110Y-116381431D01*
X243244000Y-116432440D01*
X244944000Y-116432440D01*
X245179317Y-116388162D01*
X245395441Y-116249090D01*
X245540431Y-116036890D01*
X245591440Y-115785000D01*
X245591440Y-115695000D01*
X247396000Y-115695000D01*
X247686839Y-115637148D01*
X247784675Y-115571776D01*
X247871309Y-115607750D01*
X248442187Y-115608248D01*
X248969800Y-115390243D01*
X249373824Y-114986923D01*
X249592750Y-114459691D01*
X249593248Y-113888813D01*
X249375243Y-113361200D01*
X248971923Y-112957176D01*
X248444691Y-112738250D01*
X247873813Y-112737752D01*
X247346200Y-112955757D01*
X246942176Y-113359077D01*
X246723250Y-113886309D01*
X246722998Y-114175000D01*
X245591440Y-114175000D01*
X245591440Y-114085000D01*
X245547162Y-113849683D01*
X245408090Y-113633559D01*
X245195890Y-113488569D01*
X244944000Y-113437560D01*
X243244000Y-113437560D01*
X243008683Y-113481838D01*
X242792559Y-113620910D01*
X242647569Y-113833110D01*
X242633914Y-113900541D01*
X242604054Y-113855853D01*
X242314000Y-113662046D01*
X242314000Y-111250000D01*
X243809661Y-111250000D01*
X243958110Y-111351431D01*
X244210000Y-111402440D01*
X246010000Y-111402440D01*
X246245317Y-111358162D01*
X246461441Y-111219090D01*
X246606431Y-111006890D01*
X246610567Y-110986466D01*
X246779357Y-111155551D01*
X247343330Y-111389733D01*
X247953991Y-111390265D01*
X248518371Y-111157068D01*
X248950551Y-110725643D01*
X249184733Y-110161670D01*
X249185265Y-109551009D01*
X248952068Y-108986629D01*
X248520643Y-108554449D01*
X247956670Y-108320267D01*
X247346009Y-108319735D01*
X246781629Y-108552932D01*
X246613387Y-108720880D01*
X246613162Y-108719683D01*
X246474090Y-108503559D01*
X246261890Y-108358569D01*
X246010000Y-108307560D01*
X244210000Y-108307560D01*
X243974683Y-108351838D01*
X243758559Y-108490910D01*
X243613569Y-108703110D01*
X243562560Y-108955000D01*
X243562560Y-109730000D01*
X235604262Y-109730000D01*
X235404029Y-109430330D01*
X235089248Y-109220000D01*
X235404029Y-109009670D01*
X235728885Y-108523489D01*
X235842959Y-107950000D01*
X235728885Y-107376511D01*
X235404029Y-106890330D01*
X234917848Y-106565474D01*
X234344359Y-106451400D01*
X234285641Y-106451400D01*
X233712152Y-106565474D01*
X233225971Y-106890330D01*
X233045000Y-107161172D01*
X232864029Y-106890330D01*
X232377848Y-106565474D01*
X231804359Y-106451400D01*
X231745641Y-106451400D01*
X231172152Y-106565474D01*
X230685971Y-106890330D01*
X230505000Y-107161172D01*
X230324029Y-106890330D01*
X229837848Y-106565474D01*
X229264359Y-106451400D01*
X229205641Y-106451400D01*
X228632152Y-106565474D01*
X228145971Y-106890330D01*
X227965000Y-107161172D01*
X227784029Y-106890330D01*
X227297848Y-106565474D01*
X226724359Y-106451400D01*
X226665641Y-106451400D01*
X226092152Y-106565474D01*
X225605971Y-106890330D01*
X225425000Y-107161172D01*
X225244029Y-106890330D01*
X224757848Y-106565474D01*
X224184359Y-106451400D01*
X224125641Y-106451400D01*
X223595252Y-106556901D01*
X223587148Y-106516161D01*
X223587148Y-106516160D01*
X223422401Y-106269599D01*
X221898401Y-104745599D01*
X221651839Y-104580852D01*
X221361000Y-104523000D01*
X181991000Y-104523000D01*
X181700161Y-104580852D01*
X181453599Y-104745599D01*
X180914198Y-105285000D01*
X180282995Y-105285000D01*
X180112811Y-105030302D01*
X179647264Y-104719233D01*
X179098113Y-104610000D01*
X179041887Y-104610000D01*
X178492736Y-104719233D01*
X178027189Y-105030302D01*
X177716120Y-105495849D01*
X177606887Y-106045000D01*
X177716120Y-106594151D01*
X178027189Y-107059698D01*
X178492736Y-107370767D01*
X179041887Y-107480000D01*
X179098113Y-107480000D01*
X179647264Y-107370767D01*
X180112811Y-107059698D01*
X180282995Y-106805000D01*
X181229000Y-106805000D01*
X181485000Y-106754078D01*
X181485000Y-108905198D01*
X179375102Y-111015096D01*
X179098113Y-110960000D01*
X179041887Y-110960000D01*
X178492736Y-111069233D01*
X178027189Y-111380302D01*
X177716120Y-111845849D01*
X177606887Y-112395000D01*
X177716120Y-112944151D01*
X178027189Y-113409698D01*
X178492736Y-113720767D01*
X179041887Y-113830000D01*
X179098113Y-113830000D01*
X179647264Y-113720767D01*
X180112811Y-113409698D01*
X180423880Y-112944151D01*
X180533113Y-112395000D01*
X180468688Y-112071114D01*
X182578000Y-109961802D01*
X182578000Y-110281487D01*
X182053244Y-110806244D01*
X181877658Y-111069026D01*
X181816000Y-111379000D01*
X181816000Y-114345487D01*
X181274488Y-114887000D01*
X176868070Y-114887000D01*
X176840162Y-114738683D01*
X176701090Y-114522559D01*
X176488890Y-114377569D01*
X176237000Y-114326560D01*
X174537000Y-114326560D01*
X174301683Y-114370838D01*
X174085559Y-114509910D01*
X173940569Y-114722110D01*
X173918699Y-114830107D01*
X173613924Y-114552355D01*
X173203890Y-114382524D01*
X172974000Y-114503845D01*
X172974000Y-115697000D01*
X172994000Y-115697000D01*
X172994000Y-115951000D01*
X172974000Y-115951000D01*
X172974000Y-117144155D01*
X173203890Y-117265476D01*
X173613924Y-117095645D01*
X173916937Y-116819499D01*
X173933838Y-116909317D01*
X174072910Y-117125441D01*
X174285110Y-117270431D01*
X174537000Y-117321440D01*
X176237000Y-117321440D01*
X176472317Y-117277162D01*
X176688441Y-117138090D01*
X176833431Y-116925890D01*
X176884440Y-116674000D01*
X176884440Y-116574835D01*
X176896974Y-116572342D01*
X176994765Y-116507000D01*
X181610000Y-116507000D01*
X181919974Y-116445342D01*
X182182756Y-116269756D01*
X183198757Y-115253756D01*
X183358956Y-115014000D01*
X183374342Y-114990974D01*
X183436000Y-114681000D01*
X183436000Y-111714512D01*
X183960757Y-111189756D01*
X184136343Y-110926973D01*
X184176841Y-110723371D01*
X184198000Y-110617000D01*
X184198000Y-107421441D01*
X184322838Y-107120799D01*
X184323002Y-106932000D01*
X184938128Y-106932000D01*
X184641115Y-107376511D01*
X184527041Y-107950000D01*
X184641115Y-108523489D01*
X184965971Y-109009670D01*
X184979642Y-109018805D01*
X184956083Y-109023238D01*
X184739959Y-109162310D01*
X184594969Y-109374510D01*
X184543960Y-109626400D01*
X184543960Y-111353600D01*
X184588238Y-111588917D01*
X184727310Y-111805041D01*
X184786288Y-111845339D01*
X184717852Y-111947761D01*
X184660000Y-112238600D01*
X184660000Y-118593204D01*
X184522745Y-118551861D01*
X183694605Y-119380000D01*
X184522745Y-120208139D01*
X184660000Y-120166796D01*
X184660000Y-122839168D01*
X184405302Y-123009352D01*
X184150000Y-123391438D01*
X183894698Y-123009352D01*
X183429151Y-122698283D01*
X182880000Y-122589050D01*
X182330849Y-122698283D01*
X181865302Y-123009352D01*
X181612493Y-123387707D01*
X181264896Y-122955500D01*
X180771819Y-122685633D01*
X180689039Y-122668096D01*
X180467000Y-122790085D01*
X180467000Y-124333000D01*
X180487000Y-124333000D01*
X180487000Y-124587000D01*
X180467000Y-124587000D01*
X180467000Y-126129915D01*
X180689039Y-126251904D01*
X180771819Y-126234367D01*
X181264896Y-125964500D01*
X181612493Y-125532293D01*
X181865302Y-125910648D01*
X182120000Y-126080832D01*
X182120000Y-129159000D01*
X182177852Y-129449839D01*
X182342599Y-129696401D01*
X182859355Y-130213157D01*
X182330849Y-130318283D01*
X181865302Y-130629352D01*
X181767749Y-130775350D01*
X181743162Y-130644683D01*
X181604090Y-130428559D01*
X181391890Y-130283569D01*
X181140000Y-130232560D01*
X179540000Y-130232560D01*
X179304683Y-130276838D01*
X179088559Y-130415910D01*
X178943569Y-130628110D01*
X178941000Y-130640796D01*
X178941000Y-129848463D01*
X178973192Y-129816327D01*
X179115838Y-129472799D01*
X179116162Y-129100833D01*
X178974117Y-128757057D01*
X178711327Y-128493808D01*
X178367799Y-128351162D01*
X177995833Y-128350838D01*
X177652057Y-128492883D01*
X177388808Y-128755673D01*
X177246162Y-129099201D01*
X177246090Y-129181288D01*
X177163000Y-129098198D01*
X177163000Y-129086463D01*
X177195192Y-129054327D01*
X177337838Y-128710799D01*
X177338162Y-128338833D01*
X177196117Y-127995057D01*
X176933327Y-127731808D01*
X176589799Y-127589162D01*
X176217833Y-127588838D01*
X176020000Y-127670581D01*
X176020000Y-126365000D01*
X175962148Y-126074161D01*
X175797401Y-125827599D01*
X174734904Y-124765102D01*
X174770330Y-124587000D01*
X178905000Y-124587000D01*
X178905000Y-124987000D01*
X179062834Y-125526483D01*
X179415104Y-125964500D01*
X179908181Y-126234367D01*
X179990961Y-126251904D01*
X180213000Y-126129915D01*
X180213000Y-124587000D01*
X178905000Y-124587000D01*
X174770330Y-124587000D01*
X174790000Y-124488113D01*
X174790000Y-124431887D01*
X174734904Y-124154898D01*
X174956802Y-123933000D01*
X178905000Y-123933000D01*
X178905000Y-124333000D01*
X180213000Y-124333000D01*
X180213000Y-122790085D01*
X179990961Y-122668096D01*
X179908181Y-122685633D01*
X179415104Y-122955500D01*
X179062834Y-123393517D01*
X178905000Y-123933000D01*
X174956802Y-123933000D01*
X176432401Y-122457401D01*
X176597148Y-122210840D01*
X176617843Y-122106799D01*
X176655000Y-121920000D01*
X176655000Y-120583667D01*
X176937811Y-120394698D01*
X177008150Y-120289428D01*
X177031838Y-120415317D01*
X177170910Y-120631441D01*
X177383110Y-120776431D01*
X177635000Y-120827440D01*
X179235000Y-120827440D01*
X179470317Y-120783162D01*
X179686441Y-120644090D01*
X179831431Y-120431890D01*
X179840370Y-120387745D01*
X182686861Y-120387745D01*
X182760995Y-120633864D01*
X183298223Y-120826965D01*
X183868454Y-120799778D01*
X184269005Y-120633864D01*
X184343139Y-120387745D01*
X183515000Y-119559605D01*
X182686861Y-120387745D01*
X179840370Y-120387745D01*
X179882440Y-120180000D01*
X179882440Y-119163223D01*
X182068035Y-119163223D01*
X182095222Y-119733454D01*
X182261136Y-120134005D01*
X182507255Y-120208139D01*
X183335395Y-119380000D01*
X182507255Y-118551861D01*
X182261136Y-118625995D01*
X182068035Y-119163223D01*
X179882440Y-119163223D01*
X179882440Y-118580000D01*
X179843351Y-118372255D01*
X182686861Y-118372255D01*
X183515000Y-119200395D01*
X184343139Y-118372255D01*
X184269005Y-118126136D01*
X183731777Y-117933035D01*
X183161546Y-117960222D01*
X182760995Y-118126136D01*
X182686861Y-118372255D01*
X179843351Y-118372255D01*
X179838162Y-118344683D01*
X179699090Y-118128559D01*
X179486890Y-117983569D01*
X179235000Y-117932560D01*
X177635000Y-117932560D01*
X177399683Y-117976838D01*
X177183559Y-118115910D01*
X177038569Y-118328110D01*
X177009355Y-118472375D01*
X176937811Y-118365302D01*
X176472264Y-118054233D01*
X175923113Y-117945000D01*
X175866887Y-117945000D01*
X175317736Y-118054233D01*
X174852189Y-118365302D01*
X174625000Y-118705314D01*
X174397811Y-118365302D01*
X173932264Y-118054233D01*
X173383113Y-117945000D01*
X173326887Y-117945000D01*
X172777736Y-118054233D01*
X172312189Y-118365302D01*
X172085000Y-118705314D01*
X171857811Y-118365302D01*
X171392264Y-118054233D01*
X170843113Y-117945000D01*
X170786887Y-117945000D01*
X170237736Y-118054233D01*
X169772189Y-118365302D01*
X169545000Y-118705314D01*
X169317811Y-118365302D01*
X168852264Y-118054233D01*
X168303113Y-117945000D01*
X168246887Y-117945000D01*
X167697736Y-118054233D01*
X167232189Y-118365302D01*
X167005000Y-118705314D01*
X166777811Y-118365302D01*
X166312264Y-118054233D01*
X165763113Y-117945000D01*
X165706887Y-117945000D01*
X165157736Y-118054233D01*
X164692189Y-118365302D01*
X164465000Y-118705314D01*
X164237811Y-118365302D01*
X163772264Y-118054233D01*
X163223113Y-117945000D01*
X163166887Y-117945000D01*
X162617736Y-118054233D01*
X162152189Y-118365302D01*
X161841120Y-118830849D01*
X161731887Y-119380000D01*
X161841120Y-119929151D01*
X162152189Y-120394698D01*
X162202952Y-120428616D01*
X161641599Y-120989969D01*
X161476852Y-121236531D01*
X161419000Y-121527370D01*
X161419000Y-122621198D01*
X160978886Y-123061312D01*
X160655000Y-122996887D01*
X160105849Y-123106120D01*
X159640302Y-123417189D01*
X159329233Y-123882736D01*
X159220000Y-124431887D01*
X154608600Y-124431887D01*
X154608600Y-120686219D01*
X156692413Y-120686219D01*
X157031955Y-121507972D01*
X157660121Y-122137236D01*
X158481281Y-122478211D01*
X159370419Y-122478987D01*
X160192172Y-122139445D01*
X160821436Y-121511279D01*
X161162411Y-120690119D01*
X161163187Y-119800981D01*
X160823645Y-118979228D01*
X160195479Y-118349964D01*
X159374319Y-118008989D01*
X158485181Y-118008213D01*
X157663428Y-118347755D01*
X157034164Y-118975921D01*
X156693189Y-119797081D01*
X156692413Y-120686219D01*
X154608600Y-120686219D01*
X154608600Y-118810492D01*
X157238199Y-116180892D01*
X171405514Y-116180892D01*
X171651817Y-116705358D01*
X172080076Y-117095645D01*
X172490110Y-117265476D01*
X172720000Y-117144155D01*
X172720000Y-115951000D01*
X171526181Y-115951000D01*
X171405514Y-116180892D01*
X157238199Y-116180892D01*
X157951983Y-115467108D01*
X171405514Y-115467108D01*
X171526181Y-115697000D01*
X172720000Y-115697000D01*
X172720000Y-114503845D01*
X172490110Y-114382524D01*
X172080076Y-114552355D01*
X171651817Y-114942642D01*
X171405514Y-115467108D01*
X157951983Y-115467108D01*
X160739904Y-112679187D01*
X167474752Y-112679187D01*
X167692757Y-113206800D01*
X168096077Y-113610824D01*
X168623309Y-113829750D01*
X169194187Y-113830248D01*
X169721800Y-113612243D01*
X170125824Y-113208923D01*
X170344750Y-112681691D01*
X170345248Y-112110813D01*
X170127243Y-111583200D01*
X169723923Y-111179176D01*
X169196691Y-110960250D01*
X168625813Y-110959752D01*
X168098200Y-111177757D01*
X167694176Y-111581077D01*
X167475250Y-112108309D01*
X167474752Y-112679187D01*
X160739904Y-112679187D01*
X163914904Y-109504187D01*
X167474752Y-109504187D01*
X167692757Y-110031800D01*
X168096077Y-110435824D01*
X168623309Y-110654750D01*
X169194187Y-110655248D01*
X169721800Y-110437243D01*
X170125824Y-110033923D01*
X170344750Y-109506691D01*
X170345000Y-109220000D01*
X177606887Y-109220000D01*
X177716120Y-109769151D01*
X178027189Y-110234698D01*
X178492736Y-110545767D01*
X179041887Y-110655000D01*
X179098113Y-110655000D01*
X179647264Y-110545767D01*
X180112811Y-110234698D01*
X180423880Y-109769151D01*
X180533113Y-109220000D01*
X180423880Y-108670849D01*
X180112811Y-108205302D01*
X179647264Y-107894233D01*
X179098113Y-107785000D01*
X179041887Y-107785000D01*
X178492736Y-107894233D01*
X178027189Y-108205302D01*
X177716120Y-108670849D01*
X177606887Y-109220000D01*
X170345000Y-109220000D01*
X170345248Y-108935813D01*
X170127243Y-108408200D01*
X169723923Y-108004176D01*
X169196691Y-107785250D01*
X168625813Y-107784752D01*
X168098200Y-108002757D01*
X167694176Y-108406077D01*
X167475250Y-108933309D01*
X167474752Y-109504187D01*
X163914904Y-109504187D01*
X166366346Y-107052745D01*
X168081861Y-107052745D01*
X168155995Y-107298864D01*
X168693223Y-107491965D01*
X169263454Y-107464778D01*
X169664005Y-107298864D01*
X169738139Y-107052745D01*
X168910000Y-106224605D01*
X168081861Y-107052745D01*
X166366346Y-107052745D01*
X167468852Y-105950239D01*
X167490222Y-106398454D01*
X167656136Y-106799005D01*
X167902255Y-106873139D01*
X168730395Y-106045000D01*
X169089605Y-106045000D01*
X169917745Y-106873139D01*
X170163864Y-106799005D01*
X170356965Y-106261777D01*
X170329778Y-105691546D01*
X170163864Y-105290995D01*
X169917745Y-105216861D01*
X169089605Y-106045000D01*
X168730395Y-106045000D01*
X168716253Y-106030858D01*
X168895858Y-105851253D01*
X168910000Y-105865395D01*
X169738139Y-105037255D01*
X169664005Y-104791136D01*
X169126777Y-104598035D01*
X168805750Y-104613341D01*
X169204091Y-104215000D01*
X247748469Y-104215000D01*
X249523673Y-104568110D01*
M02*
