G04 #@! TF.FileFunction,Legend,Bot*
%FSLAX46Y46*%
G04 Gerber Fmt 4.6, Leading zero omitted, Abs format (unit mm)*
G04 Created by KiCad (PCBNEW 4.0.5) date 09/23/17 21:45:55*
%MOMM*%
%LPD*%
G01*
G04 APERTURE LIST*
%ADD10C,0.100000*%
%ADD11C,0.300000*%
G04 APERTURE END LIST*
D10*
D11*
X251241285Y-149395571D02*
X251741285Y-148681286D01*
X252098428Y-149395571D02*
X252098428Y-147895571D01*
X251527000Y-147895571D01*
X251384142Y-147967000D01*
X251312714Y-148038429D01*
X251241285Y-148181286D01*
X251241285Y-148395571D01*
X251312714Y-148538429D01*
X251384142Y-148609857D01*
X251527000Y-148681286D01*
X252098428Y-148681286D01*
X250027000Y-149324143D02*
X250169857Y-149395571D01*
X250455571Y-149395571D01*
X250598428Y-149324143D01*
X250669857Y-149181286D01*
X250669857Y-148609857D01*
X250598428Y-148467000D01*
X250455571Y-148395571D01*
X250169857Y-148395571D01*
X250027000Y-148467000D01*
X249955571Y-148609857D01*
X249955571Y-148752714D01*
X250669857Y-148895571D01*
X249455571Y-148395571D02*
X249098428Y-149395571D01*
X248741286Y-148395571D01*
X248169857Y-149252714D02*
X248098429Y-149324143D01*
X248169857Y-149395571D01*
X248241286Y-149324143D01*
X248169857Y-149252714D01*
X248169857Y-149395571D01*
X245527000Y-149395571D02*
X246384143Y-149395571D01*
X245955571Y-149395571D02*
X245955571Y-147895571D01*
X246098428Y-148109857D01*
X246241286Y-148252714D01*
X246384143Y-148324143D01*
X244884143Y-149252714D02*
X244812715Y-149324143D01*
X244884143Y-149395571D01*
X244955572Y-149324143D01*
X244884143Y-149252714D01*
X244884143Y-149395571D01*
X243384143Y-149395571D02*
X244241286Y-149395571D01*
X243812714Y-149395571D02*
X243812714Y-147895571D01*
X243955571Y-148109857D01*
X244098429Y-148252714D01*
X244241286Y-148324143D01*
M02*
