G04 #@! TF.FileFunction,Copper,L2,Bot,Signal*
%FSLAX46Y46*%
G04 Gerber Fmt 4.6, Leading zero omitted, Abs format (unit mm)*
G04 Created by KiCad (PCBNEW 4.0.6) date 08/29/17 13:01:26*
%MOMM*%
%LPD*%
G01*
G04 APERTURE LIST*
%ADD10C,0.100000*%
%ADD11R,2.400000X1.600000*%
%ADD12O,2.400000X1.600000*%
%ADD13R,1.700000X1.700000*%
%ADD14O,1.700000X1.700000*%
%ADD15C,1.600000*%
%ADD16R,1.600000X1.600000*%
%ADD17O,1.600000X1.600000*%
%ADD18R,1.600000X2.400000*%
%ADD19O,1.600000X2.400000*%
%ADD20R,2.500000X2.500000*%
%ADD21C,2.500000*%
%ADD22C,0.600000*%
%ADD23C,0.350000*%
%ADD24C,0.250000*%
%ADD25C,0.254000*%
G04 APERTURE END LIST*
D10*
D11*
X152400000Y-83820000D03*
D12*
X167640000Y-116840000D03*
X152400000Y-86360000D03*
X167640000Y-114300000D03*
X152400000Y-88900000D03*
X167640000Y-111760000D03*
X152400000Y-91440000D03*
X167640000Y-109220000D03*
X152400000Y-93980000D03*
X167640000Y-106680000D03*
X152400000Y-96520000D03*
X167640000Y-104140000D03*
X152400000Y-99060000D03*
X167640000Y-101600000D03*
X152400000Y-101600000D03*
X167640000Y-99060000D03*
X152400000Y-104140000D03*
X167640000Y-96520000D03*
X152400000Y-106680000D03*
X167640000Y-93980000D03*
X152400000Y-109220000D03*
X167640000Y-91440000D03*
X152400000Y-111760000D03*
X167640000Y-88900000D03*
X152400000Y-114300000D03*
X167640000Y-86360000D03*
X152400000Y-116840000D03*
X167640000Y-83820000D03*
D13*
X98425000Y-78740000D03*
D14*
X100965000Y-78740000D03*
X103505000Y-78740000D03*
X106045000Y-78740000D03*
X108585000Y-78740000D03*
X111125000Y-78740000D03*
X113665000Y-78740000D03*
X116205000Y-78740000D03*
X118745000Y-78740000D03*
X121285000Y-78740000D03*
X123825000Y-78740000D03*
D15*
X136525000Y-104655000D03*
X136525000Y-99655000D03*
D13*
X142240000Y-108585000D03*
D14*
X142240000Y-111125000D03*
X142240000Y-113665000D03*
D16*
X92710000Y-91440000D03*
D17*
X95250000Y-91440000D03*
X97790000Y-91440000D03*
X100330000Y-91440000D03*
X102870000Y-91440000D03*
X105410000Y-91440000D03*
D16*
X95250000Y-103505000D03*
D17*
X105410000Y-95885000D03*
X97790000Y-103505000D03*
X102870000Y-95885000D03*
X100330000Y-103505000D03*
X100330000Y-95885000D03*
X102870000Y-103505000D03*
X97790000Y-95885000D03*
X105410000Y-103505000D03*
X95250000Y-95885000D03*
D18*
X116840000Y-115570000D03*
D19*
X132080000Y-107950000D03*
X119380000Y-115570000D03*
X129540000Y-107950000D03*
X121920000Y-115570000D03*
X127000000Y-107950000D03*
X124460000Y-115570000D03*
X124460000Y-107950000D03*
X127000000Y-115570000D03*
X121920000Y-107950000D03*
X129540000Y-115570000D03*
X119380000Y-107950000D03*
X132080000Y-115570000D03*
X116840000Y-107950000D03*
D18*
X85090000Y-115570000D03*
D19*
X107950000Y-107950000D03*
X87630000Y-115570000D03*
X105410000Y-107950000D03*
X90170000Y-115570000D03*
X102870000Y-107950000D03*
X92710000Y-115570000D03*
X100330000Y-107950000D03*
X95250000Y-115570000D03*
X97790000Y-107950000D03*
X97790000Y-115570000D03*
X95250000Y-107950000D03*
X100330000Y-115570000D03*
X92710000Y-107950000D03*
X102870000Y-115570000D03*
X90170000Y-107950000D03*
X105410000Y-115570000D03*
X87630000Y-107950000D03*
X107950000Y-115570000D03*
X85090000Y-107950000D03*
D20*
X123190000Y-102235000D03*
D21*
X123190000Y-94615000D03*
X130810000Y-94615000D03*
X130810000Y-102235000D03*
D15*
X147955000Y-114220000D03*
X147955000Y-109220000D03*
X136525000Y-115450000D03*
X136525000Y-110450000D03*
X112395000Y-108070000D03*
X112395000Y-113070000D03*
X118110000Y-94695000D03*
X118110000Y-99695000D03*
D13*
X81280000Y-125095000D03*
D14*
X83820000Y-125095000D03*
X86360000Y-125095000D03*
X88900000Y-125095000D03*
X91440000Y-125095000D03*
X93980000Y-125095000D03*
X96520000Y-125095000D03*
X99060000Y-125095000D03*
X101600000Y-125095000D03*
X104140000Y-125095000D03*
X106680000Y-125095000D03*
X109220000Y-125095000D03*
X111760000Y-125095000D03*
X114300000Y-125095000D03*
X116840000Y-125095000D03*
X119380000Y-125095000D03*
X121920000Y-125095000D03*
X124460000Y-125095000D03*
X127000000Y-125095000D03*
X129540000Y-125095000D03*
X132080000Y-125095000D03*
X134620000Y-125095000D03*
X137160000Y-125095000D03*
X139700000Y-125095000D03*
X142240000Y-125095000D03*
X144780000Y-125095000D03*
X147320000Y-125095000D03*
X149860000Y-125095000D03*
X152400000Y-125095000D03*
X154940000Y-125095000D03*
X157480000Y-125095000D03*
X160020000Y-125095000D03*
X162560000Y-125095000D03*
X165100000Y-125095000D03*
X167640000Y-125095000D03*
X170180000Y-125095000D03*
X172720000Y-125095000D03*
X175260000Y-125095000D03*
X177800000Y-125095000D03*
D16*
X144780000Y-103425000D03*
D15*
X144780000Y-98425000D03*
D22*
X106045000Y-118110000D03*
X107315000Y-118110000D03*
X133985000Y-118110000D03*
X140335000Y-118110000D03*
X143510000Y-122555000D03*
X143510000Y-118110000D03*
X134620000Y-120650000D03*
X134620000Y-101600000D03*
X132715000Y-85725000D03*
X139065000Y-88265000D03*
X135890000Y-85090000D03*
X146050000Y-92075000D03*
X144780000Y-90805000D03*
X141605000Y-87630000D03*
X139065000Y-85090000D03*
X106680000Y-120650000D03*
X134620000Y-118745000D03*
X139700000Y-118745000D03*
X154940000Y-118745000D03*
X170180000Y-116840000D03*
X170180000Y-110490000D03*
X130810000Y-118745000D03*
X140335000Y-119380000D03*
X135255000Y-119380000D03*
X154305000Y-119380000D03*
X171450000Y-116840000D03*
X171450000Y-110490000D03*
X131445000Y-119380000D03*
X135890000Y-120015000D03*
X139700000Y-120015000D03*
X153670000Y-120015000D03*
X172720000Y-116840000D03*
X172720000Y-110490000D03*
X132080000Y-120015000D03*
X133985000Y-121285000D03*
X139700000Y-121285000D03*
X120650000Y-121285000D03*
X127635000Y-121285000D03*
X147320000Y-120650000D03*
X149860000Y-120650000D03*
X152400000Y-120650000D03*
X156845000Y-111125000D03*
X160655000Y-111125000D03*
X160655000Y-107315000D03*
X161925000Y-111125000D03*
X161925000Y-105410000D03*
X163830000Y-111125000D03*
X163830000Y-102870000D03*
X99060000Y-102235000D03*
X100330000Y-105410000D03*
X99060000Y-99695000D03*
X93980000Y-110490000D03*
X95885000Y-110490000D03*
X100965000Y-110490000D03*
X139065000Y-106680000D03*
X123825000Y-111125000D03*
X102870000Y-111125000D03*
X92710000Y-105410000D03*
X95250000Y-105410000D03*
X99060000Y-109220000D03*
X105410000Y-113665000D03*
X125730000Y-110490000D03*
X128270000Y-100330000D03*
X133985000Y-96520000D03*
X141605000Y-96520000D03*
X156210000Y-103505000D03*
D23*
X124460000Y-125095000D02*
X123825000Y-125095000D01*
X123825000Y-125095000D02*
X123190000Y-124460000D01*
X124460000Y-125095000D02*
X125095000Y-125095000D01*
X125095000Y-125095000D02*
X125730000Y-124460000D01*
D24*
X124460000Y-118110000D02*
X107315000Y-118110000D01*
X127000000Y-120650000D02*
X124460000Y-118110000D01*
X127000000Y-125095000D02*
X127000000Y-120650000D01*
X90170000Y-116840000D02*
X90170000Y-115570000D01*
X91440000Y-118110000D02*
X90170000Y-116840000D01*
X106045000Y-118110000D02*
X91440000Y-118110000D01*
X130810000Y-118110000D02*
X129540000Y-116840000D01*
X129540000Y-115570000D02*
X129540000Y-116840000D01*
X139700000Y-123190000D02*
X139700000Y-125095000D01*
X140335000Y-122555000D02*
X139700000Y-123190000D01*
X143510000Y-122555000D02*
X140335000Y-122555000D01*
X130810000Y-118110000D02*
X133985000Y-118110000D01*
X140335000Y-118110000D02*
X143510000Y-118110000D01*
X119380000Y-115570000D02*
X119380000Y-117475000D01*
X128270000Y-120650000D02*
X134620000Y-120650000D01*
X125095000Y-117475000D02*
X128270000Y-120650000D01*
X119380000Y-117475000D02*
X125095000Y-117475000D01*
D23*
X134620000Y-107315000D02*
X134620000Y-101600000D01*
X134620000Y-107315000D02*
X135890000Y-108585000D01*
X142240000Y-108585000D02*
X135890000Y-108585000D01*
D24*
X152400000Y-86360000D02*
X131445000Y-86360000D01*
X131445000Y-86360000D02*
X130810000Y-85725000D01*
X130810000Y-85725000D02*
X120015000Y-85725000D01*
X120015000Y-85725000D02*
X116205000Y-81915000D01*
X116205000Y-81915000D02*
X116205000Y-78740000D01*
X132715000Y-85725000D02*
X132080000Y-85090000D01*
X132080000Y-85090000D02*
X120650000Y-85090000D01*
X120650000Y-85090000D02*
X118745000Y-83185000D01*
X118745000Y-83185000D02*
X118745000Y-78740000D01*
X139065000Y-88265000D02*
X142240000Y-91440000D01*
X142240000Y-91440000D02*
X152400000Y-91440000D01*
X134620000Y-84455000D02*
X135255000Y-84455000D01*
X135255000Y-84455000D02*
X135890000Y-85090000D01*
X122555000Y-84455000D02*
X134620000Y-84455000D01*
X121285000Y-83185000D02*
X122555000Y-84455000D01*
X121285000Y-79942081D02*
X121285000Y-83185000D01*
X121285000Y-78740000D02*
X121285000Y-79942081D01*
X147955000Y-93980000D02*
X152400000Y-93980000D01*
X146050000Y-92075000D02*
X147955000Y-93980000D01*
X141605000Y-87630000D02*
X144780000Y-90805000D01*
X125095000Y-83820000D02*
X137795000Y-83820000D01*
X137795000Y-83820000D02*
X139065000Y-85090000D01*
X123825000Y-82550000D02*
X125095000Y-83820000D01*
X123825000Y-78740000D02*
X123825000Y-82550000D01*
X152400000Y-93980000D02*
X150950000Y-93980000D01*
X106680000Y-120650000D02*
X106680000Y-113665000D01*
X106680000Y-113665000D02*
X102870000Y-109855000D01*
X102870000Y-109855000D02*
X102870000Y-107950000D01*
X154940000Y-118745000D02*
X153670000Y-118745000D01*
X153670000Y-118745000D02*
X139700000Y-118745000D01*
X170180000Y-116840000D02*
X170180000Y-110490000D01*
X134620000Y-118745000D02*
X130810000Y-118745000D01*
X134620000Y-119380000D02*
X135255000Y-119380000D01*
X153035000Y-119380000D02*
X140335000Y-119380000D01*
X154305000Y-119380000D02*
X153035000Y-119380000D01*
X171450000Y-116840000D02*
X171450000Y-110490000D01*
X134620000Y-119380000D02*
X131445000Y-119380000D01*
X153670000Y-120015000D02*
X139700000Y-120015000D01*
X172720000Y-116840000D02*
X172720000Y-110490000D01*
X135890000Y-120015000D02*
X132080000Y-120015000D01*
X144780000Y-125095000D02*
X144780000Y-121920000D01*
X144780000Y-121920000D02*
X144145000Y-121285000D01*
X144145000Y-121285000D02*
X139700000Y-121285000D01*
X133985000Y-121285000D02*
X127635000Y-121285000D01*
X85090000Y-120650000D02*
X85090000Y-115570000D01*
X85725000Y-121285000D02*
X85090000Y-120650000D01*
X107950000Y-121285000D02*
X85725000Y-121285000D01*
X110490000Y-118745000D02*
X107950000Y-121285000D01*
X118110000Y-118745000D02*
X110490000Y-118745000D01*
X120650000Y-121285000D02*
X118110000Y-118745000D01*
X147320000Y-120650000D02*
X147320000Y-125095000D01*
X149860000Y-120650000D02*
X149860000Y-125095000D01*
X152400000Y-120650000D02*
X152400000Y-125095000D01*
X156845000Y-118110000D02*
X154940000Y-120015000D01*
X154940000Y-120015000D02*
X154940000Y-125095000D01*
X156845000Y-111125000D02*
X156845000Y-118110000D01*
X158115000Y-120650000D02*
X157480000Y-121285000D01*
X157480000Y-121285000D02*
X157480000Y-125095000D01*
X158115000Y-111125000D02*
X158115000Y-120650000D01*
X160020000Y-109220000D02*
X158115000Y-111125000D01*
X167640000Y-109220000D02*
X160020000Y-109220000D01*
X160655000Y-120015000D02*
X160020000Y-120650000D01*
X160020000Y-120650000D02*
X160020000Y-125095000D01*
X160655000Y-111125000D02*
X160655000Y-120015000D01*
X167640000Y-106680000D02*
X161290000Y-106680000D01*
X161290000Y-106680000D02*
X160655000Y-107315000D01*
X161925000Y-119380000D02*
X162560000Y-120015000D01*
X162560000Y-120015000D02*
X162560000Y-125095000D01*
X161925000Y-111125000D02*
X161925000Y-119380000D01*
X167640000Y-104140000D02*
X163195000Y-104140000D01*
X163195000Y-104140000D02*
X161925000Y-105410000D01*
X163830000Y-119380000D02*
X165100000Y-120650000D01*
X165100000Y-120650000D02*
X165100000Y-125095000D01*
X163830000Y-111125000D02*
X163830000Y-119380000D01*
X167640000Y-101600000D02*
X165100000Y-101600000D01*
X165100000Y-101600000D02*
X163830000Y-102870000D01*
X95394990Y-95885000D02*
X93980000Y-97299990D01*
X93980000Y-97299990D02*
X93980000Y-109510002D01*
X95250000Y-110780002D02*
X95250000Y-111125000D01*
X93980000Y-109510002D02*
X95250000Y-110780002D01*
X95250000Y-111125000D02*
X97790000Y-113665000D01*
X105410000Y-115170000D02*
X105410000Y-115570000D01*
X97790000Y-113665000D02*
X103905000Y-113665000D01*
X103905000Y-113665000D02*
X105410000Y-115170000D01*
X95250000Y-91440000D02*
X95250000Y-95885000D01*
X97790000Y-95885000D02*
X97790000Y-100965000D01*
X97790000Y-100965000D02*
X99060000Y-102235000D01*
X100330000Y-105410000D02*
X103270000Y-105410000D01*
X103270000Y-105410000D02*
X105410000Y-107550000D01*
X105410000Y-107550000D02*
X105410000Y-107950000D01*
X97790000Y-91440000D02*
X97790000Y-92571370D01*
X97790000Y-92571370D02*
X97790000Y-95885000D01*
X100330000Y-91440000D02*
X100330000Y-92571370D01*
X100330000Y-92571370D02*
X100330000Y-95885000D01*
X102870000Y-95885000D02*
X99060000Y-99695000D01*
X102870000Y-91440000D02*
X102870000Y-95885000D01*
X93980000Y-110490000D02*
X92310000Y-110490000D01*
X92310000Y-110490000D02*
X90170000Y-108350000D01*
X90170000Y-108350000D02*
X90170000Y-107950000D01*
X100965000Y-110490000D02*
X95885000Y-110490000D01*
X105410000Y-91440000D02*
X105410000Y-95885000D01*
X139065000Y-106680000D02*
X149460000Y-106680000D01*
X149460000Y-106680000D02*
X152000000Y-104140000D01*
X152000000Y-104140000D02*
X152400000Y-104140000D01*
X116840000Y-115570000D02*
X116840000Y-115170000D01*
X116840000Y-115170000D02*
X120885000Y-111125000D01*
X120885000Y-111125000D02*
X123825000Y-111125000D01*
X87630000Y-106045000D02*
X88265000Y-105410000D01*
X88265000Y-105410000D02*
X92710000Y-105410000D01*
X95250000Y-105410000D02*
X98425000Y-105410000D01*
X98425000Y-105410000D02*
X99060000Y-106045000D01*
X99060000Y-106045000D02*
X99060000Y-109220000D01*
X87630000Y-107950000D02*
X87630000Y-106045000D01*
X102870000Y-111125000D02*
X105410000Y-113665000D01*
X152400000Y-96520000D02*
X141605000Y-96520000D01*
X133985000Y-96520000D02*
X132080000Y-96520000D01*
X125730000Y-110490000D02*
X125730000Y-112850000D01*
X132080000Y-96520000D02*
X128270000Y-100330000D01*
X125730000Y-112850000D02*
X124460000Y-114120000D01*
X124460000Y-114120000D02*
X124460000Y-115570000D01*
X156210000Y-103505000D02*
X156210000Y-95885000D01*
X130810000Y-94615000D02*
X130810000Y-90170000D01*
X156210000Y-88900000D02*
X156210000Y-95885000D01*
X156210000Y-95885000D02*
X156210000Y-96069998D01*
X154940000Y-87630000D02*
X156210000Y-88900000D01*
X149860000Y-87630000D02*
X154940000Y-87630000D01*
X149225000Y-86995000D02*
X149860000Y-87630000D01*
X139700000Y-86995000D02*
X149225000Y-86995000D01*
X139065000Y-87630000D02*
X139700000Y-86995000D01*
X140970000Y-87630000D02*
X139065000Y-87630000D01*
X133350000Y-87630000D02*
X140970000Y-87630000D01*
X130810000Y-90170000D02*
X133350000Y-87630000D01*
D25*
G36*
X96940000Y-77763691D02*
X96940000Y-78454250D01*
X97098750Y-78613000D01*
X98298000Y-78613000D01*
X98298000Y-78593000D01*
X98552000Y-78593000D01*
X98552000Y-78613000D01*
X98572000Y-78613000D01*
X98572000Y-78867000D01*
X98552000Y-78867000D01*
X98552000Y-80066250D01*
X98710750Y-80225000D01*
X99401310Y-80225000D01*
X99634699Y-80128327D01*
X99813327Y-79949698D01*
X99885597Y-79775223D01*
X99914946Y-79819147D01*
X100396715Y-80141054D01*
X100965000Y-80254093D01*
X101533285Y-80141054D01*
X102015054Y-79819147D01*
X102235000Y-79489974D01*
X102454946Y-79819147D01*
X102936715Y-80141054D01*
X103505000Y-80254093D01*
X104073285Y-80141054D01*
X104555054Y-79819147D01*
X104775000Y-79489974D01*
X104994946Y-79819147D01*
X105476715Y-80141054D01*
X106045000Y-80254093D01*
X106613285Y-80141054D01*
X107095054Y-79819147D01*
X107315000Y-79489974D01*
X107534946Y-79819147D01*
X108016715Y-80141054D01*
X108585000Y-80254093D01*
X109153285Y-80141054D01*
X109635054Y-79819147D01*
X109855000Y-79489974D01*
X110074946Y-79819147D01*
X110556715Y-80141054D01*
X111125000Y-80254093D01*
X111693285Y-80141054D01*
X112175054Y-79819147D01*
X112395000Y-79489974D01*
X112614946Y-79819147D01*
X113096715Y-80141054D01*
X113665000Y-80254093D01*
X114233285Y-80141054D01*
X114715054Y-79819147D01*
X114935000Y-79489974D01*
X115154946Y-79819147D01*
X115445000Y-80012954D01*
X115445000Y-81915000D01*
X115502852Y-82205839D01*
X115667599Y-82452401D01*
X119477599Y-86262401D01*
X119724161Y-86427148D01*
X120015000Y-86485000D01*
X130495198Y-86485000D01*
X130907599Y-86897401D01*
X131154161Y-87062148D01*
X131445000Y-87120000D01*
X132785198Y-87120000D01*
X130272599Y-89632599D01*
X130107852Y-89879161D01*
X130050000Y-90170000D01*
X130050000Y-92889453D01*
X129743628Y-93016043D01*
X129212907Y-93545839D01*
X128925328Y-94238405D01*
X128924674Y-94988305D01*
X129211043Y-95681372D01*
X129740839Y-96212093D01*
X130433405Y-96499672D01*
X131025010Y-96500188D01*
X128130320Y-99394878D01*
X128084833Y-99394838D01*
X127741057Y-99536883D01*
X127477808Y-99799673D01*
X127335162Y-100143201D01*
X127334838Y-100515167D01*
X127476883Y-100858943D01*
X127739673Y-101122192D01*
X128083201Y-101264838D01*
X128455167Y-101265162D01*
X128798943Y-101123117D01*
X129062192Y-100860327D01*
X129204838Y-100516799D01*
X129204879Y-100469923D01*
X129735615Y-99939187D01*
X135089752Y-99939187D01*
X135307757Y-100466800D01*
X135711077Y-100870824D01*
X136238309Y-101089750D01*
X136809187Y-101090248D01*
X137336800Y-100872243D01*
X137740824Y-100468923D01*
X137959750Y-99941691D01*
X137960248Y-99370813D01*
X137742243Y-98843200D01*
X137338923Y-98439176D01*
X136811691Y-98220250D01*
X136240813Y-98219752D01*
X135713200Y-98437757D01*
X135309176Y-98841077D01*
X135090250Y-99368309D01*
X135089752Y-99939187D01*
X129735615Y-99939187D01*
X132394802Y-97280000D01*
X133422537Y-97280000D01*
X133454673Y-97312192D01*
X133798201Y-97454838D01*
X134170167Y-97455162D01*
X134513943Y-97313117D01*
X134777192Y-97050327D01*
X134919838Y-96706799D01*
X134920162Y-96334833D01*
X134778117Y-95991057D01*
X134515327Y-95727808D01*
X134171799Y-95585162D01*
X133799833Y-95584838D01*
X133456057Y-95726883D01*
X133422882Y-95760000D01*
X132331122Y-95760000D01*
X132407093Y-95684161D01*
X132694672Y-94991595D01*
X132695326Y-94241695D01*
X132408957Y-93548628D01*
X131879161Y-93017907D01*
X131570000Y-92889532D01*
X131570000Y-90484802D01*
X133664802Y-88390000D01*
X138129890Y-88390000D01*
X138129838Y-88450167D01*
X138271883Y-88793943D01*
X138534673Y-89057192D01*
X138878201Y-89199838D01*
X138925077Y-89199879D01*
X141702599Y-91977401D01*
X141949161Y-92142148D01*
X142240000Y-92200000D01*
X145114890Y-92200000D01*
X145114838Y-92260167D01*
X145256883Y-92603943D01*
X145519673Y-92867192D01*
X145863201Y-93009838D01*
X145910077Y-93009879D01*
X147417599Y-94517401D01*
X147664161Y-94682148D01*
X147955000Y-94740000D01*
X150779168Y-94740000D01*
X150949352Y-94994698D01*
X151331438Y-95250000D01*
X150949352Y-95505302D01*
X150779168Y-95760000D01*
X142167463Y-95760000D01*
X142135327Y-95727808D01*
X141791799Y-95585162D01*
X141419833Y-95584838D01*
X141076057Y-95726883D01*
X140812808Y-95989673D01*
X140670162Y-96333201D01*
X140669838Y-96705167D01*
X140811883Y-97048943D01*
X141074673Y-97312192D01*
X141418201Y-97454838D01*
X141790167Y-97455162D01*
X142133943Y-97313117D01*
X142167118Y-97280000D01*
X143895831Y-97280000D01*
X143564176Y-97611077D01*
X143345250Y-98138309D01*
X143344752Y-98709187D01*
X143562757Y-99236800D01*
X143966077Y-99640824D01*
X144493309Y-99859750D01*
X145064187Y-99860248D01*
X145591800Y-99642243D01*
X145995824Y-99238923D01*
X146214750Y-98711691D01*
X146215248Y-98140813D01*
X145997243Y-97613200D01*
X145664624Y-97280000D01*
X150779168Y-97280000D01*
X150949352Y-97534698D01*
X151331438Y-97790000D01*
X150949352Y-98045302D01*
X150638283Y-98510849D01*
X150529050Y-99060000D01*
X150638283Y-99609151D01*
X150949352Y-100074698D01*
X151331438Y-100330000D01*
X150949352Y-100585302D01*
X150638283Y-101050849D01*
X150529050Y-101600000D01*
X150638283Y-102149151D01*
X150949352Y-102614698D01*
X151331438Y-102870000D01*
X150949352Y-103125302D01*
X150638283Y-103590849D01*
X150529050Y-104140000D01*
X150594775Y-104470423D01*
X149145198Y-105920000D01*
X139627463Y-105920000D01*
X139595327Y-105887808D01*
X139251799Y-105745162D01*
X138879833Y-105744838D01*
X138536057Y-105886883D01*
X138272808Y-106149673D01*
X138130162Y-106493201D01*
X138129838Y-106865167D01*
X138271883Y-107208943D01*
X138534673Y-107472192D01*
X138878201Y-107614838D01*
X139250167Y-107615162D01*
X139593943Y-107473117D01*
X139627118Y-107440000D01*
X140823025Y-107440000D01*
X140793569Y-107483110D01*
X140742560Y-107735000D01*
X140742560Y-107775000D01*
X136225513Y-107775000D01*
X135430000Y-106979488D01*
X135430000Y-105662745D01*
X135696861Y-105662745D01*
X135770995Y-105908864D01*
X136308223Y-106101965D01*
X136878454Y-106074778D01*
X137279005Y-105908864D01*
X137353139Y-105662745D01*
X136525000Y-104834605D01*
X135696861Y-105662745D01*
X135430000Y-105662745D01*
X135430000Y-105456857D01*
X135517255Y-105483139D01*
X136345395Y-104655000D01*
X136704605Y-104655000D01*
X137532745Y-105483139D01*
X137778864Y-105409005D01*
X137971965Y-104871777D01*
X137944778Y-104301546D01*
X137778864Y-103900995D01*
X137532745Y-103826861D01*
X136704605Y-104655000D01*
X136345395Y-104655000D01*
X135517255Y-103826861D01*
X135430000Y-103853143D01*
X135430000Y-103647255D01*
X135696861Y-103647255D01*
X136525000Y-104475395D01*
X137289644Y-103710750D01*
X143345000Y-103710750D01*
X143345000Y-104351309D01*
X143441673Y-104584698D01*
X143620301Y-104763327D01*
X143853690Y-104860000D01*
X144494250Y-104860000D01*
X144653000Y-104701250D01*
X144653000Y-103552000D01*
X144907000Y-103552000D01*
X144907000Y-104701250D01*
X145065750Y-104860000D01*
X145706310Y-104860000D01*
X145939699Y-104763327D01*
X146118327Y-104584698D01*
X146215000Y-104351309D01*
X146215000Y-103710750D01*
X146056250Y-103552000D01*
X144907000Y-103552000D01*
X144653000Y-103552000D01*
X143503750Y-103552000D01*
X143345000Y-103710750D01*
X137289644Y-103710750D01*
X137353139Y-103647255D01*
X137279005Y-103401136D01*
X136741777Y-103208035D01*
X136171546Y-103235222D01*
X135770995Y-103401136D01*
X135696861Y-103647255D01*
X135430000Y-103647255D01*
X135430000Y-102498691D01*
X143345000Y-102498691D01*
X143345000Y-103139250D01*
X143503750Y-103298000D01*
X144653000Y-103298000D01*
X144653000Y-102148750D01*
X144907000Y-102148750D01*
X144907000Y-103298000D01*
X146056250Y-103298000D01*
X146215000Y-103139250D01*
X146215000Y-102498691D01*
X146118327Y-102265302D01*
X145939699Y-102086673D01*
X145706310Y-101990000D01*
X145065750Y-101990000D01*
X144907000Y-102148750D01*
X144653000Y-102148750D01*
X144494250Y-101990000D01*
X143853690Y-101990000D01*
X143620301Y-102086673D01*
X143441673Y-102265302D01*
X143345000Y-102498691D01*
X135430000Y-102498691D01*
X135430000Y-102087441D01*
X135554838Y-101786799D01*
X135555162Y-101414833D01*
X135413117Y-101071057D01*
X135150327Y-100807808D01*
X134806799Y-100665162D01*
X134434833Y-100664838D01*
X134091057Y-100806883D01*
X133827808Y-101069673D01*
X133685162Y-101413201D01*
X133684838Y-101785167D01*
X133810000Y-102088083D01*
X133810000Y-107315000D01*
X133871658Y-107624974D01*
X134024170Y-107853223D01*
X134047244Y-107887756D01*
X135317243Y-109157756D01*
X135410398Y-109220000D01*
X135580026Y-109333342D01*
X135607054Y-109338718D01*
X135309176Y-109636077D01*
X135090250Y-110163309D01*
X135089752Y-110734187D01*
X135307757Y-111261800D01*
X135711077Y-111665824D01*
X136238309Y-111884750D01*
X136809187Y-111885248D01*
X137336800Y-111667243D01*
X137740824Y-111263923D01*
X137959750Y-110736691D01*
X137960248Y-110165813D01*
X137742243Y-109638200D01*
X137499467Y-109395000D01*
X140742560Y-109395000D01*
X140742560Y-109435000D01*
X140786838Y-109670317D01*
X140925910Y-109886441D01*
X141138110Y-110031431D01*
X141205541Y-110045086D01*
X141160853Y-110074946D01*
X140838946Y-110556715D01*
X140725907Y-111125000D01*
X140838946Y-111693285D01*
X141160853Y-112175054D01*
X141501553Y-112402702D01*
X141358642Y-112469817D01*
X140968355Y-112898076D01*
X140798524Y-113308110D01*
X140919845Y-113538000D01*
X142113000Y-113538000D01*
X142113000Y-113518000D01*
X142367000Y-113518000D01*
X142367000Y-113538000D01*
X143560155Y-113538000D01*
X143681476Y-113308110D01*
X143641775Y-113212255D01*
X147126861Y-113212255D01*
X147955000Y-114040395D01*
X148783139Y-113212255D01*
X148709005Y-112966136D01*
X148171777Y-112773035D01*
X147601546Y-112800222D01*
X147200995Y-112966136D01*
X147126861Y-113212255D01*
X143641775Y-113212255D01*
X143511645Y-112898076D01*
X143121358Y-112469817D01*
X142978447Y-112402702D01*
X143319147Y-112175054D01*
X143641054Y-111693285D01*
X143754093Y-111125000D01*
X143641054Y-110556715D01*
X143319147Y-110074946D01*
X143277548Y-110047150D01*
X143325317Y-110038162D01*
X143541441Y-109899090D01*
X143686431Y-109686890D01*
X143723429Y-109504187D01*
X146519752Y-109504187D01*
X146737757Y-110031800D01*
X147141077Y-110435824D01*
X147668309Y-110654750D01*
X148239187Y-110655248D01*
X148766800Y-110437243D01*
X149170824Y-110033923D01*
X149389750Y-109506691D01*
X149390248Y-108935813D01*
X149172243Y-108408200D01*
X148768923Y-108004176D01*
X148241691Y-107785250D01*
X147670813Y-107784752D01*
X147143200Y-108002757D01*
X146739176Y-108406077D01*
X146520250Y-108933309D01*
X146519752Y-109504187D01*
X143723429Y-109504187D01*
X143737440Y-109435000D01*
X143737440Y-107735000D01*
X143693162Y-107499683D01*
X143654757Y-107440000D01*
X149460000Y-107440000D01*
X149750839Y-107382148D01*
X149997401Y-107217401D01*
X150530004Y-106684798D01*
X150638283Y-107229151D01*
X150949352Y-107694698D01*
X151327707Y-107947507D01*
X150895500Y-108295104D01*
X150625633Y-108788181D01*
X150608096Y-108870961D01*
X150730085Y-109093000D01*
X152273000Y-109093000D01*
X152273000Y-109073000D01*
X152527000Y-109073000D01*
X152527000Y-109093000D01*
X154069915Y-109093000D01*
X154191904Y-108870961D01*
X154174367Y-108788181D01*
X153904500Y-108295104D01*
X153472293Y-107947507D01*
X153850648Y-107694698D01*
X154161717Y-107229151D01*
X154270950Y-106680000D01*
X154161717Y-106130849D01*
X153850648Y-105665302D01*
X153468562Y-105410000D01*
X153850648Y-105154698D01*
X154161717Y-104689151D01*
X154270950Y-104140000D01*
X154161717Y-103590849D01*
X153850648Y-103125302D01*
X153468562Y-102870000D01*
X153850648Y-102614698D01*
X154161717Y-102149151D01*
X154270950Y-101600000D01*
X154161717Y-101050849D01*
X153850648Y-100585302D01*
X153468562Y-100330000D01*
X153850648Y-100074698D01*
X154161717Y-99609151D01*
X154270950Y-99060000D01*
X154161717Y-98510849D01*
X153850648Y-98045302D01*
X153468562Y-97790000D01*
X153850648Y-97534698D01*
X154161717Y-97069151D01*
X154270950Y-96520000D01*
X154161717Y-95970849D01*
X153850648Y-95505302D01*
X153468562Y-95250000D01*
X153850648Y-94994698D01*
X154161717Y-94529151D01*
X154270950Y-93980000D01*
X154161717Y-93430849D01*
X153850648Y-92965302D01*
X153468562Y-92710000D01*
X153850648Y-92454698D01*
X154161717Y-91989151D01*
X154270950Y-91440000D01*
X154161717Y-90890849D01*
X153850648Y-90425302D01*
X153468562Y-90170000D01*
X153850648Y-89914698D01*
X154161717Y-89449151D01*
X154270950Y-88900000D01*
X154169505Y-88390000D01*
X154625198Y-88390000D01*
X155450000Y-89214802D01*
X155450000Y-102942537D01*
X155417808Y-102974673D01*
X155275162Y-103318201D01*
X155274838Y-103690167D01*
X155416883Y-104033943D01*
X155679673Y-104297192D01*
X156023201Y-104439838D01*
X156395167Y-104440162D01*
X156738943Y-104298117D01*
X157002192Y-104035327D01*
X157144838Y-103691799D01*
X157145162Y-103319833D01*
X157003117Y-102976057D01*
X156970000Y-102942882D01*
X156970000Y-88900000D01*
X156912148Y-88609161D01*
X156912148Y-88609160D01*
X156747401Y-88362599D01*
X155477401Y-87092599D01*
X155230839Y-86927852D01*
X154940000Y-86870000D01*
X154169505Y-86870000D01*
X154270950Y-86360000D01*
X154161717Y-85810849D01*
X153850648Y-85345302D01*
X153704650Y-85247749D01*
X153835317Y-85223162D01*
X154051441Y-85084090D01*
X154196431Y-84871890D01*
X154247440Y-84620000D01*
X154247440Y-83020000D01*
X154203162Y-82784683D01*
X154064090Y-82568559D01*
X153851890Y-82423569D01*
X153600000Y-82372560D01*
X151200000Y-82372560D01*
X150964683Y-82416838D01*
X150748559Y-82555910D01*
X150603569Y-82768110D01*
X150552560Y-83020000D01*
X150552560Y-84620000D01*
X150596838Y-84855317D01*
X150735910Y-85071441D01*
X150948110Y-85216431D01*
X151097074Y-85246597D01*
X150949352Y-85345302D01*
X150779168Y-85600000D01*
X139865633Y-85600000D01*
X139999838Y-85276799D01*
X140000162Y-84904833D01*
X139858117Y-84561057D01*
X139595327Y-84297808D01*
X139251799Y-84155162D01*
X139204923Y-84155121D01*
X138332401Y-83282599D01*
X138085839Y-83117852D01*
X137795000Y-83060000D01*
X125409802Y-83060000D01*
X124585000Y-82235198D01*
X124585000Y-80012954D01*
X124875054Y-79819147D01*
X125196961Y-79337378D01*
X125310000Y-78769093D01*
X125310000Y-78710907D01*
X125196961Y-78142622D01*
X124875054Y-77660853D01*
X124701667Y-77545000D01*
X173453469Y-77545000D01*
X175228673Y-77898110D01*
X176674332Y-78864068D01*
X177640290Y-80309727D01*
X177995000Y-82092971D01*
X177995000Y-123619695D01*
X177800000Y-123580907D01*
X177231715Y-123693946D01*
X176749946Y-124015853D01*
X176530000Y-124345026D01*
X176310054Y-124015853D01*
X175828285Y-123693946D01*
X175260000Y-123580907D01*
X174691715Y-123693946D01*
X174209946Y-124015853D01*
X173990000Y-124345026D01*
X173770054Y-124015853D01*
X173288285Y-123693946D01*
X172720000Y-123580907D01*
X172151715Y-123693946D01*
X171669946Y-124015853D01*
X171450000Y-124345026D01*
X171230054Y-124015853D01*
X170748285Y-123693946D01*
X170180000Y-123580907D01*
X169611715Y-123693946D01*
X169129946Y-124015853D01*
X168910000Y-124345026D01*
X168690054Y-124015853D01*
X168208285Y-123693946D01*
X167640000Y-123580907D01*
X167071715Y-123693946D01*
X166589946Y-124015853D01*
X166370000Y-124345026D01*
X166150054Y-124015853D01*
X165860000Y-123822046D01*
X165860000Y-120650000D01*
X165802148Y-120359161D01*
X165802148Y-120359160D01*
X165637401Y-120112599D01*
X164590000Y-119065198D01*
X164590000Y-111687463D01*
X164622192Y-111655327D01*
X164764838Y-111311799D01*
X164765162Y-110939833D01*
X164623117Y-110596057D01*
X164360327Y-110332808D01*
X164016799Y-110190162D01*
X163644833Y-110189838D01*
X163301057Y-110331883D01*
X163037808Y-110594673D01*
X162895162Y-110938201D01*
X162894838Y-111310167D01*
X163036883Y-111653943D01*
X163070000Y-111687118D01*
X163070000Y-119380000D01*
X163087431Y-119467629D01*
X162685000Y-119065198D01*
X162685000Y-111687463D01*
X162717192Y-111655327D01*
X162859838Y-111311799D01*
X162860162Y-110939833D01*
X162718117Y-110596057D01*
X162455327Y-110332808D01*
X162111799Y-110190162D01*
X161739833Y-110189838D01*
X161396057Y-110331883D01*
X161290046Y-110437710D01*
X161185327Y-110332808D01*
X160841799Y-110190162D01*
X160469833Y-110189838D01*
X160126057Y-110331883D01*
X159862808Y-110594673D01*
X159720162Y-110938201D01*
X159719838Y-111310167D01*
X159861883Y-111653943D01*
X159895000Y-111687118D01*
X159895000Y-119700198D01*
X159482599Y-120112599D01*
X159317852Y-120359161D01*
X159260000Y-120650000D01*
X159260000Y-123822046D01*
X158969946Y-124015853D01*
X158750000Y-124345026D01*
X158530054Y-124015853D01*
X158240000Y-123822046D01*
X158240000Y-121599802D01*
X158652401Y-121187401D01*
X158817148Y-120940839D01*
X158875000Y-120650000D01*
X158875000Y-111439802D01*
X160334802Y-109980000D01*
X166019168Y-109980000D01*
X166189352Y-110234698D01*
X166571438Y-110490000D01*
X166189352Y-110745302D01*
X165878283Y-111210849D01*
X165769050Y-111760000D01*
X165878283Y-112309151D01*
X166189352Y-112774698D01*
X166571438Y-113030000D01*
X166189352Y-113285302D01*
X165878283Y-113750849D01*
X165769050Y-114300000D01*
X165878283Y-114849151D01*
X166189352Y-115314698D01*
X166571438Y-115570000D01*
X166189352Y-115825302D01*
X165878283Y-116290849D01*
X165769050Y-116840000D01*
X165878283Y-117389151D01*
X166189352Y-117854698D01*
X166654899Y-118165767D01*
X167204050Y-118275000D01*
X168075950Y-118275000D01*
X168625101Y-118165767D01*
X169090648Y-117854698D01*
X169401717Y-117389151D01*
X169402604Y-117384692D01*
X169649673Y-117632192D01*
X169993201Y-117774838D01*
X170365167Y-117775162D01*
X170708943Y-117633117D01*
X170814954Y-117527290D01*
X170919673Y-117632192D01*
X171263201Y-117774838D01*
X171635167Y-117775162D01*
X171978943Y-117633117D01*
X172084954Y-117527290D01*
X172189673Y-117632192D01*
X172533201Y-117774838D01*
X172905167Y-117775162D01*
X173248943Y-117633117D01*
X173512192Y-117370327D01*
X173654838Y-117026799D01*
X173655162Y-116654833D01*
X173513117Y-116311057D01*
X173480000Y-116277882D01*
X173480000Y-111052463D01*
X173512192Y-111020327D01*
X173654838Y-110676799D01*
X173655162Y-110304833D01*
X173513117Y-109961057D01*
X173250327Y-109697808D01*
X172906799Y-109555162D01*
X172534833Y-109554838D01*
X172191057Y-109696883D01*
X172085046Y-109802710D01*
X171980327Y-109697808D01*
X171636799Y-109555162D01*
X171264833Y-109554838D01*
X170921057Y-109696883D01*
X170815046Y-109802710D01*
X170710327Y-109697808D01*
X170366799Y-109555162D01*
X169994833Y-109554838D01*
X169651057Y-109696883D01*
X169387808Y-109959673D01*
X169245162Y-110303201D01*
X169244838Y-110675167D01*
X169386883Y-111018943D01*
X169420000Y-111052118D01*
X169420000Y-111302764D01*
X169401717Y-111210849D01*
X169090648Y-110745302D01*
X168708562Y-110490000D01*
X169090648Y-110234698D01*
X169401717Y-109769151D01*
X169510950Y-109220000D01*
X169401717Y-108670849D01*
X169090648Y-108205302D01*
X168708562Y-107950000D01*
X169090648Y-107694698D01*
X169401717Y-107229151D01*
X169510950Y-106680000D01*
X169401717Y-106130849D01*
X169090648Y-105665302D01*
X168708562Y-105410000D01*
X169090648Y-105154698D01*
X169401717Y-104689151D01*
X169510950Y-104140000D01*
X169401717Y-103590849D01*
X169090648Y-103125302D01*
X168708562Y-102870000D01*
X169090648Y-102614698D01*
X169401717Y-102149151D01*
X169510950Y-101600000D01*
X169401717Y-101050849D01*
X169090648Y-100585302D01*
X168708562Y-100330000D01*
X169090648Y-100074698D01*
X169401717Y-99609151D01*
X169510950Y-99060000D01*
X169401717Y-98510849D01*
X169090648Y-98045302D01*
X168708562Y-97790000D01*
X169090648Y-97534698D01*
X169401717Y-97069151D01*
X169510950Y-96520000D01*
X169401717Y-95970849D01*
X169090648Y-95505302D01*
X168708562Y-95250000D01*
X169090648Y-94994698D01*
X169401717Y-94529151D01*
X169510950Y-93980000D01*
X169401717Y-93430849D01*
X169090648Y-92965302D01*
X168708562Y-92710000D01*
X169090648Y-92454698D01*
X169401717Y-91989151D01*
X169510950Y-91440000D01*
X169401717Y-90890849D01*
X169090648Y-90425302D01*
X168708562Y-90170000D01*
X169090648Y-89914698D01*
X169401717Y-89449151D01*
X169510950Y-88900000D01*
X169401717Y-88350849D01*
X169090648Y-87885302D01*
X168708562Y-87630000D01*
X169090648Y-87374698D01*
X169401717Y-86909151D01*
X169510950Y-86360000D01*
X169401717Y-85810849D01*
X169090648Y-85345302D01*
X168708562Y-85090000D01*
X169090648Y-84834698D01*
X169401717Y-84369151D01*
X169510950Y-83820000D01*
X169401717Y-83270849D01*
X169090648Y-82805302D01*
X168625101Y-82494233D01*
X168075950Y-82385000D01*
X167204050Y-82385000D01*
X166654899Y-82494233D01*
X166189352Y-82805302D01*
X165878283Y-83270849D01*
X165769050Y-83820000D01*
X165878283Y-84369151D01*
X166189352Y-84834698D01*
X166571438Y-85090000D01*
X166189352Y-85345302D01*
X165878283Y-85810849D01*
X165769050Y-86360000D01*
X165878283Y-86909151D01*
X166189352Y-87374698D01*
X166571438Y-87630000D01*
X166189352Y-87885302D01*
X165878283Y-88350849D01*
X165769050Y-88900000D01*
X165878283Y-89449151D01*
X166189352Y-89914698D01*
X166571438Y-90170000D01*
X166189352Y-90425302D01*
X165878283Y-90890849D01*
X165769050Y-91440000D01*
X165878283Y-91989151D01*
X166189352Y-92454698D01*
X166571438Y-92710000D01*
X166189352Y-92965302D01*
X165878283Y-93430849D01*
X165769050Y-93980000D01*
X165878283Y-94529151D01*
X166189352Y-94994698D01*
X166571438Y-95250000D01*
X166189352Y-95505302D01*
X165878283Y-95970849D01*
X165769050Y-96520000D01*
X165878283Y-97069151D01*
X166189352Y-97534698D01*
X166571438Y-97790000D01*
X166189352Y-98045302D01*
X165878283Y-98510849D01*
X165769050Y-99060000D01*
X165878283Y-99609151D01*
X166189352Y-100074698D01*
X166571438Y-100330000D01*
X166189352Y-100585302D01*
X166019168Y-100840000D01*
X165100000Y-100840000D01*
X164809160Y-100897852D01*
X164562599Y-101062599D01*
X163690320Y-101934878D01*
X163644833Y-101934838D01*
X163301057Y-102076883D01*
X163037808Y-102339673D01*
X162895162Y-102683201D01*
X162894838Y-103055167D01*
X163036883Y-103398943D01*
X163047301Y-103409379D01*
X162904160Y-103437852D01*
X162657599Y-103602599D01*
X161785320Y-104474878D01*
X161739833Y-104474838D01*
X161396057Y-104616883D01*
X161132808Y-104879673D01*
X160990162Y-105223201D01*
X160989838Y-105595167D01*
X161131883Y-105938943D01*
X161142301Y-105949379D01*
X160999161Y-105977852D01*
X160752599Y-106142599D01*
X160515320Y-106379878D01*
X160469833Y-106379838D01*
X160126057Y-106521883D01*
X159862808Y-106784673D01*
X159720162Y-107128201D01*
X159719838Y-107500167D01*
X159861883Y-107843943D01*
X160124673Y-108107192D01*
X160468201Y-108249838D01*
X160840167Y-108250162D01*
X161183943Y-108108117D01*
X161447192Y-107845327D01*
X161589838Y-107501799D01*
X161589879Y-107454923D01*
X161604802Y-107440000D01*
X166019168Y-107440000D01*
X166189352Y-107694698D01*
X166571438Y-107950000D01*
X166189352Y-108205302D01*
X166019168Y-108460000D01*
X160020000Y-108460000D01*
X159729161Y-108517852D01*
X159482599Y-108682599D01*
X157603659Y-110561539D01*
X157375327Y-110332808D01*
X157031799Y-110190162D01*
X156659833Y-110189838D01*
X156316057Y-110331883D01*
X156052808Y-110594673D01*
X155910162Y-110938201D01*
X155909838Y-111310167D01*
X156051883Y-111653943D01*
X156085000Y-111687118D01*
X156085000Y-117795198D01*
X155698659Y-118181539D01*
X155470327Y-117952808D01*
X155126799Y-117810162D01*
X154754833Y-117809838D01*
X154411057Y-117951883D01*
X154377882Y-117985000D01*
X153655638Y-117985000D01*
X153850648Y-117854698D01*
X154161717Y-117389151D01*
X154270950Y-116840000D01*
X154161717Y-116290849D01*
X153850648Y-115825302D01*
X153468562Y-115570000D01*
X153850648Y-115314698D01*
X154161717Y-114849151D01*
X154270950Y-114300000D01*
X154161717Y-113750849D01*
X153850648Y-113285302D01*
X153468562Y-113030000D01*
X153850648Y-112774698D01*
X154161717Y-112309151D01*
X154270950Y-111760000D01*
X154161717Y-111210849D01*
X153850648Y-110745302D01*
X153472293Y-110492493D01*
X153904500Y-110144896D01*
X154174367Y-109651819D01*
X154191904Y-109569039D01*
X154069915Y-109347000D01*
X152527000Y-109347000D01*
X152527000Y-109367000D01*
X152273000Y-109367000D01*
X152273000Y-109347000D01*
X150730085Y-109347000D01*
X150608096Y-109569039D01*
X150625633Y-109651819D01*
X150895500Y-110144896D01*
X151327707Y-110492493D01*
X150949352Y-110745302D01*
X150638283Y-111210849D01*
X150529050Y-111760000D01*
X150638283Y-112309151D01*
X150949352Y-112774698D01*
X151331438Y-113030000D01*
X150949352Y-113285302D01*
X150638283Y-113750849D01*
X150529050Y-114300000D01*
X150638283Y-114849151D01*
X150949352Y-115314698D01*
X151331438Y-115570000D01*
X150949352Y-115825302D01*
X150638283Y-116290849D01*
X150529050Y-116840000D01*
X150638283Y-117389151D01*
X150949352Y-117854698D01*
X151144362Y-117985000D01*
X144445110Y-117985000D01*
X144445162Y-117924833D01*
X144303117Y-117581057D01*
X144040327Y-117317808D01*
X143696799Y-117175162D01*
X143324833Y-117174838D01*
X142981057Y-117316883D01*
X142947882Y-117350000D01*
X140897463Y-117350000D01*
X140865327Y-117317808D01*
X140521799Y-117175162D01*
X140149833Y-117174838D01*
X139806057Y-117316883D01*
X139542808Y-117579673D01*
X139433235Y-117843554D01*
X139171057Y-117951883D01*
X138907808Y-118214673D01*
X138765162Y-118558201D01*
X138764838Y-118930167D01*
X138906883Y-119273943D01*
X139012710Y-119379954D01*
X138907808Y-119484673D01*
X138765162Y-119828201D01*
X138764838Y-120200167D01*
X138906883Y-120543943D01*
X139012710Y-120649954D01*
X138907808Y-120754673D01*
X138765162Y-121098201D01*
X138764838Y-121470167D01*
X138906883Y-121813943D01*
X139169673Y-122077192D01*
X139513201Y-122219838D01*
X139595288Y-122219910D01*
X139162599Y-122652599D01*
X138997852Y-122899161D01*
X138940000Y-123190000D01*
X138940000Y-123822046D01*
X138649946Y-124015853D01*
X138430000Y-124345026D01*
X138210054Y-124015853D01*
X137728285Y-123693946D01*
X137160000Y-123580907D01*
X136591715Y-123693946D01*
X136109946Y-124015853D01*
X135890000Y-124345026D01*
X135670054Y-124015853D01*
X135188285Y-123693946D01*
X134620000Y-123580907D01*
X134051715Y-123693946D01*
X133569946Y-124015853D01*
X133350000Y-124345026D01*
X133130054Y-124015853D01*
X132648285Y-123693946D01*
X132080000Y-123580907D01*
X131511715Y-123693946D01*
X131029946Y-124015853D01*
X130810000Y-124345026D01*
X130590054Y-124015853D01*
X130108285Y-123693946D01*
X129540000Y-123580907D01*
X128971715Y-123693946D01*
X128489946Y-124015853D01*
X128270000Y-124345026D01*
X128050054Y-124015853D01*
X127760000Y-123822046D01*
X127760000Y-122220110D01*
X127820167Y-122220162D01*
X128163943Y-122078117D01*
X128197118Y-122045000D01*
X133422537Y-122045000D01*
X133454673Y-122077192D01*
X133798201Y-122219838D01*
X134170167Y-122220162D01*
X134513943Y-122078117D01*
X134777192Y-121815327D01*
X134886765Y-121551446D01*
X135148943Y-121443117D01*
X135412192Y-121180327D01*
X135536622Y-120880668D01*
X135703201Y-120949838D01*
X136075167Y-120950162D01*
X136418943Y-120808117D01*
X136682192Y-120545327D01*
X136824838Y-120201799D01*
X136825162Y-119829833D01*
X136683117Y-119486057D01*
X136420327Y-119222808D01*
X136156446Y-119113235D01*
X136048117Y-118851057D01*
X135785327Y-118587808D01*
X135521446Y-118478235D01*
X135413117Y-118216057D01*
X135150327Y-117952808D01*
X134886446Y-117843235D01*
X134778117Y-117581057D01*
X134515327Y-117317808D01*
X134171799Y-117175162D01*
X133799833Y-117174838D01*
X133456057Y-117316883D01*
X133422882Y-117350000D01*
X132537236Y-117350000D01*
X132629151Y-117331717D01*
X133094698Y-117020648D01*
X133405767Y-116555101D01*
X133425132Y-116457745D01*
X135696861Y-116457745D01*
X135770995Y-116703864D01*
X136308223Y-116896965D01*
X136878454Y-116869778D01*
X137279005Y-116703864D01*
X137353139Y-116457745D01*
X136525000Y-115629605D01*
X135696861Y-116457745D01*
X133425132Y-116457745D01*
X133515000Y-116005950D01*
X133515000Y-115233223D01*
X135078035Y-115233223D01*
X135105222Y-115803454D01*
X135271136Y-116204005D01*
X135517255Y-116278139D01*
X136345395Y-115450000D01*
X136704605Y-115450000D01*
X137532745Y-116278139D01*
X137778864Y-116204005D01*
X137971965Y-115666777D01*
X137951034Y-115227745D01*
X147126861Y-115227745D01*
X147200995Y-115473864D01*
X147738223Y-115666965D01*
X148308454Y-115639778D01*
X148709005Y-115473864D01*
X148783139Y-115227745D01*
X147955000Y-114399605D01*
X147126861Y-115227745D01*
X137951034Y-115227745D01*
X137944778Y-115096546D01*
X137778864Y-114695995D01*
X137532745Y-114621861D01*
X136704605Y-115450000D01*
X136345395Y-115450000D01*
X135517255Y-114621861D01*
X135271136Y-114695995D01*
X135078035Y-115233223D01*
X133515000Y-115233223D01*
X133515000Y-115134050D01*
X133405767Y-114584899D01*
X133310456Y-114442255D01*
X135696861Y-114442255D01*
X136525000Y-115270395D01*
X137353139Y-114442255D01*
X137279005Y-114196136D01*
X136794234Y-114021890D01*
X140798524Y-114021890D01*
X140968355Y-114431924D01*
X141358642Y-114860183D01*
X141883108Y-115106486D01*
X142113000Y-114985819D01*
X142113000Y-113792000D01*
X142367000Y-113792000D01*
X142367000Y-114985819D01*
X142596892Y-115106486D01*
X143121358Y-114860183D01*
X143511645Y-114431924D01*
X143681476Y-114021890D01*
X143671625Y-114003223D01*
X146508035Y-114003223D01*
X146535222Y-114573454D01*
X146701136Y-114974005D01*
X146947255Y-115048139D01*
X147775395Y-114220000D01*
X148134605Y-114220000D01*
X148962745Y-115048139D01*
X149208864Y-114974005D01*
X149401965Y-114436777D01*
X149374778Y-113866546D01*
X149208864Y-113465995D01*
X148962745Y-113391861D01*
X148134605Y-114220000D01*
X147775395Y-114220000D01*
X146947255Y-113391861D01*
X146701136Y-113465995D01*
X146508035Y-114003223D01*
X143671625Y-114003223D01*
X143560155Y-113792000D01*
X142367000Y-113792000D01*
X142113000Y-113792000D01*
X140919845Y-113792000D01*
X140798524Y-114021890D01*
X136794234Y-114021890D01*
X136741777Y-114003035D01*
X136171546Y-114030222D01*
X135770995Y-114196136D01*
X135696861Y-114442255D01*
X133310456Y-114442255D01*
X133094698Y-114119352D01*
X132629151Y-113808283D01*
X132080000Y-113699050D01*
X131530849Y-113808283D01*
X131065302Y-114119352D01*
X130810000Y-114501438D01*
X130554698Y-114119352D01*
X130089151Y-113808283D01*
X129540000Y-113699050D01*
X128990849Y-113808283D01*
X128525302Y-114119352D01*
X128270000Y-114501438D01*
X128014698Y-114119352D01*
X127549151Y-113808283D01*
X127000000Y-113699050D01*
X126450849Y-113808283D01*
X125985302Y-114119352D01*
X125730000Y-114501438D01*
X125499032Y-114155770D01*
X126267401Y-113387401D01*
X126432148Y-113140840D01*
X126490000Y-112850000D01*
X126490000Y-111052463D01*
X126522192Y-111020327D01*
X126664838Y-110676799D01*
X126665162Y-110304833D01*
X126523117Y-109961057D01*
X126260327Y-109697808D01*
X125916799Y-109555162D01*
X125544833Y-109554838D01*
X125201057Y-109696883D01*
X124937808Y-109959673D01*
X124795162Y-110303201D01*
X124794838Y-110675167D01*
X124936883Y-111018943D01*
X124970000Y-111052118D01*
X124970000Y-112535198D01*
X123922599Y-113582599D01*
X123757852Y-113829161D01*
X123739190Y-113922982D01*
X123445302Y-114119352D01*
X123190000Y-114501438D01*
X122934698Y-114119352D01*
X122469151Y-113808283D01*
X121920000Y-113699050D01*
X121370849Y-113808283D01*
X120905302Y-114119352D01*
X120650000Y-114501438D01*
X120394698Y-114119352D01*
X119929151Y-113808283D01*
X119384798Y-113700004D01*
X121199802Y-111885000D01*
X123262537Y-111885000D01*
X123294673Y-111917192D01*
X123638201Y-112059838D01*
X124010167Y-112060162D01*
X124353943Y-111918117D01*
X124617192Y-111655327D01*
X124759838Y-111311799D01*
X124760162Y-110939833D01*
X124618117Y-110596057D01*
X124355327Y-110332808D01*
X124011799Y-110190162D01*
X123639833Y-110189838D01*
X123296057Y-110331883D01*
X123262882Y-110365000D01*
X120885000Y-110365000D01*
X120594161Y-110422852D01*
X120347599Y-110587599D01*
X117212638Y-113722560D01*
X116040000Y-113722560D01*
X115804683Y-113766838D01*
X115588559Y-113905910D01*
X115443569Y-114118110D01*
X115392560Y-114370000D01*
X115392560Y-116770000D01*
X115436838Y-117005317D01*
X115575910Y-117221441D01*
X115764062Y-117350000D01*
X108407236Y-117350000D01*
X108499151Y-117331717D01*
X108964698Y-117020648D01*
X109275767Y-116555101D01*
X109385000Y-116005950D01*
X109385000Y-115134050D01*
X109275767Y-114584899D01*
X108964698Y-114119352D01*
X108499151Y-113808283D01*
X107950000Y-113699050D01*
X107440000Y-113800495D01*
X107440000Y-113665000D01*
X107382148Y-113374161D01*
X107368802Y-113354187D01*
X110959752Y-113354187D01*
X111177757Y-113881800D01*
X111581077Y-114285824D01*
X112108309Y-114504750D01*
X112679187Y-114505248D01*
X113206800Y-114287243D01*
X113610824Y-113883923D01*
X113829750Y-113356691D01*
X113830248Y-112785813D01*
X113612243Y-112258200D01*
X113208923Y-111854176D01*
X112681691Y-111635250D01*
X112110813Y-111634752D01*
X111583200Y-111852757D01*
X111179176Y-112256077D01*
X110960250Y-112783309D01*
X110959752Y-113354187D01*
X107368802Y-113354187D01*
X107217401Y-113127599D01*
X103648364Y-109558562D01*
X103884698Y-109400648D01*
X104140000Y-109018562D01*
X104395302Y-109400648D01*
X104860849Y-109711717D01*
X105410000Y-109820950D01*
X105959151Y-109711717D01*
X106424698Y-109400648D01*
X106680000Y-109018562D01*
X106935302Y-109400648D01*
X107400849Y-109711717D01*
X107950000Y-109820950D01*
X108499151Y-109711717D01*
X108964698Y-109400648D01*
X109180455Y-109077745D01*
X111566861Y-109077745D01*
X111640995Y-109323864D01*
X112178223Y-109516965D01*
X112748454Y-109489778D01*
X113149005Y-109323864D01*
X113223139Y-109077745D01*
X112395000Y-108249605D01*
X111566861Y-109077745D01*
X109180455Y-109077745D01*
X109275767Y-108935101D01*
X109385000Y-108385950D01*
X109385000Y-107853223D01*
X110948035Y-107853223D01*
X110975222Y-108423454D01*
X111141136Y-108824005D01*
X111387255Y-108898139D01*
X112215395Y-108070000D01*
X112574605Y-108070000D01*
X113402745Y-108898139D01*
X113648864Y-108824005D01*
X113841965Y-108286777D01*
X113831964Y-108077000D01*
X115405000Y-108077000D01*
X115405000Y-108477000D01*
X115562834Y-109016483D01*
X115915104Y-109454500D01*
X116408181Y-109724367D01*
X116490961Y-109741904D01*
X116713000Y-109619915D01*
X116713000Y-108077000D01*
X115405000Y-108077000D01*
X113831964Y-108077000D01*
X113814778Y-107716546D01*
X113693188Y-107423000D01*
X115405000Y-107423000D01*
X115405000Y-107823000D01*
X116713000Y-107823000D01*
X116713000Y-106280085D01*
X116967000Y-106280085D01*
X116967000Y-107823000D01*
X116987000Y-107823000D01*
X116987000Y-108077000D01*
X116967000Y-108077000D01*
X116967000Y-109619915D01*
X117189039Y-109741904D01*
X117271819Y-109724367D01*
X117764896Y-109454500D01*
X118112493Y-109022293D01*
X118365302Y-109400648D01*
X118830849Y-109711717D01*
X119380000Y-109820950D01*
X119929151Y-109711717D01*
X120394698Y-109400648D01*
X120647507Y-109022293D01*
X120995104Y-109454500D01*
X121488181Y-109724367D01*
X121570961Y-109741904D01*
X121793000Y-109619915D01*
X121793000Y-108077000D01*
X122047000Y-108077000D01*
X122047000Y-109619915D01*
X122269039Y-109741904D01*
X122351819Y-109724367D01*
X122844896Y-109454500D01*
X123190000Y-109025393D01*
X123535104Y-109454500D01*
X124028181Y-109724367D01*
X124110961Y-109741904D01*
X124333000Y-109619915D01*
X124333000Y-108077000D01*
X122047000Y-108077000D01*
X121793000Y-108077000D01*
X121773000Y-108077000D01*
X121773000Y-107823000D01*
X121793000Y-107823000D01*
X121793000Y-106280085D01*
X122047000Y-106280085D01*
X122047000Y-107823000D01*
X124333000Y-107823000D01*
X124333000Y-106280085D01*
X124587000Y-106280085D01*
X124587000Y-107823000D01*
X124607000Y-107823000D01*
X124607000Y-108077000D01*
X124587000Y-108077000D01*
X124587000Y-109619915D01*
X124809039Y-109741904D01*
X124891819Y-109724367D01*
X125384896Y-109454500D01*
X125732493Y-109022293D01*
X125985302Y-109400648D01*
X126450849Y-109711717D01*
X127000000Y-109820950D01*
X127549151Y-109711717D01*
X128014698Y-109400648D01*
X128267507Y-109022293D01*
X128615104Y-109454500D01*
X129108181Y-109724367D01*
X129190961Y-109741904D01*
X129413000Y-109619915D01*
X129413000Y-108077000D01*
X129667000Y-108077000D01*
X129667000Y-109619915D01*
X129889039Y-109741904D01*
X129971819Y-109724367D01*
X130464896Y-109454500D01*
X130810000Y-109025393D01*
X131155104Y-109454500D01*
X131648181Y-109724367D01*
X131730961Y-109741904D01*
X131953000Y-109619915D01*
X131953000Y-108077000D01*
X132207000Y-108077000D01*
X132207000Y-109619915D01*
X132429039Y-109741904D01*
X132511819Y-109724367D01*
X133004896Y-109454500D01*
X133357166Y-109016483D01*
X133515000Y-108477000D01*
X133515000Y-108077000D01*
X132207000Y-108077000D01*
X131953000Y-108077000D01*
X129667000Y-108077000D01*
X129413000Y-108077000D01*
X129393000Y-108077000D01*
X129393000Y-107823000D01*
X129413000Y-107823000D01*
X129413000Y-106280085D01*
X129667000Y-106280085D01*
X129667000Y-107823000D01*
X131953000Y-107823000D01*
X131953000Y-106280085D01*
X132207000Y-106280085D01*
X132207000Y-107823000D01*
X133515000Y-107823000D01*
X133515000Y-107423000D01*
X133357166Y-106883517D01*
X133004896Y-106445500D01*
X132511819Y-106175633D01*
X132429039Y-106158096D01*
X132207000Y-106280085D01*
X131953000Y-106280085D01*
X131730961Y-106158096D01*
X131648181Y-106175633D01*
X131155104Y-106445500D01*
X130810000Y-106874607D01*
X130464896Y-106445500D01*
X129971819Y-106175633D01*
X129889039Y-106158096D01*
X129667000Y-106280085D01*
X129413000Y-106280085D01*
X129190961Y-106158096D01*
X129108181Y-106175633D01*
X128615104Y-106445500D01*
X128267507Y-106877707D01*
X128014698Y-106499352D01*
X127549151Y-106188283D01*
X127000000Y-106079050D01*
X126450849Y-106188283D01*
X125985302Y-106499352D01*
X125732493Y-106877707D01*
X125384896Y-106445500D01*
X124891819Y-106175633D01*
X124809039Y-106158096D01*
X124587000Y-106280085D01*
X124333000Y-106280085D01*
X124110961Y-106158096D01*
X124028181Y-106175633D01*
X123535104Y-106445500D01*
X123190000Y-106874607D01*
X122844896Y-106445500D01*
X122351819Y-106175633D01*
X122269039Y-106158096D01*
X122047000Y-106280085D01*
X121793000Y-106280085D01*
X121570961Y-106158096D01*
X121488181Y-106175633D01*
X120995104Y-106445500D01*
X120647507Y-106877707D01*
X120394698Y-106499352D01*
X119929151Y-106188283D01*
X119380000Y-106079050D01*
X118830849Y-106188283D01*
X118365302Y-106499352D01*
X118112493Y-106877707D01*
X117764896Y-106445500D01*
X117271819Y-106175633D01*
X117189039Y-106158096D01*
X116967000Y-106280085D01*
X116713000Y-106280085D01*
X116490961Y-106158096D01*
X116408181Y-106175633D01*
X115915104Y-106445500D01*
X115562834Y-106883517D01*
X115405000Y-107423000D01*
X113693188Y-107423000D01*
X113648864Y-107315995D01*
X113402745Y-107241861D01*
X112574605Y-108070000D01*
X112215395Y-108070000D01*
X111387255Y-107241861D01*
X111141136Y-107315995D01*
X110948035Y-107853223D01*
X109385000Y-107853223D01*
X109385000Y-107514050D01*
X109295133Y-107062255D01*
X111566861Y-107062255D01*
X112395000Y-107890395D01*
X113223139Y-107062255D01*
X113149005Y-106816136D01*
X112611777Y-106623035D01*
X112041546Y-106650222D01*
X111640995Y-106816136D01*
X111566861Y-107062255D01*
X109295133Y-107062255D01*
X109275767Y-106964899D01*
X108964698Y-106499352D01*
X108499151Y-106188283D01*
X107950000Y-106079050D01*
X107400849Y-106188283D01*
X106935302Y-106499352D01*
X106680000Y-106881438D01*
X106424698Y-106499352D01*
X105959151Y-106188283D01*
X105410000Y-106079050D01*
X105079577Y-106144775D01*
X103807401Y-104872599D01*
X103604709Y-104737165D01*
X103607423Y-104736041D01*
X104022389Y-104360134D01*
X104140000Y-104111633D01*
X104257611Y-104360134D01*
X104672577Y-104736041D01*
X105060961Y-104896904D01*
X105283000Y-104774915D01*
X105283000Y-103632000D01*
X105537000Y-103632000D01*
X105537000Y-104774915D01*
X105759039Y-104896904D01*
X106147423Y-104736041D01*
X106562389Y-104360134D01*
X106801914Y-103854041D01*
X106680629Y-103632000D01*
X105537000Y-103632000D01*
X105283000Y-103632000D01*
X102997000Y-103632000D01*
X102997000Y-103652000D01*
X102743000Y-103652000D01*
X102743000Y-103632000D01*
X100457000Y-103632000D01*
X100457000Y-103652000D01*
X100203000Y-103652000D01*
X100203000Y-103632000D01*
X97917000Y-103632000D01*
X97917000Y-103652000D01*
X97663000Y-103652000D01*
X97663000Y-103632000D01*
X95377000Y-103632000D01*
X95377000Y-103652000D01*
X95123000Y-103652000D01*
X95123000Y-103632000D01*
X95103000Y-103632000D01*
X95103000Y-103378000D01*
X95123000Y-103378000D01*
X95123000Y-102228750D01*
X95377000Y-102228750D01*
X95377000Y-103378000D01*
X97663000Y-103378000D01*
X97663000Y-102235085D01*
X97440961Y-102113096D01*
X97052577Y-102273959D01*
X96685000Y-102606938D01*
X96685000Y-102578691D01*
X96588327Y-102345302D01*
X96409699Y-102166673D01*
X96176310Y-102070000D01*
X95535750Y-102070000D01*
X95377000Y-102228750D01*
X95123000Y-102228750D01*
X94964250Y-102070000D01*
X94740000Y-102070000D01*
X94740000Y-97614792D01*
X95047049Y-97307743D01*
X95250000Y-97348113D01*
X95799151Y-97238880D01*
X96264698Y-96927811D01*
X96520000Y-96545725D01*
X96775302Y-96927811D01*
X97030000Y-97097995D01*
X97030000Y-100965000D01*
X97087852Y-101255839D01*
X97252599Y-101502401D01*
X97961071Y-102210873D01*
X97917000Y-102235085D01*
X97917000Y-103378000D01*
X100203000Y-103378000D01*
X100203000Y-102235085D01*
X100457000Y-102235085D01*
X100457000Y-103378000D01*
X102743000Y-103378000D01*
X102743000Y-102235085D01*
X102997000Y-102235085D01*
X102997000Y-103378000D01*
X105283000Y-103378000D01*
X105283000Y-102235085D01*
X105537000Y-102235085D01*
X105537000Y-103378000D01*
X106680629Y-103378000D01*
X106801914Y-103155959D01*
X106562389Y-102649866D01*
X106147423Y-102273959D01*
X105759039Y-102113096D01*
X105537000Y-102235085D01*
X105283000Y-102235085D01*
X105060961Y-102113096D01*
X104672577Y-102273959D01*
X104257611Y-102649866D01*
X104140000Y-102898367D01*
X104022389Y-102649866D01*
X103607423Y-102273959D01*
X103219039Y-102113096D01*
X102997000Y-102235085D01*
X102743000Y-102235085D01*
X102520961Y-102113096D01*
X102132577Y-102273959D01*
X101717611Y-102649866D01*
X101600000Y-102898367D01*
X101482389Y-102649866D01*
X101067423Y-102273959D01*
X100679039Y-102113096D01*
X100457000Y-102235085D01*
X100203000Y-102235085D01*
X99995100Y-102120864D01*
X99995162Y-102049833D01*
X99853117Y-101706057D01*
X99590327Y-101442808D01*
X99246799Y-101300162D01*
X99199923Y-101300121D01*
X98550000Y-100650198D01*
X98550000Y-100495633D01*
X98873201Y-100629838D01*
X99245167Y-100630162D01*
X99588943Y-100488117D01*
X99852192Y-100225327D01*
X99954398Y-99979187D01*
X116674752Y-99979187D01*
X116892757Y-100506800D01*
X117296077Y-100910824D01*
X117823309Y-101129750D01*
X118394187Y-101130248D01*
X118745714Y-100985000D01*
X121292560Y-100985000D01*
X121292560Y-103485000D01*
X121336838Y-103720317D01*
X121475910Y-103936441D01*
X121688110Y-104081431D01*
X121940000Y-104132440D01*
X124440000Y-104132440D01*
X124675317Y-104088162D01*
X124891441Y-103949090D01*
X125036431Y-103736890D01*
X125087440Y-103485000D01*
X125087440Y-102608305D01*
X128924674Y-102608305D01*
X129211043Y-103301372D01*
X129740839Y-103832093D01*
X130433405Y-104119672D01*
X131183305Y-104120326D01*
X131876372Y-103833957D01*
X132407093Y-103304161D01*
X132694672Y-102611595D01*
X132695326Y-101861695D01*
X132408957Y-101168628D01*
X131879161Y-100637907D01*
X131186595Y-100350328D01*
X130436695Y-100349674D01*
X129743628Y-100636043D01*
X129212907Y-101165839D01*
X128925328Y-101858405D01*
X128924674Y-102608305D01*
X125087440Y-102608305D01*
X125087440Y-100985000D01*
X125043162Y-100749683D01*
X124904090Y-100533559D01*
X124691890Y-100388569D01*
X124440000Y-100337560D01*
X121940000Y-100337560D01*
X121704683Y-100381838D01*
X121488559Y-100520910D01*
X121343569Y-100733110D01*
X121292560Y-100985000D01*
X118745714Y-100985000D01*
X118921800Y-100912243D01*
X119325824Y-100508923D01*
X119544750Y-99981691D01*
X119545248Y-99410813D01*
X119327243Y-98883200D01*
X118923923Y-98479176D01*
X118396691Y-98260250D01*
X117825813Y-98259752D01*
X117298200Y-98477757D01*
X116894176Y-98881077D01*
X116675250Y-99408309D01*
X116674752Y-99979187D01*
X99954398Y-99979187D01*
X99994838Y-99881799D01*
X99994879Y-99834923D01*
X102546114Y-97283688D01*
X102870000Y-97348113D01*
X103419151Y-97238880D01*
X103884698Y-96927811D01*
X104140000Y-96545725D01*
X104395302Y-96927811D01*
X104860849Y-97238880D01*
X105410000Y-97348113D01*
X105959151Y-97238880D01*
X106424698Y-96927811D01*
X106735767Y-96462264D01*
X106845000Y-95913113D01*
X106845000Y-95856887D01*
X106814340Y-95702745D01*
X117281861Y-95702745D01*
X117355995Y-95948864D01*
X117893223Y-96141965D01*
X118463454Y-96114778D01*
X118864005Y-95948864D01*
X118864168Y-95948320D01*
X122036285Y-95948320D01*
X122165533Y-96241123D01*
X122865806Y-96509388D01*
X123615435Y-96489250D01*
X124214467Y-96241123D01*
X124343715Y-95948320D01*
X123190000Y-94794605D01*
X122036285Y-95948320D01*
X118864168Y-95948320D01*
X118938139Y-95702745D01*
X118110000Y-94874605D01*
X117281861Y-95702745D01*
X106814340Y-95702745D01*
X106735767Y-95307736D01*
X106424698Y-94842189D01*
X106170000Y-94672005D01*
X106170000Y-94478223D01*
X116663035Y-94478223D01*
X116690222Y-95048454D01*
X116856136Y-95449005D01*
X117102255Y-95523139D01*
X117930395Y-94695000D01*
X118289605Y-94695000D01*
X119117745Y-95523139D01*
X119363864Y-95449005D01*
X119556965Y-94911777D01*
X119529778Y-94341546D01*
X119508761Y-94290806D01*
X121295612Y-94290806D01*
X121315750Y-95040435D01*
X121563877Y-95639467D01*
X121856680Y-95768715D01*
X123010395Y-94615000D01*
X123369605Y-94615000D01*
X124523320Y-95768715D01*
X124816123Y-95639467D01*
X125084388Y-94939194D01*
X125064250Y-94189565D01*
X124816123Y-93590533D01*
X124523320Y-93461285D01*
X123369605Y-94615000D01*
X123010395Y-94615000D01*
X121856680Y-93461285D01*
X121563877Y-93590533D01*
X121295612Y-94290806D01*
X119508761Y-94290806D01*
X119363864Y-93940995D01*
X119117745Y-93866861D01*
X118289605Y-94695000D01*
X117930395Y-94695000D01*
X117102255Y-93866861D01*
X116856136Y-93940995D01*
X116663035Y-94478223D01*
X106170000Y-94478223D01*
X106170000Y-93687255D01*
X117281861Y-93687255D01*
X118110000Y-94515395D01*
X118938139Y-93687255D01*
X118864005Y-93441136D01*
X118420382Y-93281680D01*
X122036285Y-93281680D01*
X123190000Y-94435395D01*
X124343715Y-93281680D01*
X124214467Y-92988877D01*
X123514194Y-92720612D01*
X122764565Y-92740750D01*
X122165533Y-92988877D01*
X122036285Y-93281680D01*
X118420382Y-93281680D01*
X118326777Y-93248035D01*
X117756546Y-93275222D01*
X117355995Y-93441136D01*
X117281861Y-93687255D01*
X106170000Y-93687255D01*
X106170000Y-92643667D01*
X106452811Y-92454698D01*
X106763880Y-91989151D01*
X106873113Y-91440000D01*
X106763880Y-90890849D01*
X106452811Y-90425302D01*
X105987264Y-90114233D01*
X105438113Y-90005000D01*
X105381887Y-90005000D01*
X104832736Y-90114233D01*
X104367189Y-90425302D01*
X104140000Y-90765314D01*
X103912811Y-90425302D01*
X103447264Y-90114233D01*
X102898113Y-90005000D01*
X102841887Y-90005000D01*
X102292736Y-90114233D01*
X101827189Y-90425302D01*
X101600000Y-90765314D01*
X101372811Y-90425302D01*
X100907264Y-90114233D01*
X100358113Y-90005000D01*
X100301887Y-90005000D01*
X99752736Y-90114233D01*
X99287189Y-90425302D01*
X99060000Y-90765314D01*
X98832811Y-90425302D01*
X98367264Y-90114233D01*
X97818113Y-90005000D01*
X97761887Y-90005000D01*
X97212736Y-90114233D01*
X96747189Y-90425302D01*
X96520000Y-90765314D01*
X96292811Y-90425302D01*
X95827264Y-90114233D01*
X95278113Y-90005000D01*
X95221887Y-90005000D01*
X94672736Y-90114233D01*
X94207189Y-90425302D01*
X94136850Y-90530572D01*
X94113162Y-90404683D01*
X93974090Y-90188559D01*
X93761890Y-90043569D01*
X93510000Y-89992560D01*
X91910000Y-89992560D01*
X91674683Y-90036838D01*
X91458559Y-90175910D01*
X91313569Y-90388110D01*
X91262560Y-90640000D01*
X91262560Y-92240000D01*
X91306838Y-92475317D01*
X91445910Y-92691441D01*
X91658110Y-92836431D01*
X91910000Y-92887440D01*
X93510000Y-92887440D01*
X93745317Y-92843162D01*
X93961441Y-92704090D01*
X94106431Y-92491890D01*
X94135645Y-92347625D01*
X94207189Y-92454698D01*
X94490000Y-92643667D01*
X94490000Y-94672005D01*
X94235302Y-94842189D01*
X93924233Y-95307736D01*
X93815000Y-95856887D01*
X93815000Y-95913113D01*
X93894152Y-96311036D01*
X93442599Y-96762589D01*
X93277852Y-97009151D01*
X93220000Y-97299990D01*
X93220000Y-104609367D01*
X92896799Y-104475162D01*
X92524833Y-104474838D01*
X92181057Y-104616883D01*
X92147882Y-104650000D01*
X88265000Y-104650000D01*
X87974161Y-104707852D01*
X87727599Y-104872599D01*
X87092599Y-105507599D01*
X86927852Y-105754161D01*
X86870000Y-106045000D01*
X86870000Y-106329168D01*
X86615302Y-106499352D01*
X86362493Y-106877707D01*
X86014896Y-106445500D01*
X85521819Y-106175633D01*
X85439039Y-106158096D01*
X85217000Y-106280085D01*
X85217000Y-107823000D01*
X85237000Y-107823000D01*
X85237000Y-108077000D01*
X85217000Y-108077000D01*
X85217000Y-109619915D01*
X85439039Y-109741904D01*
X85521819Y-109724367D01*
X86014896Y-109454500D01*
X86362493Y-109022293D01*
X86615302Y-109400648D01*
X87080849Y-109711717D01*
X87630000Y-109820950D01*
X88179151Y-109711717D01*
X88644698Y-109400648D01*
X88900000Y-109018562D01*
X89155302Y-109400648D01*
X89620849Y-109711717D01*
X90170000Y-109820950D01*
X90500423Y-109755225D01*
X91772599Y-111027401D01*
X92019161Y-111192148D01*
X92310000Y-111250000D01*
X93417537Y-111250000D01*
X93449673Y-111282192D01*
X93793201Y-111424838D01*
X94165167Y-111425162D01*
X94508943Y-111283117D01*
X94519379Y-111272699D01*
X94547852Y-111415839D01*
X94712599Y-111662401D01*
X97027058Y-113976860D01*
X96865104Y-114065500D01*
X96520000Y-114494607D01*
X96174896Y-114065500D01*
X95681819Y-113795633D01*
X95599039Y-113778096D01*
X95377000Y-113900085D01*
X95377000Y-115443000D01*
X97663000Y-115443000D01*
X97663000Y-115423000D01*
X97917000Y-115423000D01*
X97917000Y-115443000D01*
X100203000Y-115443000D01*
X100203000Y-115423000D01*
X100457000Y-115423000D01*
X100457000Y-115443000D01*
X100477000Y-115443000D01*
X100477000Y-115697000D01*
X100457000Y-115697000D01*
X100457000Y-115717000D01*
X100203000Y-115717000D01*
X100203000Y-115697000D01*
X97917000Y-115697000D01*
X97917000Y-115717000D01*
X97663000Y-115717000D01*
X97663000Y-115697000D01*
X95377000Y-115697000D01*
X95377000Y-115717000D01*
X95123000Y-115717000D01*
X95123000Y-115697000D01*
X92837000Y-115697000D01*
X92837000Y-115717000D01*
X92583000Y-115717000D01*
X92583000Y-115697000D01*
X92563000Y-115697000D01*
X92563000Y-115443000D01*
X92583000Y-115443000D01*
X92583000Y-113900085D01*
X92837000Y-113900085D01*
X92837000Y-115443000D01*
X95123000Y-115443000D01*
X95123000Y-113900085D01*
X94900961Y-113778096D01*
X94818181Y-113795633D01*
X94325104Y-114065500D01*
X93980000Y-114494607D01*
X93634896Y-114065500D01*
X93141819Y-113795633D01*
X93059039Y-113778096D01*
X92837000Y-113900085D01*
X92583000Y-113900085D01*
X92360961Y-113778096D01*
X92278181Y-113795633D01*
X91785104Y-114065500D01*
X91437507Y-114497707D01*
X91184698Y-114119352D01*
X90719151Y-113808283D01*
X90170000Y-113699050D01*
X89620849Y-113808283D01*
X89155302Y-114119352D01*
X88902493Y-114497707D01*
X88554896Y-114065500D01*
X88061819Y-113795633D01*
X87979039Y-113778096D01*
X87757000Y-113900085D01*
X87757000Y-115443000D01*
X87777000Y-115443000D01*
X87777000Y-115697000D01*
X87757000Y-115697000D01*
X87757000Y-117239915D01*
X87979039Y-117361904D01*
X88061819Y-117344367D01*
X88554896Y-117074500D01*
X88902493Y-116642293D01*
X89155302Y-117020648D01*
X89586931Y-117309054D01*
X89632599Y-117377401D01*
X90902599Y-118647401D01*
X91149160Y-118812148D01*
X91440000Y-118870000D01*
X105482537Y-118870000D01*
X105514673Y-118902192D01*
X105858201Y-119044838D01*
X105920000Y-119044892D01*
X105920000Y-120087537D01*
X105887808Y-120119673D01*
X105745162Y-120463201D01*
X105745108Y-120525000D01*
X86039802Y-120525000D01*
X85850000Y-120335198D01*
X85850000Y-117417440D01*
X85890000Y-117417440D01*
X86125317Y-117373162D01*
X86341441Y-117234090D01*
X86486431Y-117021890D01*
X86521906Y-116846709D01*
X86705104Y-117074500D01*
X87198181Y-117344367D01*
X87280961Y-117361904D01*
X87503000Y-117239915D01*
X87503000Y-115697000D01*
X87483000Y-115697000D01*
X87483000Y-115443000D01*
X87503000Y-115443000D01*
X87503000Y-113900085D01*
X87280961Y-113778096D01*
X87198181Y-113795633D01*
X86705104Y-114065500D01*
X86522798Y-114292182D01*
X86493162Y-114134683D01*
X86354090Y-113918559D01*
X86141890Y-113773569D01*
X85890000Y-113722560D01*
X84290000Y-113722560D01*
X84054683Y-113766838D01*
X83838559Y-113905910D01*
X83693569Y-114118110D01*
X83642560Y-114370000D01*
X83642560Y-116770000D01*
X83686838Y-117005317D01*
X83825910Y-117221441D01*
X84038110Y-117366431D01*
X84290000Y-117417440D01*
X84330000Y-117417440D01*
X84330000Y-120650000D01*
X84387852Y-120940839D01*
X84552599Y-121187401D01*
X85187599Y-121822401D01*
X85434161Y-121987148D01*
X85725000Y-122045000D01*
X107950000Y-122045000D01*
X108240839Y-121987148D01*
X108487401Y-121822401D01*
X110804802Y-119505000D01*
X117795198Y-119505000D01*
X119714878Y-121424680D01*
X119714838Y-121470167D01*
X119856883Y-121813943D01*
X120119673Y-122077192D01*
X120463201Y-122219838D01*
X120835167Y-122220162D01*
X121178943Y-122078117D01*
X121442192Y-121815327D01*
X121584838Y-121471799D01*
X121585162Y-121099833D01*
X121443117Y-120756057D01*
X121180327Y-120492808D01*
X120836799Y-120350162D01*
X120789923Y-120350121D01*
X119309802Y-118870000D01*
X124145198Y-118870000D01*
X126240000Y-120964802D01*
X126240000Y-123822046D01*
X125949946Y-124015853D01*
X125722298Y-124356553D01*
X125655183Y-124213642D01*
X125226924Y-123823355D01*
X124816890Y-123653524D01*
X124587000Y-123774845D01*
X124587000Y-124968000D01*
X124607000Y-124968000D01*
X124607000Y-125222000D01*
X124587000Y-125222000D01*
X124587000Y-125242000D01*
X124333000Y-125242000D01*
X124333000Y-125222000D01*
X124313000Y-125222000D01*
X124313000Y-124968000D01*
X124333000Y-124968000D01*
X124333000Y-123774845D01*
X124103110Y-123653524D01*
X123693076Y-123823355D01*
X123264817Y-124213642D01*
X123197702Y-124356553D01*
X122970054Y-124015853D01*
X122488285Y-123693946D01*
X121920000Y-123580907D01*
X121351715Y-123693946D01*
X120869946Y-124015853D01*
X120650000Y-124345026D01*
X120430054Y-124015853D01*
X119948285Y-123693946D01*
X119380000Y-123580907D01*
X118811715Y-123693946D01*
X118329946Y-124015853D01*
X118110000Y-124345026D01*
X117890054Y-124015853D01*
X117408285Y-123693946D01*
X116840000Y-123580907D01*
X116271715Y-123693946D01*
X115789946Y-124015853D01*
X115570000Y-124345026D01*
X115350054Y-124015853D01*
X114868285Y-123693946D01*
X114300000Y-123580907D01*
X113731715Y-123693946D01*
X113249946Y-124015853D01*
X113030000Y-124345026D01*
X112810054Y-124015853D01*
X112328285Y-123693946D01*
X111760000Y-123580907D01*
X111191715Y-123693946D01*
X110709946Y-124015853D01*
X110490000Y-124345026D01*
X110270054Y-124015853D01*
X109788285Y-123693946D01*
X109220000Y-123580907D01*
X108651715Y-123693946D01*
X108169946Y-124015853D01*
X107950000Y-124345026D01*
X107730054Y-124015853D01*
X107248285Y-123693946D01*
X106680000Y-123580907D01*
X106111715Y-123693946D01*
X105629946Y-124015853D01*
X105410000Y-124345026D01*
X105190054Y-124015853D01*
X104708285Y-123693946D01*
X104140000Y-123580907D01*
X103571715Y-123693946D01*
X103089946Y-124015853D01*
X102870000Y-124345026D01*
X102650054Y-124015853D01*
X102168285Y-123693946D01*
X101600000Y-123580907D01*
X101031715Y-123693946D01*
X100549946Y-124015853D01*
X100330000Y-124345026D01*
X100110054Y-124015853D01*
X99628285Y-123693946D01*
X99060000Y-123580907D01*
X98491715Y-123693946D01*
X98009946Y-124015853D01*
X97790000Y-124345026D01*
X97570054Y-124015853D01*
X97088285Y-123693946D01*
X96520000Y-123580907D01*
X95951715Y-123693946D01*
X95469946Y-124015853D01*
X95250000Y-124345026D01*
X95030054Y-124015853D01*
X94548285Y-123693946D01*
X93980000Y-123580907D01*
X93411715Y-123693946D01*
X92929946Y-124015853D01*
X92710000Y-124345026D01*
X92490054Y-124015853D01*
X92008285Y-123693946D01*
X91440000Y-123580907D01*
X90871715Y-123693946D01*
X90389946Y-124015853D01*
X90170000Y-124345026D01*
X89950054Y-124015853D01*
X89468285Y-123693946D01*
X88900000Y-123580907D01*
X88331715Y-123693946D01*
X87849946Y-124015853D01*
X87630000Y-124345026D01*
X87410054Y-124015853D01*
X86928285Y-123693946D01*
X86360000Y-123580907D01*
X85791715Y-123693946D01*
X85309946Y-124015853D01*
X85090000Y-124345026D01*
X84870054Y-124015853D01*
X84388285Y-123693946D01*
X83820000Y-123580907D01*
X83251715Y-123693946D01*
X82769946Y-124015853D01*
X82742150Y-124057452D01*
X82733162Y-124009683D01*
X82594090Y-123793559D01*
X82381890Y-123648569D01*
X82130000Y-123597560D01*
X80430000Y-123597560D01*
X80313600Y-123619462D01*
X80313600Y-108077000D01*
X83655000Y-108077000D01*
X83655000Y-108477000D01*
X83812834Y-109016483D01*
X84165104Y-109454500D01*
X84658181Y-109724367D01*
X84740961Y-109741904D01*
X84963000Y-109619915D01*
X84963000Y-108077000D01*
X83655000Y-108077000D01*
X80313600Y-108077000D01*
X80313600Y-107423000D01*
X83655000Y-107423000D01*
X83655000Y-107823000D01*
X84963000Y-107823000D01*
X84963000Y-106280085D01*
X84740961Y-106158096D01*
X84658181Y-106175633D01*
X84165104Y-106445500D01*
X83812834Y-106883517D01*
X83655000Y-107423000D01*
X80313600Y-107423000D01*
X80313600Y-92140492D01*
X81206472Y-91247619D01*
X85394613Y-91247619D01*
X85734155Y-92069372D01*
X86362321Y-92698636D01*
X87183481Y-93039611D01*
X88072619Y-93040387D01*
X88894372Y-92700845D01*
X89523636Y-92072679D01*
X89864611Y-91251519D01*
X89865387Y-90362381D01*
X89525845Y-89540628D01*
X88897679Y-88911364D01*
X88076519Y-88570389D01*
X87187381Y-88569613D01*
X86365628Y-88909155D01*
X85736364Y-89537321D01*
X85395389Y-90358481D01*
X85394613Y-91247619D01*
X81206472Y-91247619D01*
X93428341Y-79025750D01*
X96940000Y-79025750D01*
X96940000Y-79716309D01*
X97036673Y-79949698D01*
X97215301Y-80128327D01*
X97448690Y-80225000D01*
X98139250Y-80225000D01*
X98298000Y-80066250D01*
X98298000Y-78867000D01*
X97098750Y-78867000D01*
X96940000Y-79025750D01*
X93428341Y-79025750D01*
X94909091Y-77545000D01*
X97030585Y-77545000D01*
X96940000Y-77763691D01*
X96940000Y-77763691D01*
G37*
X96940000Y-77763691D02*
X96940000Y-78454250D01*
X97098750Y-78613000D01*
X98298000Y-78613000D01*
X98298000Y-78593000D01*
X98552000Y-78593000D01*
X98552000Y-78613000D01*
X98572000Y-78613000D01*
X98572000Y-78867000D01*
X98552000Y-78867000D01*
X98552000Y-80066250D01*
X98710750Y-80225000D01*
X99401310Y-80225000D01*
X99634699Y-80128327D01*
X99813327Y-79949698D01*
X99885597Y-79775223D01*
X99914946Y-79819147D01*
X100396715Y-80141054D01*
X100965000Y-80254093D01*
X101533285Y-80141054D01*
X102015054Y-79819147D01*
X102235000Y-79489974D01*
X102454946Y-79819147D01*
X102936715Y-80141054D01*
X103505000Y-80254093D01*
X104073285Y-80141054D01*
X104555054Y-79819147D01*
X104775000Y-79489974D01*
X104994946Y-79819147D01*
X105476715Y-80141054D01*
X106045000Y-80254093D01*
X106613285Y-80141054D01*
X107095054Y-79819147D01*
X107315000Y-79489974D01*
X107534946Y-79819147D01*
X108016715Y-80141054D01*
X108585000Y-80254093D01*
X109153285Y-80141054D01*
X109635054Y-79819147D01*
X109855000Y-79489974D01*
X110074946Y-79819147D01*
X110556715Y-80141054D01*
X111125000Y-80254093D01*
X111693285Y-80141054D01*
X112175054Y-79819147D01*
X112395000Y-79489974D01*
X112614946Y-79819147D01*
X113096715Y-80141054D01*
X113665000Y-80254093D01*
X114233285Y-80141054D01*
X114715054Y-79819147D01*
X114935000Y-79489974D01*
X115154946Y-79819147D01*
X115445000Y-80012954D01*
X115445000Y-81915000D01*
X115502852Y-82205839D01*
X115667599Y-82452401D01*
X119477599Y-86262401D01*
X119724161Y-86427148D01*
X120015000Y-86485000D01*
X130495198Y-86485000D01*
X130907599Y-86897401D01*
X131154161Y-87062148D01*
X131445000Y-87120000D01*
X132785198Y-87120000D01*
X130272599Y-89632599D01*
X130107852Y-89879161D01*
X130050000Y-90170000D01*
X130050000Y-92889453D01*
X129743628Y-93016043D01*
X129212907Y-93545839D01*
X128925328Y-94238405D01*
X128924674Y-94988305D01*
X129211043Y-95681372D01*
X129740839Y-96212093D01*
X130433405Y-96499672D01*
X131025010Y-96500188D01*
X128130320Y-99394878D01*
X128084833Y-99394838D01*
X127741057Y-99536883D01*
X127477808Y-99799673D01*
X127335162Y-100143201D01*
X127334838Y-100515167D01*
X127476883Y-100858943D01*
X127739673Y-101122192D01*
X128083201Y-101264838D01*
X128455167Y-101265162D01*
X128798943Y-101123117D01*
X129062192Y-100860327D01*
X129204838Y-100516799D01*
X129204879Y-100469923D01*
X129735615Y-99939187D01*
X135089752Y-99939187D01*
X135307757Y-100466800D01*
X135711077Y-100870824D01*
X136238309Y-101089750D01*
X136809187Y-101090248D01*
X137336800Y-100872243D01*
X137740824Y-100468923D01*
X137959750Y-99941691D01*
X137960248Y-99370813D01*
X137742243Y-98843200D01*
X137338923Y-98439176D01*
X136811691Y-98220250D01*
X136240813Y-98219752D01*
X135713200Y-98437757D01*
X135309176Y-98841077D01*
X135090250Y-99368309D01*
X135089752Y-99939187D01*
X129735615Y-99939187D01*
X132394802Y-97280000D01*
X133422537Y-97280000D01*
X133454673Y-97312192D01*
X133798201Y-97454838D01*
X134170167Y-97455162D01*
X134513943Y-97313117D01*
X134777192Y-97050327D01*
X134919838Y-96706799D01*
X134920162Y-96334833D01*
X134778117Y-95991057D01*
X134515327Y-95727808D01*
X134171799Y-95585162D01*
X133799833Y-95584838D01*
X133456057Y-95726883D01*
X133422882Y-95760000D01*
X132331122Y-95760000D01*
X132407093Y-95684161D01*
X132694672Y-94991595D01*
X132695326Y-94241695D01*
X132408957Y-93548628D01*
X131879161Y-93017907D01*
X131570000Y-92889532D01*
X131570000Y-90484802D01*
X133664802Y-88390000D01*
X138129890Y-88390000D01*
X138129838Y-88450167D01*
X138271883Y-88793943D01*
X138534673Y-89057192D01*
X138878201Y-89199838D01*
X138925077Y-89199879D01*
X141702599Y-91977401D01*
X141949161Y-92142148D01*
X142240000Y-92200000D01*
X145114890Y-92200000D01*
X145114838Y-92260167D01*
X145256883Y-92603943D01*
X145519673Y-92867192D01*
X145863201Y-93009838D01*
X145910077Y-93009879D01*
X147417599Y-94517401D01*
X147664161Y-94682148D01*
X147955000Y-94740000D01*
X150779168Y-94740000D01*
X150949352Y-94994698D01*
X151331438Y-95250000D01*
X150949352Y-95505302D01*
X150779168Y-95760000D01*
X142167463Y-95760000D01*
X142135327Y-95727808D01*
X141791799Y-95585162D01*
X141419833Y-95584838D01*
X141076057Y-95726883D01*
X140812808Y-95989673D01*
X140670162Y-96333201D01*
X140669838Y-96705167D01*
X140811883Y-97048943D01*
X141074673Y-97312192D01*
X141418201Y-97454838D01*
X141790167Y-97455162D01*
X142133943Y-97313117D01*
X142167118Y-97280000D01*
X143895831Y-97280000D01*
X143564176Y-97611077D01*
X143345250Y-98138309D01*
X143344752Y-98709187D01*
X143562757Y-99236800D01*
X143966077Y-99640824D01*
X144493309Y-99859750D01*
X145064187Y-99860248D01*
X145591800Y-99642243D01*
X145995824Y-99238923D01*
X146214750Y-98711691D01*
X146215248Y-98140813D01*
X145997243Y-97613200D01*
X145664624Y-97280000D01*
X150779168Y-97280000D01*
X150949352Y-97534698D01*
X151331438Y-97790000D01*
X150949352Y-98045302D01*
X150638283Y-98510849D01*
X150529050Y-99060000D01*
X150638283Y-99609151D01*
X150949352Y-100074698D01*
X151331438Y-100330000D01*
X150949352Y-100585302D01*
X150638283Y-101050849D01*
X150529050Y-101600000D01*
X150638283Y-102149151D01*
X150949352Y-102614698D01*
X151331438Y-102870000D01*
X150949352Y-103125302D01*
X150638283Y-103590849D01*
X150529050Y-104140000D01*
X150594775Y-104470423D01*
X149145198Y-105920000D01*
X139627463Y-105920000D01*
X139595327Y-105887808D01*
X139251799Y-105745162D01*
X138879833Y-105744838D01*
X138536057Y-105886883D01*
X138272808Y-106149673D01*
X138130162Y-106493201D01*
X138129838Y-106865167D01*
X138271883Y-107208943D01*
X138534673Y-107472192D01*
X138878201Y-107614838D01*
X139250167Y-107615162D01*
X139593943Y-107473117D01*
X139627118Y-107440000D01*
X140823025Y-107440000D01*
X140793569Y-107483110D01*
X140742560Y-107735000D01*
X140742560Y-107775000D01*
X136225513Y-107775000D01*
X135430000Y-106979488D01*
X135430000Y-105662745D01*
X135696861Y-105662745D01*
X135770995Y-105908864D01*
X136308223Y-106101965D01*
X136878454Y-106074778D01*
X137279005Y-105908864D01*
X137353139Y-105662745D01*
X136525000Y-104834605D01*
X135696861Y-105662745D01*
X135430000Y-105662745D01*
X135430000Y-105456857D01*
X135517255Y-105483139D01*
X136345395Y-104655000D01*
X136704605Y-104655000D01*
X137532745Y-105483139D01*
X137778864Y-105409005D01*
X137971965Y-104871777D01*
X137944778Y-104301546D01*
X137778864Y-103900995D01*
X137532745Y-103826861D01*
X136704605Y-104655000D01*
X136345395Y-104655000D01*
X135517255Y-103826861D01*
X135430000Y-103853143D01*
X135430000Y-103647255D01*
X135696861Y-103647255D01*
X136525000Y-104475395D01*
X137289644Y-103710750D01*
X143345000Y-103710750D01*
X143345000Y-104351309D01*
X143441673Y-104584698D01*
X143620301Y-104763327D01*
X143853690Y-104860000D01*
X144494250Y-104860000D01*
X144653000Y-104701250D01*
X144653000Y-103552000D01*
X144907000Y-103552000D01*
X144907000Y-104701250D01*
X145065750Y-104860000D01*
X145706310Y-104860000D01*
X145939699Y-104763327D01*
X146118327Y-104584698D01*
X146215000Y-104351309D01*
X146215000Y-103710750D01*
X146056250Y-103552000D01*
X144907000Y-103552000D01*
X144653000Y-103552000D01*
X143503750Y-103552000D01*
X143345000Y-103710750D01*
X137289644Y-103710750D01*
X137353139Y-103647255D01*
X137279005Y-103401136D01*
X136741777Y-103208035D01*
X136171546Y-103235222D01*
X135770995Y-103401136D01*
X135696861Y-103647255D01*
X135430000Y-103647255D01*
X135430000Y-102498691D01*
X143345000Y-102498691D01*
X143345000Y-103139250D01*
X143503750Y-103298000D01*
X144653000Y-103298000D01*
X144653000Y-102148750D01*
X144907000Y-102148750D01*
X144907000Y-103298000D01*
X146056250Y-103298000D01*
X146215000Y-103139250D01*
X146215000Y-102498691D01*
X146118327Y-102265302D01*
X145939699Y-102086673D01*
X145706310Y-101990000D01*
X145065750Y-101990000D01*
X144907000Y-102148750D01*
X144653000Y-102148750D01*
X144494250Y-101990000D01*
X143853690Y-101990000D01*
X143620301Y-102086673D01*
X143441673Y-102265302D01*
X143345000Y-102498691D01*
X135430000Y-102498691D01*
X135430000Y-102087441D01*
X135554838Y-101786799D01*
X135555162Y-101414833D01*
X135413117Y-101071057D01*
X135150327Y-100807808D01*
X134806799Y-100665162D01*
X134434833Y-100664838D01*
X134091057Y-100806883D01*
X133827808Y-101069673D01*
X133685162Y-101413201D01*
X133684838Y-101785167D01*
X133810000Y-102088083D01*
X133810000Y-107315000D01*
X133871658Y-107624974D01*
X134024170Y-107853223D01*
X134047244Y-107887756D01*
X135317243Y-109157756D01*
X135410398Y-109220000D01*
X135580026Y-109333342D01*
X135607054Y-109338718D01*
X135309176Y-109636077D01*
X135090250Y-110163309D01*
X135089752Y-110734187D01*
X135307757Y-111261800D01*
X135711077Y-111665824D01*
X136238309Y-111884750D01*
X136809187Y-111885248D01*
X137336800Y-111667243D01*
X137740824Y-111263923D01*
X137959750Y-110736691D01*
X137960248Y-110165813D01*
X137742243Y-109638200D01*
X137499467Y-109395000D01*
X140742560Y-109395000D01*
X140742560Y-109435000D01*
X140786838Y-109670317D01*
X140925910Y-109886441D01*
X141138110Y-110031431D01*
X141205541Y-110045086D01*
X141160853Y-110074946D01*
X140838946Y-110556715D01*
X140725907Y-111125000D01*
X140838946Y-111693285D01*
X141160853Y-112175054D01*
X141501553Y-112402702D01*
X141358642Y-112469817D01*
X140968355Y-112898076D01*
X140798524Y-113308110D01*
X140919845Y-113538000D01*
X142113000Y-113538000D01*
X142113000Y-113518000D01*
X142367000Y-113518000D01*
X142367000Y-113538000D01*
X143560155Y-113538000D01*
X143681476Y-113308110D01*
X143641775Y-113212255D01*
X147126861Y-113212255D01*
X147955000Y-114040395D01*
X148783139Y-113212255D01*
X148709005Y-112966136D01*
X148171777Y-112773035D01*
X147601546Y-112800222D01*
X147200995Y-112966136D01*
X147126861Y-113212255D01*
X143641775Y-113212255D01*
X143511645Y-112898076D01*
X143121358Y-112469817D01*
X142978447Y-112402702D01*
X143319147Y-112175054D01*
X143641054Y-111693285D01*
X143754093Y-111125000D01*
X143641054Y-110556715D01*
X143319147Y-110074946D01*
X143277548Y-110047150D01*
X143325317Y-110038162D01*
X143541441Y-109899090D01*
X143686431Y-109686890D01*
X143723429Y-109504187D01*
X146519752Y-109504187D01*
X146737757Y-110031800D01*
X147141077Y-110435824D01*
X147668309Y-110654750D01*
X148239187Y-110655248D01*
X148766800Y-110437243D01*
X149170824Y-110033923D01*
X149389750Y-109506691D01*
X149390248Y-108935813D01*
X149172243Y-108408200D01*
X148768923Y-108004176D01*
X148241691Y-107785250D01*
X147670813Y-107784752D01*
X147143200Y-108002757D01*
X146739176Y-108406077D01*
X146520250Y-108933309D01*
X146519752Y-109504187D01*
X143723429Y-109504187D01*
X143737440Y-109435000D01*
X143737440Y-107735000D01*
X143693162Y-107499683D01*
X143654757Y-107440000D01*
X149460000Y-107440000D01*
X149750839Y-107382148D01*
X149997401Y-107217401D01*
X150530004Y-106684798D01*
X150638283Y-107229151D01*
X150949352Y-107694698D01*
X151327707Y-107947507D01*
X150895500Y-108295104D01*
X150625633Y-108788181D01*
X150608096Y-108870961D01*
X150730085Y-109093000D01*
X152273000Y-109093000D01*
X152273000Y-109073000D01*
X152527000Y-109073000D01*
X152527000Y-109093000D01*
X154069915Y-109093000D01*
X154191904Y-108870961D01*
X154174367Y-108788181D01*
X153904500Y-108295104D01*
X153472293Y-107947507D01*
X153850648Y-107694698D01*
X154161717Y-107229151D01*
X154270950Y-106680000D01*
X154161717Y-106130849D01*
X153850648Y-105665302D01*
X153468562Y-105410000D01*
X153850648Y-105154698D01*
X154161717Y-104689151D01*
X154270950Y-104140000D01*
X154161717Y-103590849D01*
X153850648Y-103125302D01*
X153468562Y-102870000D01*
X153850648Y-102614698D01*
X154161717Y-102149151D01*
X154270950Y-101600000D01*
X154161717Y-101050849D01*
X153850648Y-100585302D01*
X153468562Y-100330000D01*
X153850648Y-100074698D01*
X154161717Y-99609151D01*
X154270950Y-99060000D01*
X154161717Y-98510849D01*
X153850648Y-98045302D01*
X153468562Y-97790000D01*
X153850648Y-97534698D01*
X154161717Y-97069151D01*
X154270950Y-96520000D01*
X154161717Y-95970849D01*
X153850648Y-95505302D01*
X153468562Y-95250000D01*
X153850648Y-94994698D01*
X154161717Y-94529151D01*
X154270950Y-93980000D01*
X154161717Y-93430849D01*
X153850648Y-92965302D01*
X153468562Y-92710000D01*
X153850648Y-92454698D01*
X154161717Y-91989151D01*
X154270950Y-91440000D01*
X154161717Y-90890849D01*
X153850648Y-90425302D01*
X153468562Y-90170000D01*
X153850648Y-89914698D01*
X154161717Y-89449151D01*
X154270950Y-88900000D01*
X154169505Y-88390000D01*
X154625198Y-88390000D01*
X155450000Y-89214802D01*
X155450000Y-102942537D01*
X155417808Y-102974673D01*
X155275162Y-103318201D01*
X155274838Y-103690167D01*
X155416883Y-104033943D01*
X155679673Y-104297192D01*
X156023201Y-104439838D01*
X156395167Y-104440162D01*
X156738943Y-104298117D01*
X157002192Y-104035327D01*
X157144838Y-103691799D01*
X157145162Y-103319833D01*
X157003117Y-102976057D01*
X156970000Y-102942882D01*
X156970000Y-88900000D01*
X156912148Y-88609161D01*
X156912148Y-88609160D01*
X156747401Y-88362599D01*
X155477401Y-87092599D01*
X155230839Y-86927852D01*
X154940000Y-86870000D01*
X154169505Y-86870000D01*
X154270950Y-86360000D01*
X154161717Y-85810849D01*
X153850648Y-85345302D01*
X153704650Y-85247749D01*
X153835317Y-85223162D01*
X154051441Y-85084090D01*
X154196431Y-84871890D01*
X154247440Y-84620000D01*
X154247440Y-83020000D01*
X154203162Y-82784683D01*
X154064090Y-82568559D01*
X153851890Y-82423569D01*
X153600000Y-82372560D01*
X151200000Y-82372560D01*
X150964683Y-82416838D01*
X150748559Y-82555910D01*
X150603569Y-82768110D01*
X150552560Y-83020000D01*
X150552560Y-84620000D01*
X150596838Y-84855317D01*
X150735910Y-85071441D01*
X150948110Y-85216431D01*
X151097074Y-85246597D01*
X150949352Y-85345302D01*
X150779168Y-85600000D01*
X139865633Y-85600000D01*
X139999838Y-85276799D01*
X140000162Y-84904833D01*
X139858117Y-84561057D01*
X139595327Y-84297808D01*
X139251799Y-84155162D01*
X139204923Y-84155121D01*
X138332401Y-83282599D01*
X138085839Y-83117852D01*
X137795000Y-83060000D01*
X125409802Y-83060000D01*
X124585000Y-82235198D01*
X124585000Y-80012954D01*
X124875054Y-79819147D01*
X125196961Y-79337378D01*
X125310000Y-78769093D01*
X125310000Y-78710907D01*
X125196961Y-78142622D01*
X124875054Y-77660853D01*
X124701667Y-77545000D01*
X173453469Y-77545000D01*
X175228673Y-77898110D01*
X176674332Y-78864068D01*
X177640290Y-80309727D01*
X177995000Y-82092971D01*
X177995000Y-123619695D01*
X177800000Y-123580907D01*
X177231715Y-123693946D01*
X176749946Y-124015853D01*
X176530000Y-124345026D01*
X176310054Y-124015853D01*
X175828285Y-123693946D01*
X175260000Y-123580907D01*
X174691715Y-123693946D01*
X174209946Y-124015853D01*
X173990000Y-124345026D01*
X173770054Y-124015853D01*
X173288285Y-123693946D01*
X172720000Y-123580907D01*
X172151715Y-123693946D01*
X171669946Y-124015853D01*
X171450000Y-124345026D01*
X171230054Y-124015853D01*
X170748285Y-123693946D01*
X170180000Y-123580907D01*
X169611715Y-123693946D01*
X169129946Y-124015853D01*
X168910000Y-124345026D01*
X168690054Y-124015853D01*
X168208285Y-123693946D01*
X167640000Y-123580907D01*
X167071715Y-123693946D01*
X166589946Y-124015853D01*
X166370000Y-124345026D01*
X166150054Y-124015853D01*
X165860000Y-123822046D01*
X165860000Y-120650000D01*
X165802148Y-120359161D01*
X165802148Y-120359160D01*
X165637401Y-120112599D01*
X164590000Y-119065198D01*
X164590000Y-111687463D01*
X164622192Y-111655327D01*
X164764838Y-111311799D01*
X164765162Y-110939833D01*
X164623117Y-110596057D01*
X164360327Y-110332808D01*
X164016799Y-110190162D01*
X163644833Y-110189838D01*
X163301057Y-110331883D01*
X163037808Y-110594673D01*
X162895162Y-110938201D01*
X162894838Y-111310167D01*
X163036883Y-111653943D01*
X163070000Y-111687118D01*
X163070000Y-119380000D01*
X163087431Y-119467629D01*
X162685000Y-119065198D01*
X162685000Y-111687463D01*
X162717192Y-111655327D01*
X162859838Y-111311799D01*
X162860162Y-110939833D01*
X162718117Y-110596057D01*
X162455327Y-110332808D01*
X162111799Y-110190162D01*
X161739833Y-110189838D01*
X161396057Y-110331883D01*
X161290046Y-110437710D01*
X161185327Y-110332808D01*
X160841799Y-110190162D01*
X160469833Y-110189838D01*
X160126057Y-110331883D01*
X159862808Y-110594673D01*
X159720162Y-110938201D01*
X159719838Y-111310167D01*
X159861883Y-111653943D01*
X159895000Y-111687118D01*
X159895000Y-119700198D01*
X159482599Y-120112599D01*
X159317852Y-120359161D01*
X159260000Y-120650000D01*
X159260000Y-123822046D01*
X158969946Y-124015853D01*
X158750000Y-124345026D01*
X158530054Y-124015853D01*
X158240000Y-123822046D01*
X158240000Y-121599802D01*
X158652401Y-121187401D01*
X158817148Y-120940839D01*
X158875000Y-120650000D01*
X158875000Y-111439802D01*
X160334802Y-109980000D01*
X166019168Y-109980000D01*
X166189352Y-110234698D01*
X166571438Y-110490000D01*
X166189352Y-110745302D01*
X165878283Y-111210849D01*
X165769050Y-111760000D01*
X165878283Y-112309151D01*
X166189352Y-112774698D01*
X166571438Y-113030000D01*
X166189352Y-113285302D01*
X165878283Y-113750849D01*
X165769050Y-114300000D01*
X165878283Y-114849151D01*
X166189352Y-115314698D01*
X166571438Y-115570000D01*
X166189352Y-115825302D01*
X165878283Y-116290849D01*
X165769050Y-116840000D01*
X165878283Y-117389151D01*
X166189352Y-117854698D01*
X166654899Y-118165767D01*
X167204050Y-118275000D01*
X168075950Y-118275000D01*
X168625101Y-118165767D01*
X169090648Y-117854698D01*
X169401717Y-117389151D01*
X169402604Y-117384692D01*
X169649673Y-117632192D01*
X169993201Y-117774838D01*
X170365167Y-117775162D01*
X170708943Y-117633117D01*
X170814954Y-117527290D01*
X170919673Y-117632192D01*
X171263201Y-117774838D01*
X171635167Y-117775162D01*
X171978943Y-117633117D01*
X172084954Y-117527290D01*
X172189673Y-117632192D01*
X172533201Y-117774838D01*
X172905167Y-117775162D01*
X173248943Y-117633117D01*
X173512192Y-117370327D01*
X173654838Y-117026799D01*
X173655162Y-116654833D01*
X173513117Y-116311057D01*
X173480000Y-116277882D01*
X173480000Y-111052463D01*
X173512192Y-111020327D01*
X173654838Y-110676799D01*
X173655162Y-110304833D01*
X173513117Y-109961057D01*
X173250327Y-109697808D01*
X172906799Y-109555162D01*
X172534833Y-109554838D01*
X172191057Y-109696883D01*
X172085046Y-109802710D01*
X171980327Y-109697808D01*
X171636799Y-109555162D01*
X171264833Y-109554838D01*
X170921057Y-109696883D01*
X170815046Y-109802710D01*
X170710327Y-109697808D01*
X170366799Y-109555162D01*
X169994833Y-109554838D01*
X169651057Y-109696883D01*
X169387808Y-109959673D01*
X169245162Y-110303201D01*
X169244838Y-110675167D01*
X169386883Y-111018943D01*
X169420000Y-111052118D01*
X169420000Y-111302764D01*
X169401717Y-111210849D01*
X169090648Y-110745302D01*
X168708562Y-110490000D01*
X169090648Y-110234698D01*
X169401717Y-109769151D01*
X169510950Y-109220000D01*
X169401717Y-108670849D01*
X169090648Y-108205302D01*
X168708562Y-107950000D01*
X169090648Y-107694698D01*
X169401717Y-107229151D01*
X169510950Y-106680000D01*
X169401717Y-106130849D01*
X169090648Y-105665302D01*
X168708562Y-105410000D01*
X169090648Y-105154698D01*
X169401717Y-104689151D01*
X169510950Y-104140000D01*
X169401717Y-103590849D01*
X169090648Y-103125302D01*
X168708562Y-102870000D01*
X169090648Y-102614698D01*
X169401717Y-102149151D01*
X169510950Y-101600000D01*
X169401717Y-101050849D01*
X169090648Y-100585302D01*
X168708562Y-100330000D01*
X169090648Y-100074698D01*
X169401717Y-99609151D01*
X169510950Y-99060000D01*
X169401717Y-98510849D01*
X169090648Y-98045302D01*
X168708562Y-97790000D01*
X169090648Y-97534698D01*
X169401717Y-97069151D01*
X169510950Y-96520000D01*
X169401717Y-95970849D01*
X169090648Y-95505302D01*
X168708562Y-95250000D01*
X169090648Y-94994698D01*
X169401717Y-94529151D01*
X169510950Y-93980000D01*
X169401717Y-93430849D01*
X169090648Y-92965302D01*
X168708562Y-92710000D01*
X169090648Y-92454698D01*
X169401717Y-91989151D01*
X169510950Y-91440000D01*
X169401717Y-90890849D01*
X169090648Y-90425302D01*
X168708562Y-90170000D01*
X169090648Y-89914698D01*
X169401717Y-89449151D01*
X169510950Y-88900000D01*
X169401717Y-88350849D01*
X169090648Y-87885302D01*
X168708562Y-87630000D01*
X169090648Y-87374698D01*
X169401717Y-86909151D01*
X169510950Y-86360000D01*
X169401717Y-85810849D01*
X169090648Y-85345302D01*
X168708562Y-85090000D01*
X169090648Y-84834698D01*
X169401717Y-84369151D01*
X169510950Y-83820000D01*
X169401717Y-83270849D01*
X169090648Y-82805302D01*
X168625101Y-82494233D01*
X168075950Y-82385000D01*
X167204050Y-82385000D01*
X166654899Y-82494233D01*
X166189352Y-82805302D01*
X165878283Y-83270849D01*
X165769050Y-83820000D01*
X165878283Y-84369151D01*
X166189352Y-84834698D01*
X166571438Y-85090000D01*
X166189352Y-85345302D01*
X165878283Y-85810849D01*
X165769050Y-86360000D01*
X165878283Y-86909151D01*
X166189352Y-87374698D01*
X166571438Y-87630000D01*
X166189352Y-87885302D01*
X165878283Y-88350849D01*
X165769050Y-88900000D01*
X165878283Y-89449151D01*
X166189352Y-89914698D01*
X166571438Y-90170000D01*
X166189352Y-90425302D01*
X165878283Y-90890849D01*
X165769050Y-91440000D01*
X165878283Y-91989151D01*
X166189352Y-92454698D01*
X166571438Y-92710000D01*
X166189352Y-92965302D01*
X165878283Y-93430849D01*
X165769050Y-93980000D01*
X165878283Y-94529151D01*
X166189352Y-94994698D01*
X166571438Y-95250000D01*
X166189352Y-95505302D01*
X165878283Y-95970849D01*
X165769050Y-96520000D01*
X165878283Y-97069151D01*
X166189352Y-97534698D01*
X166571438Y-97790000D01*
X166189352Y-98045302D01*
X165878283Y-98510849D01*
X165769050Y-99060000D01*
X165878283Y-99609151D01*
X166189352Y-100074698D01*
X166571438Y-100330000D01*
X166189352Y-100585302D01*
X166019168Y-100840000D01*
X165100000Y-100840000D01*
X164809160Y-100897852D01*
X164562599Y-101062599D01*
X163690320Y-101934878D01*
X163644833Y-101934838D01*
X163301057Y-102076883D01*
X163037808Y-102339673D01*
X162895162Y-102683201D01*
X162894838Y-103055167D01*
X163036883Y-103398943D01*
X163047301Y-103409379D01*
X162904160Y-103437852D01*
X162657599Y-103602599D01*
X161785320Y-104474878D01*
X161739833Y-104474838D01*
X161396057Y-104616883D01*
X161132808Y-104879673D01*
X160990162Y-105223201D01*
X160989838Y-105595167D01*
X161131883Y-105938943D01*
X161142301Y-105949379D01*
X160999161Y-105977852D01*
X160752599Y-106142599D01*
X160515320Y-106379878D01*
X160469833Y-106379838D01*
X160126057Y-106521883D01*
X159862808Y-106784673D01*
X159720162Y-107128201D01*
X159719838Y-107500167D01*
X159861883Y-107843943D01*
X160124673Y-108107192D01*
X160468201Y-108249838D01*
X160840167Y-108250162D01*
X161183943Y-108108117D01*
X161447192Y-107845327D01*
X161589838Y-107501799D01*
X161589879Y-107454923D01*
X161604802Y-107440000D01*
X166019168Y-107440000D01*
X166189352Y-107694698D01*
X166571438Y-107950000D01*
X166189352Y-108205302D01*
X166019168Y-108460000D01*
X160020000Y-108460000D01*
X159729161Y-108517852D01*
X159482599Y-108682599D01*
X157603659Y-110561539D01*
X157375327Y-110332808D01*
X157031799Y-110190162D01*
X156659833Y-110189838D01*
X156316057Y-110331883D01*
X156052808Y-110594673D01*
X155910162Y-110938201D01*
X155909838Y-111310167D01*
X156051883Y-111653943D01*
X156085000Y-111687118D01*
X156085000Y-117795198D01*
X155698659Y-118181539D01*
X155470327Y-117952808D01*
X155126799Y-117810162D01*
X154754833Y-117809838D01*
X154411057Y-117951883D01*
X154377882Y-117985000D01*
X153655638Y-117985000D01*
X153850648Y-117854698D01*
X154161717Y-117389151D01*
X154270950Y-116840000D01*
X154161717Y-116290849D01*
X153850648Y-115825302D01*
X153468562Y-115570000D01*
X153850648Y-115314698D01*
X154161717Y-114849151D01*
X154270950Y-114300000D01*
X154161717Y-113750849D01*
X153850648Y-113285302D01*
X153468562Y-113030000D01*
X153850648Y-112774698D01*
X154161717Y-112309151D01*
X154270950Y-111760000D01*
X154161717Y-111210849D01*
X153850648Y-110745302D01*
X153472293Y-110492493D01*
X153904500Y-110144896D01*
X154174367Y-109651819D01*
X154191904Y-109569039D01*
X154069915Y-109347000D01*
X152527000Y-109347000D01*
X152527000Y-109367000D01*
X152273000Y-109367000D01*
X152273000Y-109347000D01*
X150730085Y-109347000D01*
X150608096Y-109569039D01*
X150625633Y-109651819D01*
X150895500Y-110144896D01*
X151327707Y-110492493D01*
X150949352Y-110745302D01*
X150638283Y-111210849D01*
X150529050Y-111760000D01*
X150638283Y-112309151D01*
X150949352Y-112774698D01*
X151331438Y-113030000D01*
X150949352Y-113285302D01*
X150638283Y-113750849D01*
X150529050Y-114300000D01*
X150638283Y-114849151D01*
X150949352Y-115314698D01*
X151331438Y-115570000D01*
X150949352Y-115825302D01*
X150638283Y-116290849D01*
X150529050Y-116840000D01*
X150638283Y-117389151D01*
X150949352Y-117854698D01*
X151144362Y-117985000D01*
X144445110Y-117985000D01*
X144445162Y-117924833D01*
X144303117Y-117581057D01*
X144040327Y-117317808D01*
X143696799Y-117175162D01*
X143324833Y-117174838D01*
X142981057Y-117316883D01*
X142947882Y-117350000D01*
X140897463Y-117350000D01*
X140865327Y-117317808D01*
X140521799Y-117175162D01*
X140149833Y-117174838D01*
X139806057Y-117316883D01*
X139542808Y-117579673D01*
X139433235Y-117843554D01*
X139171057Y-117951883D01*
X138907808Y-118214673D01*
X138765162Y-118558201D01*
X138764838Y-118930167D01*
X138906883Y-119273943D01*
X139012710Y-119379954D01*
X138907808Y-119484673D01*
X138765162Y-119828201D01*
X138764838Y-120200167D01*
X138906883Y-120543943D01*
X139012710Y-120649954D01*
X138907808Y-120754673D01*
X138765162Y-121098201D01*
X138764838Y-121470167D01*
X138906883Y-121813943D01*
X139169673Y-122077192D01*
X139513201Y-122219838D01*
X139595288Y-122219910D01*
X139162599Y-122652599D01*
X138997852Y-122899161D01*
X138940000Y-123190000D01*
X138940000Y-123822046D01*
X138649946Y-124015853D01*
X138430000Y-124345026D01*
X138210054Y-124015853D01*
X137728285Y-123693946D01*
X137160000Y-123580907D01*
X136591715Y-123693946D01*
X136109946Y-124015853D01*
X135890000Y-124345026D01*
X135670054Y-124015853D01*
X135188285Y-123693946D01*
X134620000Y-123580907D01*
X134051715Y-123693946D01*
X133569946Y-124015853D01*
X133350000Y-124345026D01*
X133130054Y-124015853D01*
X132648285Y-123693946D01*
X132080000Y-123580907D01*
X131511715Y-123693946D01*
X131029946Y-124015853D01*
X130810000Y-124345026D01*
X130590054Y-124015853D01*
X130108285Y-123693946D01*
X129540000Y-123580907D01*
X128971715Y-123693946D01*
X128489946Y-124015853D01*
X128270000Y-124345026D01*
X128050054Y-124015853D01*
X127760000Y-123822046D01*
X127760000Y-122220110D01*
X127820167Y-122220162D01*
X128163943Y-122078117D01*
X128197118Y-122045000D01*
X133422537Y-122045000D01*
X133454673Y-122077192D01*
X133798201Y-122219838D01*
X134170167Y-122220162D01*
X134513943Y-122078117D01*
X134777192Y-121815327D01*
X134886765Y-121551446D01*
X135148943Y-121443117D01*
X135412192Y-121180327D01*
X135536622Y-120880668D01*
X135703201Y-120949838D01*
X136075167Y-120950162D01*
X136418943Y-120808117D01*
X136682192Y-120545327D01*
X136824838Y-120201799D01*
X136825162Y-119829833D01*
X136683117Y-119486057D01*
X136420327Y-119222808D01*
X136156446Y-119113235D01*
X136048117Y-118851057D01*
X135785327Y-118587808D01*
X135521446Y-118478235D01*
X135413117Y-118216057D01*
X135150327Y-117952808D01*
X134886446Y-117843235D01*
X134778117Y-117581057D01*
X134515327Y-117317808D01*
X134171799Y-117175162D01*
X133799833Y-117174838D01*
X133456057Y-117316883D01*
X133422882Y-117350000D01*
X132537236Y-117350000D01*
X132629151Y-117331717D01*
X133094698Y-117020648D01*
X133405767Y-116555101D01*
X133425132Y-116457745D01*
X135696861Y-116457745D01*
X135770995Y-116703864D01*
X136308223Y-116896965D01*
X136878454Y-116869778D01*
X137279005Y-116703864D01*
X137353139Y-116457745D01*
X136525000Y-115629605D01*
X135696861Y-116457745D01*
X133425132Y-116457745D01*
X133515000Y-116005950D01*
X133515000Y-115233223D01*
X135078035Y-115233223D01*
X135105222Y-115803454D01*
X135271136Y-116204005D01*
X135517255Y-116278139D01*
X136345395Y-115450000D01*
X136704605Y-115450000D01*
X137532745Y-116278139D01*
X137778864Y-116204005D01*
X137971965Y-115666777D01*
X137951034Y-115227745D01*
X147126861Y-115227745D01*
X147200995Y-115473864D01*
X147738223Y-115666965D01*
X148308454Y-115639778D01*
X148709005Y-115473864D01*
X148783139Y-115227745D01*
X147955000Y-114399605D01*
X147126861Y-115227745D01*
X137951034Y-115227745D01*
X137944778Y-115096546D01*
X137778864Y-114695995D01*
X137532745Y-114621861D01*
X136704605Y-115450000D01*
X136345395Y-115450000D01*
X135517255Y-114621861D01*
X135271136Y-114695995D01*
X135078035Y-115233223D01*
X133515000Y-115233223D01*
X133515000Y-115134050D01*
X133405767Y-114584899D01*
X133310456Y-114442255D01*
X135696861Y-114442255D01*
X136525000Y-115270395D01*
X137353139Y-114442255D01*
X137279005Y-114196136D01*
X136794234Y-114021890D01*
X140798524Y-114021890D01*
X140968355Y-114431924D01*
X141358642Y-114860183D01*
X141883108Y-115106486D01*
X142113000Y-114985819D01*
X142113000Y-113792000D01*
X142367000Y-113792000D01*
X142367000Y-114985819D01*
X142596892Y-115106486D01*
X143121358Y-114860183D01*
X143511645Y-114431924D01*
X143681476Y-114021890D01*
X143671625Y-114003223D01*
X146508035Y-114003223D01*
X146535222Y-114573454D01*
X146701136Y-114974005D01*
X146947255Y-115048139D01*
X147775395Y-114220000D01*
X148134605Y-114220000D01*
X148962745Y-115048139D01*
X149208864Y-114974005D01*
X149401965Y-114436777D01*
X149374778Y-113866546D01*
X149208864Y-113465995D01*
X148962745Y-113391861D01*
X148134605Y-114220000D01*
X147775395Y-114220000D01*
X146947255Y-113391861D01*
X146701136Y-113465995D01*
X146508035Y-114003223D01*
X143671625Y-114003223D01*
X143560155Y-113792000D01*
X142367000Y-113792000D01*
X142113000Y-113792000D01*
X140919845Y-113792000D01*
X140798524Y-114021890D01*
X136794234Y-114021890D01*
X136741777Y-114003035D01*
X136171546Y-114030222D01*
X135770995Y-114196136D01*
X135696861Y-114442255D01*
X133310456Y-114442255D01*
X133094698Y-114119352D01*
X132629151Y-113808283D01*
X132080000Y-113699050D01*
X131530849Y-113808283D01*
X131065302Y-114119352D01*
X130810000Y-114501438D01*
X130554698Y-114119352D01*
X130089151Y-113808283D01*
X129540000Y-113699050D01*
X128990849Y-113808283D01*
X128525302Y-114119352D01*
X128270000Y-114501438D01*
X128014698Y-114119352D01*
X127549151Y-113808283D01*
X127000000Y-113699050D01*
X126450849Y-113808283D01*
X125985302Y-114119352D01*
X125730000Y-114501438D01*
X125499032Y-114155770D01*
X126267401Y-113387401D01*
X126432148Y-113140840D01*
X126490000Y-112850000D01*
X126490000Y-111052463D01*
X126522192Y-111020327D01*
X126664838Y-110676799D01*
X126665162Y-110304833D01*
X126523117Y-109961057D01*
X126260327Y-109697808D01*
X125916799Y-109555162D01*
X125544833Y-109554838D01*
X125201057Y-109696883D01*
X124937808Y-109959673D01*
X124795162Y-110303201D01*
X124794838Y-110675167D01*
X124936883Y-111018943D01*
X124970000Y-111052118D01*
X124970000Y-112535198D01*
X123922599Y-113582599D01*
X123757852Y-113829161D01*
X123739190Y-113922982D01*
X123445302Y-114119352D01*
X123190000Y-114501438D01*
X122934698Y-114119352D01*
X122469151Y-113808283D01*
X121920000Y-113699050D01*
X121370849Y-113808283D01*
X120905302Y-114119352D01*
X120650000Y-114501438D01*
X120394698Y-114119352D01*
X119929151Y-113808283D01*
X119384798Y-113700004D01*
X121199802Y-111885000D01*
X123262537Y-111885000D01*
X123294673Y-111917192D01*
X123638201Y-112059838D01*
X124010167Y-112060162D01*
X124353943Y-111918117D01*
X124617192Y-111655327D01*
X124759838Y-111311799D01*
X124760162Y-110939833D01*
X124618117Y-110596057D01*
X124355327Y-110332808D01*
X124011799Y-110190162D01*
X123639833Y-110189838D01*
X123296057Y-110331883D01*
X123262882Y-110365000D01*
X120885000Y-110365000D01*
X120594161Y-110422852D01*
X120347599Y-110587599D01*
X117212638Y-113722560D01*
X116040000Y-113722560D01*
X115804683Y-113766838D01*
X115588559Y-113905910D01*
X115443569Y-114118110D01*
X115392560Y-114370000D01*
X115392560Y-116770000D01*
X115436838Y-117005317D01*
X115575910Y-117221441D01*
X115764062Y-117350000D01*
X108407236Y-117350000D01*
X108499151Y-117331717D01*
X108964698Y-117020648D01*
X109275767Y-116555101D01*
X109385000Y-116005950D01*
X109385000Y-115134050D01*
X109275767Y-114584899D01*
X108964698Y-114119352D01*
X108499151Y-113808283D01*
X107950000Y-113699050D01*
X107440000Y-113800495D01*
X107440000Y-113665000D01*
X107382148Y-113374161D01*
X107368802Y-113354187D01*
X110959752Y-113354187D01*
X111177757Y-113881800D01*
X111581077Y-114285824D01*
X112108309Y-114504750D01*
X112679187Y-114505248D01*
X113206800Y-114287243D01*
X113610824Y-113883923D01*
X113829750Y-113356691D01*
X113830248Y-112785813D01*
X113612243Y-112258200D01*
X113208923Y-111854176D01*
X112681691Y-111635250D01*
X112110813Y-111634752D01*
X111583200Y-111852757D01*
X111179176Y-112256077D01*
X110960250Y-112783309D01*
X110959752Y-113354187D01*
X107368802Y-113354187D01*
X107217401Y-113127599D01*
X103648364Y-109558562D01*
X103884698Y-109400648D01*
X104140000Y-109018562D01*
X104395302Y-109400648D01*
X104860849Y-109711717D01*
X105410000Y-109820950D01*
X105959151Y-109711717D01*
X106424698Y-109400648D01*
X106680000Y-109018562D01*
X106935302Y-109400648D01*
X107400849Y-109711717D01*
X107950000Y-109820950D01*
X108499151Y-109711717D01*
X108964698Y-109400648D01*
X109180455Y-109077745D01*
X111566861Y-109077745D01*
X111640995Y-109323864D01*
X112178223Y-109516965D01*
X112748454Y-109489778D01*
X113149005Y-109323864D01*
X113223139Y-109077745D01*
X112395000Y-108249605D01*
X111566861Y-109077745D01*
X109180455Y-109077745D01*
X109275767Y-108935101D01*
X109385000Y-108385950D01*
X109385000Y-107853223D01*
X110948035Y-107853223D01*
X110975222Y-108423454D01*
X111141136Y-108824005D01*
X111387255Y-108898139D01*
X112215395Y-108070000D01*
X112574605Y-108070000D01*
X113402745Y-108898139D01*
X113648864Y-108824005D01*
X113841965Y-108286777D01*
X113831964Y-108077000D01*
X115405000Y-108077000D01*
X115405000Y-108477000D01*
X115562834Y-109016483D01*
X115915104Y-109454500D01*
X116408181Y-109724367D01*
X116490961Y-109741904D01*
X116713000Y-109619915D01*
X116713000Y-108077000D01*
X115405000Y-108077000D01*
X113831964Y-108077000D01*
X113814778Y-107716546D01*
X113693188Y-107423000D01*
X115405000Y-107423000D01*
X115405000Y-107823000D01*
X116713000Y-107823000D01*
X116713000Y-106280085D01*
X116967000Y-106280085D01*
X116967000Y-107823000D01*
X116987000Y-107823000D01*
X116987000Y-108077000D01*
X116967000Y-108077000D01*
X116967000Y-109619915D01*
X117189039Y-109741904D01*
X117271819Y-109724367D01*
X117764896Y-109454500D01*
X118112493Y-109022293D01*
X118365302Y-109400648D01*
X118830849Y-109711717D01*
X119380000Y-109820950D01*
X119929151Y-109711717D01*
X120394698Y-109400648D01*
X120647507Y-109022293D01*
X120995104Y-109454500D01*
X121488181Y-109724367D01*
X121570961Y-109741904D01*
X121793000Y-109619915D01*
X121793000Y-108077000D01*
X122047000Y-108077000D01*
X122047000Y-109619915D01*
X122269039Y-109741904D01*
X122351819Y-109724367D01*
X122844896Y-109454500D01*
X123190000Y-109025393D01*
X123535104Y-109454500D01*
X124028181Y-109724367D01*
X124110961Y-109741904D01*
X124333000Y-109619915D01*
X124333000Y-108077000D01*
X122047000Y-108077000D01*
X121793000Y-108077000D01*
X121773000Y-108077000D01*
X121773000Y-107823000D01*
X121793000Y-107823000D01*
X121793000Y-106280085D01*
X122047000Y-106280085D01*
X122047000Y-107823000D01*
X124333000Y-107823000D01*
X124333000Y-106280085D01*
X124587000Y-106280085D01*
X124587000Y-107823000D01*
X124607000Y-107823000D01*
X124607000Y-108077000D01*
X124587000Y-108077000D01*
X124587000Y-109619915D01*
X124809039Y-109741904D01*
X124891819Y-109724367D01*
X125384896Y-109454500D01*
X125732493Y-109022293D01*
X125985302Y-109400648D01*
X126450849Y-109711717D01*
X127000000Y-109820950D01*
X127549151Y-109711717D01*
X128014698Y-109400648D01*
X128267507Y-109022293D01*
X128615104Y-109454500D01*
X129108181Y-109724367D01*
X129190961Y-109741904D01*
X129413000Y-109619915D01*
X129413000Y-108077000D01*
X129667000Y-108077000D01*
X129667000Y-109619915D01*
X129889039Y-109741904D01*
X129971819Y-109724367D01*
X130464896Y-109454500D01*
X130810000Y-109025393D01*
X131155104Y-109454500D01*
X131648181Y-109724367D01*
X131730961Y-109741904D01*
X131953000Y-109619915D01*
X131953000Y-108077000D01*
X132207000Y-108077000D01*
X132207000Y-109619915D01*
X132429039Y-109741904D01*
X132511819Y-109724367D01*
X133004896Y-109454500D01*
X133357166Y-109016483D01*
X133515000Y-108477000D01*
X133515000Y-108077000D01*
X132207000Y-108077000D01*
X131953000Y-108077000D01*
X129667000Y-108077000D01*
X129413000Y-108077000D01*
X129393000Y-108077000D01*
X129393000Y-107823000D01*
X129413000Y-107823000D01*
X129413000Y-106280085D01*
X129667000Y-106280085D01*
X129667000Y-107823000D01*
X131953000Y-107823000D01*
X131953000Y-106280085D01*
X132207000Y-106280085D01*
X132207000Y-107823000D01*
X133515000Y-107823000D01*
X133515000Y-107423000D01*
X133357166Y-106883517D01*
X133004896Y-106445500D01*
X132511819Y-106175633D01*
X132429039Y-106158096D01*
X132207000Y-106280085D01*
X131953000Y-106280085D01*
X131730961Y-106158096D01*
X131648181Y-106175633D01*
X131155104Y-106445500D01*
X130810000Y-106874607D01*
X130464896Y-106445500D01*
X129971819Y-106175633D01*
X129889039Y-106158096D01*
X129667000Y-106280085D01*
X129413000Y-106280085D01*
X129190961Y-106158096D01*
X129108181Y-106175633D01*
X128615104Y-106445500D01*
X128267507Y-106877707D01*
X128014698Y-106499352D01*
X127549151Y-106188283D01*
X127000000Y-106079050D01*
X126450849Y-106188283D01*
X125985302Y-106499352D01*
X125732493Y-106877707D01*
X125384896Y-106445500D01*
X124891819Y-106175633D01*
X124809039Y-106158096D01*
X124587000Y-106280085D01*
X124333000Y-106280085D01*
X124110961Y-106158096D01*
X124028181Y-106175633D01*
X123535104Y-106445500D01*
X123190000Y-106874607D01*
X122844896Y-106445500D01*
X122351819Y-106175633D01*
X122269039Y-106158096D01*
X122047000Y-106280085D01*
X121793000Y-106280085D01*
X121570961Y-106158096D01*
X121488181Y-106175633D01*
X120995104Y-106445500D01*
X120647507Y-106877707D01*
X120394698Y-106499352D01*
X119929151Y-106188283D01*
X119380000Y-106079050D01*
X118830849Y-106188283D01*
X118365302Y-106499352D01*
X118112493Y-106877707D01*
X117764896Y-106445500D01*
X117271819Y-106175633D01*
X117189039Y-106158096D01*
X116967000Y-106280085D01*
X116713000Y-106280085D01*
X116490961Y-106158096D01*
X116408181Y-106175633D01*
X115915104Y-106445500D01*
X115562834Y-106883517D01*
X115405000Y-107423000D01*
X113693188Y-107423000D01*
X113648864Y-107315995D01*
X113402745Y-107241861D01*
X112574605Y-108070000D01*
X112215395Y-108070000D01*
X111387255Y-107241861D01*
X111141136Y-107315995D01*
X110948035Y-107853223D01*
X109385000Y-107853223D01*
X109385000Y-107514050D01*
X109295133Y-107062255D01*
X111566861Y-107062255D01*
X112395000Y-107890395D01*
X113223139Y-107062255D01*
X113149005Y-106816136D01*
X112611777Y-106623035D01*
X112041546Y-106650222D01*
X111640995Y-106816136D01*
X111566861Y-107062255D01*
X109295133Y-107062255D01*
X109275767Y-106964899D01*
X108964698Y-106499352D01*
X108499151Y-106188283D01*
X107950000Y-106079050D01*
X107400849Y-106188283D01*
X106935302Y-106499352D01*
X106680000Y-106881438D01*
X106424698Y-106499352D01*
X105959151Y-106188283D01*
X105410000Y-106079050D01*
X105079577Y-106144775D01*
X103807401Y-104872599D01*
X103604709Y-104737165D01*
X103607423Y-104736041D01*
X104022389Y-104360134D01*
X104140000Y-104111633D01*
X104257611Y-104360134D01*
X104672577Y-104736041D01*
X105060961Y-104896904D01*
X105283000Y-104774915D01*
X105283000Y-103632000D01*
X105537000Y-103632000D01*
X105537000Y-104774915D01*
X105759039Y-104896904D01*
X106147423Y-104736041D01*
X106562389Y-104360134D01*
X106801914Y-103854041D01*
X106680629Y-103632000D01*
X105537000Y-103632000D01*
X105283000Y-103632000D01*
X102997000Y-103632000D01*
X102997000Y-103652000D01*
X102743000Y-103652000D01*
X102743000Y-103632000D01*
X100457000Y-103632000D01*
X100457000Y-103652000D01*
X100203000Y-103652000D01*
X100203000Y-103632000D01*
X97917000Y-103632000D01*
X97917000Y-103652000D01*
X97663000Y-103652000D01*
X97663000Y-103632000D01*
X95377000Y-103632000D01*
X95377000Y-103652000D01*
X95123000Y-103652000D01*
X95123000Y-103632000D01*
X95103000Y-103632000D01*
X95103000Y-103378000D01*
X95123000Y-103378000D01*
X95123000Y-102228750D01*
X95377000Y-102228750D01*
X95377000Y-103378000D01*
X97663000Y-103378000D01*
X97663000Y-102235085D01*
X97440961Y-102113096D01*
X97052577Y-102273959D01*
X96685000Y-102606938D01*
X96685000Y-102578691D01*
X96588327Y-102345302D01*
X96409699Y-102166673D01*
X96176310Y-102070000D01*
X95535750Y-102070000D01*
X95377000Y-102228750D01*
X95123000Y-102228750D01*
X94964250Y-102070000D01*
X94740000Y-102070000D01*
X94740000Y-97614792D01*
X95047049Y-97307743D01*
X95250000Y-97348113D01*
X95799151Y-97238880D01*
X96264698Y-96927811D01*
X96520000Y-96545725D01*
X96775302Y-96927811D01*
X97030000Y-97097995D01*
X97030000Y-100965000D01*
X97087852Y-101255839D01*
X97252599Y-101502401D01*
X97961071Y-102210873D01*
X97917000Y-102235085D01*
X97917000Y-103378000D01*
X100203000Y-103378000D01*
X100203000Y-102235085D01*
X100457000Y-102235085D01*
X100457000Y-103378000D01*
X102743000Y-103378000D01*
X102743000Y-102235085D01*
X102997000Y-102235085D01*
X102997000Y-103378000D01*
X105283000Y-103378000D01*
X105283000Y-102235085D01*
X105537000Y-102235085D01*
X105537000Y-103378000D01*
X106680629Y-103378000D01*
X106801914Y-103155959D01*
X106562389Y-102649866D01*
X106147423Y-102273959D01*
X105759039Y-102113096D01*
X105537000Y-102235085D01*
X105283000Y-102235085D01*
X105060961Y-102113096D01*
X104672577Y-102273959D01*
X104257611Y-102649866D01*
X104140000Y-102898367D01*
X104022389Y-102649866D01*
X103607423Y-102273959D01*
X103219039Y-102113096D01*
X102997000Y-102235085D01*
X102743000Y-102235085D01*
X102520961Y-102113096D01*
X102132577Y-102273959D01*
X101717611Y-102649866D01*
X101600000Y-102898367D01*
X101482389Y-102649866D01*
X101067423Y-102273959D01*
X100679039Y-102113096D01*
X100457000Y-102235085D01*
X100203000Y-102235085D01*
X99995100Y-102120864D01*
X99995162Y-102049833D01*
X99853117Y-101706057D01*
X99590327Y-101442808D01*
X99246799Y-101300162D01*
X99199923Y-101300121D01*
X98550000Y-100650198D01*
X98550000Y-100495633D01*
X98873201Y-100629838D01*
X99245167Y-100630162D01*
X99588943Y-100488117D01*
X99852192Y-100225327D01*
X99954398Y-99979187D01*
X116674752Y-99979187D01*
X116892757Y-100506800D01*
X117296077Y-100910824D01*
X117823309Y-101129750D01*
X118394187Y-101130248D01*
X118745714Y-100985000D01*
X121292560Y-100985000D01*
X121292560Y-103485000D01*
X121336838Y-103720317D01*
X121475910Y-103936441D01*
X121688110Y-104081431D01*
X121940000Y-104132440D01*
X124440000Y-104132440D01*
X124675317Y-104088162D01*
X124891441Y-103949090D01*
X125036431Y-103736890D01*
X125087440Y-103485000D01*
X125087440Y-102608305D01*
X128924674Y-102608305D01*
X129211043Y-103301372D01*
X129740839Y-103832093D01*
X130433405Y-104119672D01*
X131183305Y-104120326D01*
X131876372Y-103833957D01*
X132407093Y-103304161D01*
X132694672Y-102611595D01*
X132695326Y-101861695D01*
X132408957Y-101168628D01*
X131879161Y-100637907D01*
X131186595Y-100350328D01*
X130436695Y-100349674D01*
X129743628Y-100636043D01*
X129212907Y-101165839D01*
X128925328Y-101858405D01*
X128924674Y-102608305D01*
X125087440Y-102608305D01*
X125087440Y-100985000D01*
X125043162Y-100749683D01*
X124904090Y-100533559D01*
X124691890Y-100388569D01*
X124440000Y-100337560D01*
X121940000Y-100337560D01*
X121704683Y-100381838D01*
X121488559Y-100520910D01*
X121343569Y-100733110D01*
X121292560Y-100985000D01*
X118745714Y-100985000D01*
X118921800Y-100912243D01*
X119325824Y-100508923D01*
X119544750Y-99981691D01*
X119545248Y-99410813D01*
X119327243Y-98883200D01*
X118923923Y-98479176D01*
X118396691Y-98260250D01*
X117825813Y-98259752D01*
X117298200Y-98477757D01*
X116894176Y-98881077D01*
X116675250Y-99408309D01*
X116674752Y-99979187D01*
X99954398Y-99979187D01*
X99994838Y-99881799D01*
X99994879Y-99834923D01*
X102546114Y-97283688D01*
X102870000Y-97348113D01*
X103419151Y-97238880D01*
X103884698Y-96927811D01*
X104140000Y-96545725D01*
X104395302Y-96927811D01*
X104860849Y-97238880D01*
X105410000Y-97348113D01*
X105959151Y-97238880D01*
X106424698Y-96927811D01*
X106735767Y-96462264D01*
X106845000Y-95913113D01*
X106845000Y-95856887D01*
X106814340Y-95702745D01*
X117281861Y-95702745D01*
X117355995Y-95948864D01*
X117893223Y-96141965D01*
X118463454Y-96114778D01*
X118864005Y-95948864D01*
X118864168Y-95948320D01*
X122036285Y-95948320D01*
X122165533Y-96241123D01*
X122865806Y-96509388D01*
X123615435Y-96489250D01*
X124214467Y-96241123D01*
X124343715Y-95948320D01*
X123190000Y-94794605D01*
X122036285Y-95948320D01*
X118864168Y-95948320D01*
X118938139Y-95702745D01*
X118110000Y-94874605D01*
X117281861Y-95702745D01*
X106814340Y-95702745D01*
X106735767Y-95307736D01*
X106424698Y-94842189D01*
X106170000Y-94672005D01*
X106170000Y-94478223D01*
X116663035Y-94478223D01*
X116690222Y-95048454D01*
X116856136Y-95449005D01*
X117102255Y-95523139D01*
X117930395Y-94695000D01*
X118289605Y-94695000D01*
X119117745Y-95523139D01*
X119363864Y-95449005D01*
X119556965Y-94911777D01*
X119529778Y-94341546D01*
X119508761Y-94290806D01*
X121295612Y-94290806D01*
X121315750Y-95040435D01*
X121563877Y-95639467D01*
X121856680Y-95768715D01*
X123010395Y-94615000D01*
X123369605Y-94615000D01*
X124523320Y-95768715D01*
X124816123Y-95639467D01*
X125084388Y-94939194D01*
X125064250Y-94189565D01*
X124816123Y-93590533D01*
X124523320Y-93461285D01*
X123369605Y-94615000D01*
X123010395Y-94615000D01*
X121856680Y-93461285D01*
X121563877Y-93590533D01*
X121295612Y-94290806D01*
X119508761Y-94290806D01*
X119363864Y-93940995D01*
X119117745Y-93866861D01*
X118289605Y-94695000D01*
X117930395Y-94695000D01*
X117102255Y-93866861D01*
X116856136Y-93940995D01*
X116663035Y-94478223D01*
X106170000Y-94478223D01*
X106170000Y-93687255D01*
X117281861Y-93687255D01*
X118110000Y-94515395D01*
X118938139Y-93687255D01*
X118864005Y-93441136D01*
X118420382Y-93281680D01*
X122036285Y-93281680D01*
X123190000Y-94435395D01*
X124343715Y-93281680D01*
X124214467Y-92988877D01*
X123514194Y-92720612D01*
X122764565Y-92740750D01*
X122165533Y-92988877D01*
X122036285Y-93281680D01*
X118420382Y-93281680D01*
X118326777Y-93248035D01*
X117756546Y-93275222D01*
X117355995Y-93441136D01*
X117281861Y-93687255D01*
X106170000Y-93687255D01*
X106170000Y-92643667D01*
X106452811Y-92454698D01*
X106763880Y-91989151D01*
X106873113Y-91440000D01*
X106763880Y-90890849D01*
X106452811Y-90425302D01*
X105987264Y-90114233D01*
X105438113Y-90005000D01*
X105381887Y-90005000D01*
X104832736Y-90114233D01*
X104367189Y-90425302D01*
X104140000Y-90765314D01*
X103912811Y-90425302D01*
X103447264Y-90114233D01*
X102898113Y-90005000D01*
X102841887Y-90005000D01*
X102292736Y-90114233D01*
X101827189Y-90425302D01*
X101600000Y-90765314D01*
X101372811Y-90425302D01*
X100907264Y-90114233D01*
X100358113Y-90005000D01*
X100301887Y-90005000D01*
X99752736Y-90114233D01*
X99287189Y-90425302D01*
X99060000Y-90765314D01*
X98832811Y-90425302D01*
X98367264Y-90114233D01*
X97818113Y-90005000D01*
X97761887Y-90005000D01*
X97212736Y-90114233D01*
X96747189Y-90425302D01*
X96520000Y-90765314D01*
X96292811Y-90425302D01*
X95827264Y-90114233D01*
X95278113Y-90005000D01*
X95221887Y-90005000D01*
X94672736Y-90114233D01*
X94207189Y-90425302D01*
X94136850Y-90530572D01*
X94113162Y-90404683D01*
X93974090Y-90188559D01*
X93761890Y-90043569D01*
X93510000Y-89992560D01*
X91910000Y-89992560D01*
X91674683Y-90036838D01*
X91458559Y-90175910D01*
X91313569Y-90388110D01*
X91262560Y-90640000D01*
X91262560Y-92240000D01*
X91306838Y-92475317D01*
X91445910Y-92691441D01*
X91658110Y-92836431D01*
X91910000Y-92887440D01*
X93510000Y-92887440D01*
X93745317Y-92843162D01*
X93961441Y-92704090D01*
X94106431Y-92491890D01*
X94135645Y-92347625D01*
X94207189Y-92454698D01*
X94490000Y-92643667D01*
X94490000Y-94672005D01*
X94235302Y-94842189D01*
X93924233Y-95307736D01*
X93815000Y-95856887D01*
X93815000Y-95913113D01*
X93894152Y-96311036D01*
X93442599Y-96762589D01*
X93277852Y-97009151D01*
X93220000Y-97299990D01*
X93220000Y-104609367D01*
X92896799Y-104475162D01*
X92524833Y-104474838D01*
X92181057Y-104616883D01*
X92147882Y-104650000D01*
X88265000Y-104650000D01*
X87974161Y-104707852D01*
X87727599Y-104872599D01*
X87092599Y-105507599D01*
X86927852Y-105754161D01*
X86870000Y-106045000D01*
X86870000Y-106329168D01*
X86615302Y-106499352D01*
X86362493Y-106877707D01*
X86014896Y-106445500D01*
X85521819Y-106175633D01*
X85439039Y-106158096D01*
X85217000Y-106280085D01*
X85217000Y-107823000D01*
X85237000Y-107823000D01*
X85237000Y-108077000D01*
X85217000Y-108077000D01*
X85217000Y-109619915D01*
X85439039Y-109741904D01*
X85521819Y-109724367D01*
X86014896Y-109454500D01*
X86362493Y-109022293D01*
X86615302Y-109400648D01*
X87080849Y-109711717D01*
X87630000Y-109820950D01*
X88179151Y-109711717D01*
X88644698Y-109400648D01*
X88900000Y-109018562D01*
X89155302Y-109400648D01*
X89620849Y-109711717D01*
X90170000Y-109820950D01*
X90500423Y-109755225D01*
X91772599Y-111027401D01*
X92019161Y-111192148D01*
X92310000Y-111250000D01*
X93417537Y-111250000D01*
X93449673Y-111282192D01*
X93793201Y-111424838D01*
X94165167Y-111425162D01*
X94508943Y-111283117D01*
X94519379Y-111272699D01*
X94547852Y-111415839D01*
X94712599Y-111662401D01*
X97027058Y-113976860D01*
X96865104Y-114065500D01*
X96520000Y-114494607D01*
X96174896Y-114065500D01*
X95681819Y-113795633D01*
X95599039Y-113778096D01*
X95377000Y-113900085D01*
X95377000Y-115443000D01*
X97663000Y-115443000D01*
X97663000Y-115423000D01*
X97917000Y-115423000D01*
X97917000Y-115443000D01*
X100203000Y-115443000D01*
X100203000Y-115423000D01*
X100457000Y-115423000D01*
X100457000Y-115443000D01*
X100477000Y-115443000D01*
X100477000Y-115697000D01*
X100457000Y-115697000D01*
X100457000Y-115717000D01*
X100203000Y-115717000D01*
X100203000Y-115697000D01*
X97917000Y-115697000D01*
X97917000Y-115717000D01*
X97663000Y-115717000D01*
X97663000Y-115697000D01*
X95377000Y-115697000D01*
X95377000Y-115717000D01*
X95123000Y-115717000D01*
X95123000Y-115697000D01*
X92837000Y-115697000D01*
X92837000Y-115717000D01*
X92583000Y-115717000D01*
X92583000Y-115697000D01*
X92563000Y-115697000D01*
X92563000Y-115443000D01*
X92583000Y-115443000D01*
X92583000Y-113900085D01*
X92837000Y-113900085D01*
X92837000Y-115443000D01*
X95123000Y-115443000D01*
X95123000Y-113900085D01*
X94900961Y-113778096D01*
X94818181Y-113795633D01*
X94325104Y-114065500D01*
X93980000Y-114494607D01*
X93634896Y-114065500D01*
X93141819Y-113795633D01*
X93059039Y-113778096D01*
X92837000Y-113900085D01*
X92583000Y-113900085D01*
X92360961Y-113778096D01*
X92278181Y-113795633D01*
X91785104Y-114065500D01*
X91437507Y-114497707D01*
X91184698Y-114119352D01*
X90719151Y-113808283D01*
X90170000Y-113699050D01*
X89620849Y-113808283D01*
X89155302Y-114119352D01*
X88902493Y-114497707D01*
X88554896Y-114065500D01*
X88061819Y-113795633D01*
X87979039Y-113778096D01*
X87757000Y-113900085D01*
X87757000Y-115443000D01*
X87777000Y-115443000D01*
X87777000Y-115697000D01*
X87757000Y-115697000D01*
X87757000Y-117239915D01*
X87979039Y-117361904D01*
X88061819Y-117344367D01*
X88554896Y-117074500D01*
X88902493Y-116642293D01*
X89155302Y-117020648D01*
X89586931Y-117309054D01*
X89632599Y-117377401D01*
X90902599Y-118647401D01*
X91149160Y-118812148D01*
X91440000Y-118870000D01*
X105482537Y-118870000D01*
X105514673Y-118902192D01*
X105858201Y-119044838D01*
X105920000Y-119044892D01*
X105920000Y-120087537D01*
X105887808Y-120119673D01*
X105745162Y-120463201D01*
X105745108Y-120525000D01*
X86039802Y-120525000D01*
X85850000Y-120335198D01*
X85850000Y-117417440D01*
X85890000Y-117417440D01*
X86125317Y-117373162D01*
X86341441Y-117234090D01*
X86486431Y-117021890D01*
X86521906Y-116846709D01*
X86705104Y-117074500D01*
X87198181Y-117344367D01*
X87280961Y-117361904D01*
X87503000Y-117239915D01*
X87503000Y-115697000D01*
X87483000Y-115697000D01*
X87483000Y-115443000D01*
X87503000Y-115443000D01*
X87503000Y-113900085D01*
X87280961Y-113778096D01*
X87198181Y-113795633D01*
X86705104Y-114065500D01*
X86522798Y-114292182D01*
X86493162Y-114134683D01*
X86354090Y-113918559D01*
X86141890Y-113773569D01*
X85890000Y-113722560D01*
X84290000Y-113722560D01*
X84054683Y-113766838D01*
X83838559Y-113905910D01*
X83693569Y-114118110D01*
X83642560Y-114370000D01*
X83642560Y-116770000D01*
X83686838Y-117005317D01*
X83825910Y-117221441D01*
X84038110Y-117366431D01*
X84290000Y-117417440D01*
X84330000Y-117417440D01*
X84330000Y-120650000D01*
X84387852Y-120940839D01*
X84552599Y-121187401D01*
X85187599Y-121822401D01*
X85434161Y-121987148D01*
X85725000Y-122045000D01*
X107950000Y-122045000D01*
X108240839Y-121987148D01*
X108487401Y-121822401D01*
X110804802Y-119505000D01*
X117795198Y-119505000D01*
X119714878Y-121424680D01*
X119714838Y-121470167D01*
X119856883Y-121813943D01*
X120119673Y-122077192D01*
X120463201Y-122219838D01*
X120835167Y-122220162D01*
X121178943Y-122078117D01*
X121442192Y-121815327D01*
X121584838Y-121471799D01*
X121585162Y-121099833D01*
X121443117Y-120756057D01*
X121180327Y-120492808D01*
X120836799Y-120350162D01*
X120789923Y-120350121D01*
X119309802Y-118870000D01*
X124145198Y-118870000D01*
X126240000Y-120964802D01*
X126240000Y-123822046D01*
X125949946Y-124015853D01*
X125722298Y-124356553D01*
X125655183Y-124213642D01*
X125226924Y-123823355D01*
X124816890Y-123653524D01*
X124587000Y-123774845D01*
X124587000Y-124968000D01*
X124607000Y-124968000D01*
X124607000Y-125222000D01*
X124587000Y-125222000D01*
X124587000Y-125242000D01*
X124333000Y-125242000D01*
X124333000Y-125222000D01*
X124313000Y-125222000D01*
X124313000Y-124968000D01*
X124333000Y-124968000D01*
X124333000Y-123774845D01*
X124103110Y-123653524D01*
X123693076Y-123823355D01*
X123264817Y-124213642D01*
X123197702Y-124356553D01*
X122970054Y-124015853D01*
X122488285Y-123693946D01*
X121920000Y-123580907D01*
X121351715Y-123693946D01*
X120869946Y-124015853D01*
X120650000Y-124345026D01*
X120430054Y-124015853D01*
X119948285Y-123693946D01*
X119380000Y-123580907D01*
X118811715Y-123693946D01*
X118329946Y-124015853D01*
X118110000Y-124345026D01*
X117890054Y-124015853D01*
X117408285Y-123693946D01*
X116840000Y-123580907D01*
X116271715Y-123693946D01*
X115789946Y-124015853D01*
X115570000Y-124345026D01*
X115350054Y-124015853D01*
X114868285Y-123693946D01*
X114300000Y-123580907D01*
X113731715Y-123693946D01*
X113249946Y-124015853D01*
X113030000Y-124345026D01*
X112810054Y-124015853D01*
X112328285Y-123693946D01*
X111760000Y-123580907D01*
X111191715Y-123693946D01*
X110709946Y-124015853D01*
X110490000Y-124345026D01*
X110270054Y-124015853D01*
X109788285Y-123693946D01*
X109220000Y-123580907D01*
X108651715Y-123693946D01*
X108169946Y-124015853D01*
X107950000Y-124345026D01*
X107730054Y-124015853D01*
X107248285Y-123693946D01*
X106680000Y-123580907D01*
X106111715Y-123693946D01*
X105629946Y-124015853D01*
X105410000Y-124345026D01*
X105190054Y-124015853D01*
X104708285Y-123693946D01*
X104140000Y-123580907D01*
X103571715Y-123693946D01*
X103089946Y-124015853D01*
X102870000Y-124345026D01*
X102650054Y-124015853D01*
X102168285Y-123693946D01*
X101600000Y-123580907D01*
X101031715Y-123693946D01*
X100549946Y-124015853D01*
X100330000Y-124345026D01*
X100110054Y-124015853D01*
X99628285Y-123693946D01*
X99060000Y-123580907D01*
X98491715Y-123693946D01*
X98009946Y-124015853D01*
X97790000Y-124345026D01*
X97570054Y-124015853D01*
X97088285Y-123693946D01*
X96520000Y-123580907D01*
X95951715Y-123693946D01*
X95469946Y-124015853D01*
X95250000Y-124345026D01*
X95030054Y-124015853D01*
X94548285Y-123693946D01*
X93980000Y-123580907D01*
X93411715Y-123693946D01*
X92929946Y-124015853D01*
X92710000Y-124345026D01*
X92490054Y-124015853D01*
X92008285Y-123693946D01*
X91440000Y-123580907D01*
X90871715Y-123693946D01*
X90389946Y-124015853D01*
X90170000Y-124345026D01*
X89950054Y-124015853D01*
X89468285Y-123693946D01*
X88900000Y-123580907D01*
X88331715Y-123693946D01*
X87849946Y-124015853D01*
X87630000Y-124345026D01*
X87410054Y-124015853D01*
X86928285Y-123693946D01*
X86360000Y-123580907D01*
X85791715Y-123693946D01*
X85309946Y-124015853D01*
X85090000Y-124345026D01*
X84870054Y-124015853D01*
X84388285Y-123693946D01*
X83820000Y-123580907D01*
X83251715Y-123693946D01*
X82769946Y-124015853D01*
X82742150Y-124057452D01*
X82733162Y-124009683D01*
X82594090Y-123793559D01*
X82381890Y-123648569D01*
X82130000Y-123597560D01*
X80430000Y-123597560D01*
X80313600Y-123619462D01*
X80313600Y-108077000D01*
X83655000Y-108077000D01*
X83655000Y-108477000D01*
X83812834Y-109016483D01*
X84165104Y-109454500D01*
X84658181Y-109724367D01*
X84740961Y-109741904D01*
X84963000Y-109619915D01*
X84963000Y-108077000D01*
X83655000Y-108077000D01*
X80313600Y-108077000D01*
X80313600Y-107423000D01*
X83655000Y-107423000D01*
X83655000Y-107823000D01*
X84963000Y-107823000D01*
X84963000Y-106280085D01*
X84740961Y-106158096D01*
X84658181Y-106175633D01*
X84165104Y-106445500D01*
X83812834Y-106883517D01*
X83655000Y-107423000D01*
X80313600Y-107423000D01*
X80313600Y-92140492D01*
X81206472Y-91247619D01*
X85394613Y-91247619D01*
X85734155Y-92069372D01*
X86362321Y-92698636D01*
X87183481Y-93039611D01*
X88072619Y-93040387D01*
X88894372Y-92700845D01*
X89523636Y-92072679D01*
X89864611Y-91251519D01*
X89865387Y-90362381D01*
X89525845Y-89540628D01*
X88897679Y-88911364D01*
X88076519Y-88570389D01*
X87187381Y-88569613D01*
X86365628Y-88909155D01*
X85736364Y-89537321D01*
X85395389Y-90358481D01*
X85394613Y-91247619D01*
X81206472Y-91247619D01*
X93428341Y-79025750D01*
X96940000Y-79025750D01*
X96940000Y-79716309D01*
X97036673Y-79949698D01*
X97215301Y-80128327D01*
X97448690Y-80225000D01*
X98139250Y-80225000D01*
X98298000Y-80066250D01*
X98298000Y-78867000D01*
X97098750Y-78867000D01*
X96940000Y-79025750D01*
X93428341Y-79025750D01*
X94909091Y-77545000D01*
X97030585Y-77545000D01*
X96940000Y-77763691D01*
M02*
