G04 #@! TF.FileFunction,Soldermask,Top*
%FSLAX46Y46*%
G04 Gerber Fmt 4.6, Leading zero omitted, Abs format (unit mm)*
G04 Created by KiCad (PCBNEW 4.0.6) date 08/29/17 13:01:26*
%MOMM*%
%LPD*%
G01*
G04 APERTURE LIST*
%ADD10C,0.100000*%
%ADD11R,2.800000X2.000000*%
%ADD12O,2.800000X2.000000*%
%ADD13R,2.100000X2.100000*%
%ADD14O,2.100000X2.100000*%
%ADD15C,2.000000*%
%ADD16C,3.600000*%
%ADD17R,2.000000X2.000000*%
%ADD18O,2.000000X2.000000*%
%ADD19R,2.000000X2.800000*%
%ADD20O,2.000000X2.800000*%
%ADD21R,2.900000X2.900000*%
%ADD22C,2.900000*%
G04 APERTURE END LIST*
D10*
D11*
X152400000Y-83820000D03*
D12*
X167640000Y-116840000D03*
X152400000Y-86360000D03*
X167640000Y-114300000D03*
X152400000Y-88900000D03*
X167640000Y-111760000D03*
X152400000Y-91440000D03*
X167640000Y-109220000D03*
X152400000Y-93980000D03*
X167640000Y-106680000D03*
X152400000Y-96520000D03*
X167640000Y-104140000D03*
X152400000Y-99060000D03*
X167640000Y-101600000D03*
X152400000Y-101600000D03*
X167640000Y-99060000D03*
X152400000Y-104140000D03*
X167640000Y-96520000D03*
X152400000Y-106680000D03*
X167640000Y-93980000D03*
X152400000Y-109220000D03*
X167640000Y-91440000D03*
X152400000Y-111760000D03*
X167640000Y-88900000D03*
X152400000Y-114300000D03*
X167640000Y-86360000D03*
X152400000Y-116840000D03*
X167640000Y-83820000D03*
D13*
X98425000Y-78740000D03*
D14*
X100965000Y-78740000D03*
X103505000Y-78740000D03*
X106045000Y-78740000D03*
X108585000Y-78740000D03*
X111125000Y-78740000D03*
X113665000Y-78740000D03*
X116205000Y-78740000D03*
X118745000Y-78740000D03*
X121285000Y-78740000D03*
X123825000Y-78740000D03*
D15*
X136525000Y-104655000D03*
X136525000Y-99655000D03*
D16*
X87630000Y-90805000D03*
D13*
X142240000Y-108585000D03*
D14*
X142240000Y-111125000D03*
X142240000Y-113665000D03*
D17*
X92710000Y-91440000D03*
D18*
X95250000Y-91440000D03*
X97790000Y-91440000D03*
X100330000Y-91440000D03*
X102870000Y-91440000D03*
X105410000Y-91440000D03*
D17*
X95250000Y-103505000D03*
D18*
X105410000Y-95885000D03*
X97790000Y-103505000D03*
X102870000Y-95885000D03*
X100330000Y-103505000D03*
X100330000Y-95885000D03*
X102870000Y-103505000D03*
X97790000Y-95885000D03*
X105410000Y-103505000D03*
X95250000Y-95885000D03*
D19*
X116840000Y-115570000D03*
D20*
X132080000Y-107950000D03*
X119380000Y-115570000D03*
X129540000Y-107950000D03*
X121920000Y-115570000D03*
X127000000Y-107950000D03*
X124460000Y-115570000D03*
X124460000Y-107950000D03*
X127000000Y-115570000D03*
X121920000Y-107950000D03*
X129540000Y-115570000D03*
X119380000Y-107950000D03*
X132080000Y-115570000D03*
X116840000Y-107950000D03*
D19*
X85090000Y-115570000D03*
D20*
X107950000Y-107950000D03*
X87630000Y-115570000D03*
X105410000Y-107950000D03*
X90170000Y-115570000D03*
X102870000Y-107950000D03*
X92710000Y-115570000D03*
X100330000Y-107950000D03*
X95250000Y-115570000D03*
X97790000Y-107950000D03*
X97790000Y-115570000D03*
X95250000Y-107950000D03*
X100330000Y-115570000D03*
X92710000Y-107950000D03*
X102870000Y-115570000D03*
X90170000Y-107950000D03*
X105410000Y-115570000D03*
X87630000Y-107950000D03*
X107950000Y-115570000D03*
X85090000Y-107950000D03*
D21*
X123190000Y-102235000D03*
D22*
X123190000Y-94615000D03*
X130810000Y-94615000D03*
X130810000Y-102235000D03*
D15*
X147955000Y-114220000D03*
X147955000Y-109220000D03*
X136525000Y-115450000D03*
X136525000Y-110450000D03*
X112395000Y-108070000D03*
X112395000Y-113070000D03*
X118110000Y-94695000D03*
X118110000Y-99695000D03*
D13*
X81280000Y-125095000D03*
D14*
X83820000Y-125095000D03*
X86360000Y-125095000D03*
X88900000Y-125095000D03*
X91440000Y-125095000D03*
X93980000Y-125095000D03*
X96520000Y-125095000D03*
X99060000Y-125095000D03*
X101600000Y-125095000D03*
X104140000Y-125095000D03*
X106680000Y-125095000D03*
X109220000Y-125095000D03*
X111760000Y-125095000D03*
X114300000Y-125095000D03*
X116840000Y-125095000D03*
X119380000Y-125095000D03*
X121920000Y-125095000D03*
X124460000Y-125095000D03*
X127000000Y-125095000D03*
X129540000Y-125095000D03*
X132080000Y-125095000D03*
X134620000Y-125095000D03*
X137160000Y-125095000D03*
X139700000Y-125095000D03*
X142240000Y-125095000D03*
X144780000Y-125095000D03*
X147320000Y-125095000D03*
X149860000Y-125095000D03*
X152400000Y-125095000D03*
X154940000Y-125095000D03*
X157480000Y-125095000D03*
X160020000Y-125095000D03*
X162560000Y-125095000D03*
X165100000Y-125095000D03*
X167640000Y-125095000D03*
X170180000Y-125095000D03*
X172720000Y-125095000D03*
X175260000Y-125095000D03*
X177800000Y-125095000D03*
D17*
X144780000Y-103425000D03*
D15*
X144780000Y-98425000D03*
M02*
