M48
;DRILL file {KiCad 4.0.6} date 08/29/17 13:00:29
;FORMAT={-:-/ absolute / inch / decimal}
FMAT,2
INCH,TZ
T1C0.016
T2C0.031
T3C0.039
%
G90
G05
M72
T1
X3.65Y-4.15
X3.7Y-4.35
X3.75Y-4.15
X3.775Y-4.35
X3.9Y-3.925
X3.9Y-4.025
X3.9Y-4.3
X3.95Y-4.15
X3.975Y-4.35
X4.05Y-4.375
X4.15Y-4.475
X4.175Y-4.65
X4.2Y-4.75
X4.225Y-4.65
X4.75Y-4.775
X4.875Y-4.375
X4.95Y-4.35
X5.025Y-4.775
X5.05Y-3.95
X5.15Y-4.675
X5.175Y-4.7
X5.2Y-4.725
X5.225Y-3.375
X5.275Y-3.8
X5.275Y-4.65
X5.275Y-4.775
X5.3Y-4.
X5.3Y-4.675
X5.3Y-4.75
X5.325Y-4.7
X5.35Y-3.35
X5.35Y-4.725
X5.475Y-3.35
X5.475Y-3.475
X5.475Y-4.2
X5.5Y-4.675
X5.5Y-4.725
X5.5Y-4.775
X5.525Y-4.65
X5.525Y-4.7
X5.575Y-3.45
X5.575Y-3.8
X5.65Y-4.65
X5.65Y-4.825
X5.7Y-3.575
X5.75Y-3.625
X5.8Y-4.75
X5.9Y-4.75
X6.Y-4.75
X6.05Y-4.725
X6.075Y-4.7
X6.1Y-4.675
X6.15Y-4.075
X6.175Y-4.375
X6.325Y-4.225
X6.325Y-4.375
X6.375Y-4.15
X6.375Y-4.375
X6.45Y-4.05
X6.45Y-4.375
X6.7Y-4.35
X6.7Y-4.6
X6.75Y-4.35
X6.75Y-4.6
X6.8Y-4.35
X6.8Y-4.6
T2
X3.35Y-4.25
X3.35Y-4.55
X3.45Y-4.25
X3.45Y-4.55
X3.55Y-4.25
X3.55Y-4.55
X3.65Y-3.6
X3.65Y-4.25
X3.65Y-4.55
X3.75Y-3.6
X3.75Y-3.775
X3.75Y-4.075
X3.75Y-4.25
X3.75Y-4.55
X3.85Y-3.6
X3.85Y-3.775
X3.85Y-4.075
X3.85Y-4.25
X3.85Y-4.55
X3.95Y-3.6
X3.95Y-3.775
X3.95Y-4.075
X3.95Y-4.25
X3.95Y-4.55
X4.05Y-3.6
X4.05Y-3.775
X4.05Y-4.075
X4.05Y-4.25
X4.05Y-4.55
X4.15Y-3.6
X4.15Y-3.775
X4.15Y-4.075
X4.15Y-4.25
X4.15Y-4.55
X4.25Y-4.25
X4.25Y-4.55
X4.425Y-4.2547
X4.425Y-4.4516
X4.6Y-4.25
X4.6Y-4.55
X4.65Y-3.7281
X4.65Y-3.925
X4.7Y-4.25
X4.7Y-4.55
X4.8Y-4.25
X4.8Y-4.55
X4.9Y-4.25
X4.9Y-4.55
X5.Y-4.25
X5.Y-4.55
X5.1Y-4.25
X5.1Y-4.55
X5.2Y-4.25
X5.2Y-4.55
X5.375Y-3.9234
X5.375Y-4.1203
X5.375Y-4.3484
X5.375Y-4.5453
X5.7Y-3.875
X5.7Y-4.0719
X5.825Y-4.3
X5.825Y-4.4969
X6.Y-3.3
X6.Y-3.4
X6.Y-3.5
X6.Y-3.6
X6.Y-3.7
X6.Y-3.8
X6.Y-3.9
X6.Y-4.
X6.Y-4.1
X6.Y-4.2
X6.Y-4.3
X6.Y-4.4
X6.Y-4.5
X6.Y-4.6
X6.6Y-3.3
X6.6Y-3.4
X6.6Y-3.5
X6.6Y-3.6
X6.6Y-3.7
X6.6Y-3.8
X6.6Y-3.9
X6.6Y-4.
X6.6Y-4.1
X6.6Y-4.2
X6.6Y-4.3
X6.6Y-4.4
X6.6Y-4.5
X6.6Y-4.6
T3
X3.2Y-4.925
X3.3Y-4.925
X3.4Y-4.925
X3.5Y-4.925
X3.6Y-4.925
X3.7Y-4.925
X3.8Y-4.925
X3.875Y-3.1
X3.9Y-4.925
X3.975Y-3.1
X4.Y-4.925
X4.075Y-3.1
X4.1Y-4.925
X4.175Y-3.1
X4.2Y-4.925
X4.275Y-3.1
X4.3Y-4.925
X4.375Y-3.1
X4.4Y-4.925
X4.475Y-3.1
X4.5Y-4.925
X4.575Y-3.1
X4.6Y-4.925
X4.675Y-3.1
X4.7Y-4.925
X4.775Y-3.1
X4.8Y-4.925
X4.85Y-3.725
X4.85Y-4.025
X4.875Y-3.1
X4.9Y-4.925
X5.Y-4.925
X5.1Y-4.925
X5.15Y-3.725
X5.15Y-4.025
X5.2Y-4.925
X5.3Y-4.925
X5.4Y-4.925
X5.5Y-4.925
X5.6Y-4.275
X5.6Y-4.375
X5.6Y-4.475
X5.6Y-4.925
X5.7Y-4.925
X5.8Y-4.925
X5.9Y-4.925
X6.Y-4.925
X6.1Y-4.925
X6.2Y-4.925
X6.3Y-4.925
X6.4Y-4.925
X6.5Y-4.925
X6.6Y-4.925
X6.7Y-4.925
X6.8Y-4.925
X6.9Y-4.925
X7.Y-4.925
T0
M30
